<svg xmlns="http://www.w3.org/2000/svg" width="129.625" height="129.625" viewBox="0 0 129.625 129.625">
  <g id="Group_400" data-name="Group 400" transform="translate(-257.5 -1023.035)">
    <g id="Union_27" data-name="Union 27" transform="translate(257.5 1023.035)" fill="none">
      <path d="M64.813,0A64.813,64.813,0,1,1,0,64.813,64.814,64.814,0,0,1,64.813,0Z" stroke="none"/>
      <path d="M 64.8125 1 C 56.19754791259766 1 47.84073638916016 2.687164306640625 39.97418212890625 6.0146484375 C 36.19326782226563 7.61395263671875 32.54648590087891 9.593467712402344 29.13510131835938 11.89824676513672 C 25.75592041015625 14.18129730224609 22.57823181152344 16.80321502685547 19.69031524658203 19.69121551513672 C 16.80241394042969 22.57918548583984 14.18058013916016 25.75693511962891 11.89761352539063 29.13616943359375 C 9.592948913574219 32.54753112792969 7.613517761230469 36.19431304931641 6.014320373535156 39.97519683837891 C 2.687049865722656 47.84156799316406 1 56.19803619384766 1 64.8125 C 1 73.42753601074219 2.687065124511719 81.78434753417969 6.014320373535156 89.65083312988281 C 7.613517761230469 93.4317626953125 9.592948913574219 97.07855224609375 11.89761352539063 100.4899139404297 C 14.18056488037109 103.8691177368164 16.80239868164063 107.0467987060547 19.69029998779297 109.934700012207 C 22.57820129394531 112.8226013183594 25.75588226318359 115.4444351196289 29.13508605957031 117.7273864746094 C 32.54644775390625 120.0320510864258 36.19322967529297 122.0114822387695 39.97416687011719 123.6106872558594 C 47.84065246582031 126.9379348754883 56.19746398925781 128.625 64.8125 128.625 C 73.42753601074219 128.625 81.78434753417969 126.9379348754883 89.65083312988281 123.6106872558594 C 93.4317626953125 122.0114822387695 97.07855224609375 120.0320510864258 100.4899139404297 117.7273864746094 C 103.8691177368164 115.4444351196289 107.0467987060547 112.8226013183594 109.934700012207 109.934700012207 C 112.8226013183594 107.0467987060547 115.4444351196289 103.8691177368164 117.7273864746094 100.4899139404297 C 120.0320510864258 97.07855224609375 122.0114822387695 93.4317626953125 123.6106872558594 89.65083312988281 C 126.9379348754883 81.78434753417969 128.625 73.42753601074219 128.625 64.8125 C 128.625 56.19803619384766 126.9379501342773 47.84156799316406 123.6106872558594 39.97519683837891 C 122.0114822387695 36.19431304931641 120.0320510864258 32.54753112792969 117.7273864746094 29.13616943359375 C 115.4444198608398 25.75693511962891 112.8225860595703 22.57918548583984 109.934684753418 19.69121551513672 C 107.0467681884766 16.80321502685547 103.8690795898438 14.18129730224609 100.4898986816406 11.89824676513672 C 97.07852172851563 9.593467712402344 93.43173217773438 7.61395263671875 89.65081787109375 6.0146484375 C 81.78427124023438 2.687164306640625 73.42744445800781 1 64.8125 1 M 64.8125 0 C 100.6072998046875 0 129.625 29.02014923095703 129.625 64.8125 C 129.625 100.6072998046875 100.6072998046875 129.625 64.8125 129.625 C 29.0177001953125 129.625 0 100.6072998046875 0 64.8125 C 0 29.02014923095703 29.0177001953125 0 64.8125 0 Z" stroke="none" fill="#de6e5f"/>
    </g>
    <path id="Subtraction_27" data-name="Subtraction 27" d="M51.852,104.993a50.916,50.916,0,0,1-21.814-4.856l9.549-18.115,8.908,4.539a1.972,1.972,0,0,0,1.522.123,1.9,1.9,0,0,0,.713-.231c1.753-1.425,3.487-2.924,5.153-4.455l14.339,3.413a1.7,1.7,0,0,0,.466.061,1.673,1.673,0,0,0,.542-.086.048.048,0,0,1,.018,0,.028.028,0,0,1,.02,0,2.518,2.518,0,0,0,.6-.4,2.064,2.064,0,0,0,.822-1.442l2.567-25.01c1.633-2.646,3.17-5.394,4.569-8.165l.365-.708a49.866,49.866,0,0,0,2.519-39.348,52.6,52.6,0,0,1,19.5,29.652A53.43,53.43,0,0,1,103.7,52.5,52.668,52.668,0,0,1,88.511,89.618a51.524,51.524,0,0,1-16.481,11.247A50.962,50.962,0,0,1,51.852,104.993ZM26.5,98.3v0A52.945,52.945,0,0,1,4.075,32.065,52.334,52.334,0,0,1,15.187,15.377,51.593,51.593,0,0,1,31.668,4.126,51.445,51.445,0,0,1,69.706,3.2,49.859,49.859,0,0,0,38.734,28.484l-.366.705c-1.446,2.841-2.8,5.8-4.011,8.78L15.763,54.6a2.019,2.019,0,0,0-.655,1.509,1.961,1.961,0,0,0,.686,1.5l11.118,9.684c-.258,2.263-.441,4.5-.547,6.654a1.98,1.98,0,0,0,1.084,1.89l8.582,4.369L26.5,98.3Zm42.451-17.41v0l-9.613-2.2A110.826,110.826,0,0,0,70.5,65.618L68.949,80.89Zm-41.4-18.341,0,0-7.352-6.48L31.454,46a111.112,111.112,0,0,0-3.908,16.55Z" transform="translate(271.571 1034.836)" fill="#de6e5f"/>
  </g>
</svg>
