<svg xmlns="http://www.w3.org/2000/svg" width="130.055" height="123.689" viewBox="0 0 130.055 123.689">
  <g id="Group_398" data-name="Group 398" transform="translate(-249.973 -1030.152)">
    <g id="Union_19" data-name="Union 19" transform="translate(249.973 1043.152)" fill="#323530">
      <path d="M 129.5545959472656 110.1887664794922 L 0.4999979734420776 110.1887664794922 L 0.4999979734420776 -12.5 L 129.5545959472656 -12.5 L 129.5545959472656 110.1887664794922 Z" stroke="none"/>
      <path d="M 1 -12 L 1 109.6887664794922 L 129.0545959472656 109.6887664794922 L 129.0545959472656 -12 L 1 -12 M 0 -13 L 130.0545959472656 -13 L 130.0545959472656 110.6887664794922 L 0 110.6887664794922 L 0 -13 Z" stroke="none" fill="#a7ccbf"/>
    </g>
    <path id="Subtraction_24" data-name="Subtraction 24" d="M114,107H62.969l36.62-58.9a2.9,2.9,0,0,0,0-3.15,3.254,3.254,0,0,0-2.8-1.574h-16.8L100.115,0H114V107Zm-58.735,0H0V0H55.854l-13.2,61.641a2.467,2.467,0,0,0,.626,2.518,2.787,2.787,0,0,0,2.486,1.266H60.7L55.267,107v0h0Z" transform="translate(257.973 1038.781)" fill="#a7ccbf"/>
  </g>
</svg>
