<svg xmlns="http://www.w3.org/2000/svg" width="141" height="136" viewBox="0 0 141 136">
  <g id="Group_401" data-name="Group 401" transform="translate(33.563 23.254)">
    <g id="Union_23" data-name="Union 23" transform="translate(-9444 -18607.002)" fill="none">
      <path d="M9503.681,18583.748a16,16,0,0,1,11.107,4.484l31.757,30.631a16,16,0,0,1,4.893,11.516v42.738a16,16,0,0,1-4.893,11.516l-31.757,30.631a16,16,0,0,1-11.107,4.484h-45.486a16,16,0,0,1-11.107-4.484l-31.757-30.631a16,16,0,0,1-4.893-11.516v-42.738a16,16,0,0,1,4.893-11.516l31.757-30.631a16,16,0,0,1,11.107-4.484Z" stroke="none"/>
      <path d="M 9458.1943359375 18584.748046875 C 9456.2607421875 18584.748046875 9454.3720703125 18585.115234375 9452.5791015625 18585.837890625 C 9450.787109375 18586.5625 9449.1728515625 18587.609375 9447.78125 18588.953125 L 9416.0244140625 18619.583984375 C 9414.5654296875 18620.990234375 9413.423828125 18622.6484375 9412.6318359375 18624.513671875 C 9411.8388671875 18626.37890625 9411.4375 18628.3515625 9411.4375 18630.37890625 L 9411.4375 18673.1171875 C 9411.4375 18675.14453125 9411.8388671875 18677.1171875 9412.6318359375 18678.982421875 C 9413.423828125 18680.84765625 9414.5654296875 18682.505859375 9416.0244140625 18683.912109375 L 9447.78125 18714.544921875 C 9449.1728515625 18715.88671875 9450.787109375 18716.93359375 9452.5791015625 18717.658203125 C 9454.3720703125 18718.380859375 9456.2607421875 18718.748046875 9458.1943359375 18718.748046875 L 9503.6806640625 18718.748046875 C 9505.6142578125 18718.748046875 9507.5029296875 18718.380859375 9509.2958984375 18717.658203125 C 9511.087890625 18716.93359375 9512.7021484375 18715.88671875 9514.09375 18714.54296875 L 9545.8505859375 18683.912109375 C 9547.3095703125 18682.505859375 9548.451171875 18680.84765625 9549.2431640625 18678.982421875 C 9550.0361328125 18677.1171875 9550.4375 18675.14453125 9550.4375 18673.1171875 L 9550.4375 18630.37890625 C 9550.4375 18628.3515625 9550.0361328125 18626.37890625 9549.2431640625 18624.513671875 C 9548.451171875 18622.6484375 9547.3095703125 18620.990234375 9545.8505859375 18619.583984375 L 9514.09375 18588.951171875 C 9512.7021484375 18587.609375 9511.087890625 18586.5625 9509.2958984375 18585.837890625 C 9507.5029296875 18585.115234375 9505.6142578125 18584.748046875 9503.6806640625 18584.748046875 L 9458.1943359375 18584.748046875 M 9458.1943359375 18583.748046875 L 9503.6806640625 18583.748046875 C 9507.82421875 18583.748046875 9511.8056640625 18585.35546875 9514.7880859375 18588.232421875 L 9546.544921875 18618.86328125 C 9549.671875 18621.87890625 9551.4375 18626.03515625 9551.4375 18630.37890625 L 9551.4375 18673.1171875 C 9551.4375 18677.4609375 9549.671875 18681.6171875 9546.544921875 18684.6328125 L 9514.7880859375 18715.263671875 C 9511.8056640625 18718.140625 9507.82421875 18719.748046875 9503.6806640625 18719.748046875 L 9458.1943359375 18719.748046875 C 9454.05078125 18719.748046875 9450.0693359375 18718.140625 9447.0869140625 18715.263671875 L 9415.330078125 18684.6328125 C 9412.203125 18681.6171875 9410.4375 18677.4609375 9410.4375 18673.1171875 L 9410.4375 18630.37890625 C 9410.4375 18626.03515625 9412.203125 18621.87890625 9415.330078125 18618.86328125 L 9447.0869140625 18588.232421875 C 9450.0693359375 18585.35546875 9454.05078125 18583.748046875 9458.1943359375 18583.748046875 Z" stroke="none" fill="#ebebeb"/>
    </g>
    <path id="Subtraction_25" data-name="Subtraction 25" d="M9496.546,18716.52h-37.179a15.945,15.945,0,0,1-11.123-4.5l-4.6-4.451,32.97-24.748a2,2,0,0,1,2.4,0l33.13,24.871-4.477,4.328A15.928,15.928,0,0,1,9496.546,18716.52Zm19.741-12.832v0l-12.934-38.766a2,2,0,0,1,.732-2.26l34.189-24.514a16.186,16.186,0,0,1,.185,2.428v34.887a16.01,16.01,0,0,1-4.88,11.508l-17.291,16.717Zm-76.877-.211v0l-17.075-16.51a16,16,0,0,1-4.875-11.5v-34.887a15.911,15.911,0,0,1,.157-2.238l33.926,24.324a1.993,1.993,0,0,1,.732,2.26l-12.863,38.555Zm55.389-69.742h-.021a1.988,1.988,0,0,1-1.909-1.4l-10.167-32.814h13.845a15.921,15.921,0,0,1,11.123,4.5l25.91,25.055a15.928,15.928,0,0,1,3.121,4.209Zm-33.949,0h-.021l-41.613-.451a16,16,0,0,1,3.119-4.217l25.91-25.051a15.938,15.938,0,0,1,11.123-4.5h13.559l-10.167,32.814A1.988,1.988,0,0,1,9460.85,18633.734Z" transform="translate(-9441.02 -18612.768)" fill="#ebebeb"/>
  </g>
</svg>
