<svg xmlns="http://www.w3.org/2000/svg" width="106" height="106" viewBox="0 0 106 106">
  <g id="Group_399" data-name="Group 399" transform="translate(16.563 10.254)">
    <g id="Union_22" data-name="Union 22" transform="translate(-9059 -18954.002)" fill="none">
      <path d="M9095.438,18943.748a53,53,0,1,1-53,53A53,53,0,0,1,9095.438,18943.748Z" stroke="none"/>
      <path d="M 9095.4375 18944.748046875 C 9088.4169921875 18944.748046875 9081.607421875 18946.123046875 9075.197265625 18948.833984375 C 9069.0048828125 18951.453125 9063.443359375 18955.203125 9058.66796875 18959.978515625 C 9053.8916015625 18964.75390625 9050.142578125 18970.314453125 9047.5234375 18976.5078125 C 9044.8125 18982.91796875 9043.4375 18989.728515625 9043.4375 18996.748046875 C 9043.4375 19003.767578125 9044.8125 19010.578125 9047.5234375 19016.98828125 C 9050.142578125 19023.181640625 9053.8916015625 19028.7421875 9058.66796875 19033.517578125 C 9063.443359375 19038.29296875 9069.0048828125 19042.04296875 9075.197265625 19044.662109375 C 9081.607421875 19047.373046875 9088.4169921875 19048.748046875 9095.4375 19048.748046875 C 9102.4580078125 19048.748046875 9109.267578125 19047.373046875 9115.677734375 19044.662109375 C 9121.8701171875 19042.04296875 9127.431640625 19038.29296875 9132.20703125 19033.517578125 C 9136.9833984375 19028.7421875 9140.732421875 19023.181640625 9143.3515625 19016.98828125 C 9146.0625 19010.578125 9147.4375 19003.767578125 9147.4375 18996.748046875 C 9147.4375 18989.728515625 9146.0625 18982.91796875 9143.3515625 18976.5078125 C 9140.732421875 18970.314453125 9136.9833984375 18964.75390625 9132.20703125 18959.978515625 C 9127.431640625 18955.203125 9121.8701171875 18951.453125 9115.677734375 18948.833984375 C 9109.267578125 18946.123046875 9102.4580078125 18944.748046875 9095.4375 18944.748046875 M 9095.4375 18943.748046875 C 9124.708984375 18943.748046875 9148.4375 18967.4765625 9148.4375 18996.748046875 C 9148.4375 19026.01953125 9124.708984375 19049.748046875 9095.4375 19049.748046875 C 9066.166015625 19049.748046875 9042.4375 19026.01953125 9042.4375 18996.748046875 C 9042.4375 18967.4765625 9066.166015625 18943.748046875 9095.4375 18943.748046875 Z" stroke="none" fill="#ffef9e"/>
    </g>
    <circle id="Ellipse_155" data-name="Ellipse 155" cx="45.5" cy="45.5" r="45.5" transform="translate(-9.563 -2.252)" fill="#ffef9e"/>
    <path id="Path_1182" data-name="Path 1182" d="M8.271,50.557s7.081,15.148,27.167,15.148S61.73,50.557,61.73,50.557" transform="translate(1.436 2)" fill="none" stroke="#323530" stroke-linecap="round" stroke-width="5"/>
  </g>
</svg>
