<svg xmlns="http://www.w3.org/2000/svg" width="153" height="110" viewBox="0 0 153 110">
  <g id="Group_397" data-name="Group 397" transform="translate(-231 -1049.629)">
    <path id="Subtraction_10" data-name="Subtraction 10" d="M9744.5,20083.564a4.931,4.931,0,0,1-4.1-2.148l-10.7-15.4c1.3.635,2.634,1.207,3.973,1.7a32,32,0,0,0,11.145,2.025,36.292,36.292,0,0,0,11.245-1.7c.86-.279,1.691-.586,2.469-.912l-9.923,14.289A4.94,4.94,0,0,1,9744.5,20083.564Zm.563-30.732a14.522,14.522,0,0,1-5.177-.937,25.019,25.019,0,0,1-4.979-2.615,29.118,29.118,0,0,1-2.984-2.295c-.855-.754-1.578-1.377-2.147-1.85a9.275,9.275,0,0,0-1.179-.887,1.875,1.875,0,0,0-.938-.3,3.21,3.21,0,0,0-1.678.74l-6.668,6.365-26.877-38.705,6.023-15.02h31.678a22.392,22.392,0,0,0-3.542,2.238,18.354,18.354,0,0,0-5.271,6.4,18.646,18.646,0,0,0-1.851,8.332,19.141,19.141,0,0,0,5.918,14.311,31.969,31.969,0,0,0,7.395,5.322,72.313,72.313,0,0,0,10.357,4.455c.926.313,1.988.686,3.156,1.109a24.034,24.034,0,0,1,3.5,1.6,12.234,12.234,0,0,1,2.838,2.143,3.875,3.875,0,0,1,1.159,2.736,8.128,8.128,0,0,1-.419,2.611,5.419,5.419,0,0,1-1.406,2.166,7.193,7.193,0,0,1-2.687,1.5A13.549,13.549,0,0,1,9745.063,20052.832Zm28.4-7.211v0a19.275,19.275,0,0,0-1.8-8.471,18.642,18.642,0,0,0-5-6.189,32.889,32.889,0,0,0-7.616-4.486c-2.923-1.258-6.167-2.477-9.643-3.625-1.835-.6-3.392-1.139-4.758-1.652a19.308,19.308,0,0,1-3.428-1.623,6.831,6.831,0,0,1-2.072-1.875,4.541,4.541,0,0,1-.05-4.732,4.781,4.781,0,0,1,1.729-1.553,8.411,8.411,0,0,1,2.516-.867,16.529,16.529,0,0,1,3.055-.268,10.626,10.626,0,0,1,3.109.469,17.8,17.8,0,0,1,2.908,1.18,19.631,19.631,0,0,1,2.586,1.6c.8.586,1.536,1.168,2.2,1.729l.443.393c.461.395.884.727,1.255.988a2.167,2.167,0,0,0,1.26.393,2.4,2.4,0,0,0,1.674-.836l7.546-8.039a7.619,7.619,0,0,0,.963-1.236,2.3,2.3,0,0,0,.317-1.184,2.746,2.746,0,0,0-.666-1.527,12.781,12.781,0,0,0-1.8-1.875c-.754-.654-1.616-1.324-2.637-2.047-1.063-.742-2.133-1.43-3.181-2.041-.558-.312-1.146-.619-1.748-.912h30.57l6.421,13.514-24.148,34.771Z" transform="translate(-9436.145 -18939.703)" fill="#2e667a"/>
    <g id="Polygon_18" data-name="Polygon 18" transform="translate(384 1159.629) rotate(180)" fill="none">
      <path d="M67.469,12.985a11,11,0,0,1,18.062,0l55.451,79.734A11,11,0,0,1,131.951,110H21.049a11,11,0,0,1-9.031-17.281Z" stroke="none"/>
      <path d="M 76.5 9.265960693359375 C 74.92680358886719 9.265960693359375 73.36145782470703 9.63677978515625 71.97318267822266 10.33834075927734 C 70.49478149414063 11.08544921875 69.25563812255859 12.16815948486328 68.29018402099609 13.55641937255859 L 12.83877563476563 93.29045104980469 C 11.74180603027344 94.8677978515625 11.11933898925781 96.68302917480469 11.03872680664063 98.53990173339844 C 10.9627685546875 100.2895584106445 11.35943603515625 102.0502548217773 12.18586730957031 103.6316528320313 C 13.01231384277344 105.2130508422852 14.2313232421875 106.5439987182617 15.71115112304688 107.480598449707 C 17.28163146972656 108.4745941162109 19.12728881835938 109 21.04859924316406 109 L 131.9514007568359 109 C 133.8727111816406 109 135.7183685302734 108.4745941162109 137.2888488769531 107.480598449707 C 138.7686614990234 106.5439987182617 139.9876708984375 105.2130508422852 140.8141021728516 103.6316680908203 C 141.6405487060547 102.0502700805664 142.0372161865234 100.2895812988281 141.9612579345703 98.53990173339844 C 141.8806304931641 96.68302917480469 141.2581787109375 94.8677978515625 140.1611938476563 93.29045104980469 L 84.70981597900391 13.55641937255859 C 83.74434661865234 12.16815948486328 82.50521850585938 11.08544921875 81.02683258056641 10.33834075927734 C 79.63856506347656 9.63677978515625 78.07319641113281 9.265960693359375 76.5 9.265960693359375 M 76.50000762939453 8.265960693359375 C 79.92134094238281 8.265960693359375 83.34267425537109 9.839126586914063 85.53079986572266 12.98545074462891 L 140.982177734375 92.71949005126953 C 146.0545043945313 100.0130310058594 140.8353271484375 110 131.9514007568359 110 L 21.04859924316406 110 C 12.1646728515625 110 6.945480346679688 100.0130310058594 12.01780700683594 92.71949005126953 L 67.46920013427734 12.98545074462891 C 69.65733337402344 9.839126586914063 73.07867431640625 8.265960693359375 76.50000762939453 8.265960693359375 Z" stroke="none" fill="#2e667a"/>
    </g>
  </g>
</svg>
