<?xml version="1.0" encoding="utf-8"?>
<!-- Generator: Adobe Illustrator 25.2.1, SVG Export Plug-In . SVG Version: 6.00 Build 0)  -->
<svg version="1.1" id="Calque_1" xmlns="http://www.w3.org/2000/svg" xmlns:xlink="http://www.w3.org/1999/xlink" x="0px" y="0px"
	 viewBox="0 0 1026.9 989.2" style="enable-background:new 0 0 1026.9 989.2;" xml:space="preserve">
<style type="text/css">
	.st0{fill:none;stroke:#fff;stroke-miterlimit:10;}
</style>
<g id="Lignes_4">
	<g id="Lignes_topo_4">
		<path class="st0" d="M0,493.7c2,1.2,4,2.5,6,3.6c7.3,4.1,15.2,7,23.4,8.5c16.2,2.8,29-0.5,39-17.8c6.9-12,10.4-25.3,13.5-38.5
			c5.2-22.4,10.1-44.8,14.8-67.3c3.7-17.2,4.3-34.8,2-52.2c-2.2-16.4-5.8-32.7-10.7-48.5c-2.6-8.2-3.6-16.9-5.6-25.2
			c-4.7-18.8-2.8-37.4,2-55.8c5.8-22.3,18.5-40.6,37-55.2c14.9-11.7,31.6-19.8,48.9-26.8c18.2-7.4,36.7-13.8,56.5-15.4
			c21.8-1.8,41.1,3.8,56.1,19.9c13.6,14.7,26.1,30.2,39.4,45c19.3,21.5,41.6,39.9,67.4,53.4c16.2,8.4,33.7,15,52.3,15.3
			c22.1,0.4,43.4-3.8,62-16.8c12.1-8.5,23.9-17.3,36-25.7c10.7-7.5,22.3-14.1,35.1-16.6c9.3-1.8,19.1,0.9,28.2,4.9
			c11.5,5.1,21.1,12.6,29.9,21.5c17.7,18,31.8,38.1,41.2,61.7c7.5,18.7,7.1,37,2,55.8c-3.9,14.4-11.6,27.2-19.5,39.8
			c-8.6,13.7-18,26.8-26,40.8c-12.1,21.3-19.8,44.9-22.4,69.2c-2.7,24.4-4.1,48.9-6.9,73.3c-3.3,28.9-10.6,56.6-26.7,81.7
			c-7.7,11.9-16.7,22.7-26.3,33c-15.7,16.8-31.4,33.7-47.8,49.8c-22.9,22.5-49,40.4-79.7,51.2c-13.6,4.8-27.5,8.2-41.8,9.1
			c-18.9,1.2-37.8-0.6-56.5-3c-25-3.3-49.6-8.6-75-9c-18.2-0.4-36.5,1.5-53.2,9c-7.9,3.6-14.9,8.9-20.4,15.6
			c-9.3,11.3-16.8,24.1-22.2,37.7c-8.4,20-20.4,37.6-38.9,50.1c-6.8,4.6-14.1,8.5-22.6,9.3C71,880.8,54.6,866.2,57,847.4
			c1.3-10.3,5.4-19.4,10.3-28.4c4.9-9,11.3-17.6,14.8-27.1c5.5-15.1,2.2-29.7-9.6-40.7c-8.7-8.1-18.5-15.5-30.8-18.5
			c-10.6-2.6-21.6-2.5-32.2,0.1c-3.3,0.8-6,3.2-9,2.2"/>
		<path class="st0" d="M0,524.5c4.9,3.7,9.8,7.4,14.8,11c10.3,7.5,21,14.9,33.6,18.4c11.2,3.1,22.9,3.8,32.4-4.4
			c4.8-4.1,8.7-9.1,11.4-14.8c5.6-11.6,6.2-24.4,7.1-37c1-12.9,1.7-25.7,2.6-38.6c1.9-25.6,8-50.6,13-75.7
			c3.1-15.4,4.7-30.9,3.5-46.8c-1-13.4-3.8-26.1-7.6-38.8c-4-13.7-8.6-27.3-11.6-41.2c-4.4-20.7-3.2-41.4,5-61.3
			c11.4-27.7,34-43.1,60.7-54c12.3-5,24.9-8.9,38.1-10.2c25.1-2.4,49,2.1,69.2,17.7c10.6,8.3,19.8,18.4,29.3,28
			c17.9,18.2,36.6,35.5,57.7,50.2c20.9,14.6,44.5,24.7,69.4,29.8c15.2,3.2,30.5,2.4,45.6-0.7c13.5-2.8,26.4-8.1,38-15.6
			c13.8-8.9,27.9-17.5,42.2-25.6c25.6-14.6,51-5.3,68.1,12.1c14.2,14.3,24.3,32.1,29.4,51.6c1.9,7.7,2.3,15.8,1.1,23.7
			c-1.7,12.2-4,24.4-10,35.6c-8.8,16.4-17.7,32.8-26,49.4c-13.5,27-21.2,56.5-22.8,86.6c-1.3,23.5-2.7,47-5.1,70.5
			c-2.9,29-11.5,56.4-29.8,79.9C548,639,535.3,653,522.7,667c-14.8,16.4-30.1,32.4-47,46.7c-17.8,15-38,25.3-60,32.7
			c-21.7,7.3-43.7,7.2-65.9,4.1c-27.2-3.7-53.5-11.3-79.6-19.5c-21.7-6.9-43.8-12.5-66.1-16.9c-18-3.5-36.5-3.9-54.7-6.2
			c-16.7-2.2-33.1-6.2-48.9-12c-14.9-5.4-29.4-12.3-45.4-13.7c-19.7-1.8-37.9,2.5-55.1,12"/>
		<path class="st0" d="M0,471.3c4.9,2.2,9.9,4.1,15.1,5.4c12.5,3.2,27.1,0.7,37.4-11.8s15.2-27.4,20-42.2c3.7-12,6.8-24.1,9.1-36.4
			c2.2-10.9,4-22.1,4.2-33.2c0.1-12-0.8-23.9-2.7-35.8c-1.3-9.4-4.4-18.5-6.6-27.7c-1.8-7.6-3.5-15.2-5.1-22.8
			c-1.4-6.6-3.1-13.2-3.7-19.9c-2.3-33.7,4-65.5,26-92.5c12.8-15.7,29.1-28,47.3-37.6c12.5-6.6,25.2-12.8,37.9-18.9l26-10.9
			c11.8-4.2,23.3-9.2,36-10.4c10.3-1,19.4-2.6,28.7,1.9c0,0,12.4,8.1,18.1,15.1s11.1,14.5,18.3,24.2c10.7,14.3,19.9,29.7,31.1,43.5
			c12.5,15.4,27.9,27.8,44.8,38.4c19.3,12,39.5,20.8,63,20.6c13.7-0.1,27.3-1.6,39.4-7.8c11.6-5.9,22.3-13.9,33-21.6
			c12.5-9,24.1-19.1,36.9-27.7c14.7-9.9,31-11.8,47.5-4.6c11.5,5.1,22,12.3,30.9,21.2c25.4,24.9,48.7,51.3,62.5,84.3
			c4.4,10.5,8,21.5,7.1,33.2c-1.3,17.5-5.9,34-15,49.5c-10.6,18.1-23.7,34.5-36.2,51.3c-6,8.1-11.8,16.6-16.2,25.6
			c-11,22.7-16.7,46.8-19.2,71.8c-2.7,27.1-4.5,54.2-10.2,80.9c-5.1,24.5-15.1,46.9-30.3,66.5c-13.6,17.4-29.2,33.4-44.5,49.5
			c-24.4,25.5-49.8,49.8-81.8,66.3c-17.3,9-35.3,16.4-54.4,20.5c-16.4,3.5-33.1,4.1-49.8,3.7c-21.9-0.5-43.7-3.2-65.6-1.1
			c-12.1,1.2-24.4,2-36.1,5.1c-14.9,4-27.3,13.2-37.7,24.3c-15.6,16.7-30.5,34.3-46.2,50.9c-15,15.8-31.3,29.9-51.6,39.5
			c-16.8,7.9-33.2,7.5-49.5,2c-20.7-6.9-36.4-21.1-48.9-38.5c-3.5-4.8-6.6-9.9-9.3-15.2"/>
		<path class="st0" d="M0,447.2c1.1,0.4,2.3,0.8,3.5,1.2c14.6,4.5,29.4,1,39.7-11.3c13.4-16,18.7-34.9,24.1-54
			c3.9-14.1,5.1-28.7,3.6-43.3c-0.6-6.9-0.6-13.9-1.9-20.6c-2.2-11.8-5.1-23.5-7.7-35.2c-1.1-5-2.2-9.9-3-14.9c-1.2-7.3-2-14.7-3-22
			c-1.4-9.9-0.9-19.7,0.2-29.6c2.3-22.8,10.2-44.7,23-63.8c10-15.1,24.2-26,38.2-37.2c5.5-4.1,11.2-8,17.1-11.5l19.1-11.4
			c24.3-13.2,48.1-27.3,72.6-40.2c21.2-11.1,47.5-7.8,61.5,4.5s20.5,23.5,20.5,23.5c6.3,11.5,12.3,23.2,18.8,34.6
			c14,24.8,29.9,47.9,54.2,64.7c19.8,13.8,40.3,24,65.5,23.3c11.7-0.3,23-2.2,33.3-7c18.8-8.8,34-22.8,49.1-36.5
			c11.1-10.1,22.5-19.8,36.4-26.4c12.1-5.9,23.7-4.5,35.3,0c15.8,6,27.8,17.2,39.1,28.9c15.8,16.4,31.2,33.2,46.2,50.3
			c10.3,11.8,20.2,24,27.6,37.9c8.7,16.5,15,33,12.5,52.5c-3.1,23.8-13.2,44.3-27.3,63.1c-12.8,17.1-27.4,33-40.9,49.6
			c-16.7,20.6-24.6,44.9-29.3,70.2c-3,16.3-4.5,32.8-6.5,49.2c-3.2,25.5-6.2,51-16.3,75.1c-7.7,18.3-17.2,35.7-30.8,50.4
			c-18.2,19.8-37.4,38.8-56.5,57.7c-25.3,25-53.8,45.5-86.8,59.8c-15.1,6.5-30.4,12.2-46.8,14.4c-6,0.8-11.9,1.9-17.9,2.4
			c-9.6,0.8-19.2,1.4-28.8,1.9c-12.3,0.7-24.7,1.1-37.1,2c-7.9,0.6-15.7,1.7-23.4,3.2c-7.1,1.4-14.3,2.8-21,5.4
			c-15.6,6.1-29.2,15.7-41.5,26.5c-22.3,19.5-43.7,39.9-65.9,59.7c-6.5,5.6-13.5,10.7-20.8,15.1c-10.5,6.5-21.7,12-33.8,14.7
			c-16.3,3.7-32.4,0.4-47.8-4.8c-10-3.4-19.4-8.8-28.9-13.8c-5.8-3-11.5-6.3-17.3-9.5"/>
		<path class="st0" d="M0,410.2c8.5,2.3,17,1.1,24.5-5c7.2-5.8,12.8-13.4,16.3-22c4.3-10.7,7.8-21.6,8-33.2
			c0.1-7.6,0.4-15.3-0.6-22.9c-1.8-14.4-4.4-28.7-6.7-43c-1.4-9-3.4-17.9-4.6-26.9c-1.8-14.8-1.2-29.7,0.8-44.4
			c2.9-22.6,10.8-43.6,22.5-63.2c9.6-16.1,23.3-28.4,37.2-40.6l6.2-4.8c6.2-5.4,12.8-10.4,19.7-15c26.9-18,51.9-38.2,76.7-58.8
			c10.9-9.2,24-15.5,38-18.3c15-2.8,29.7,0.7,43.8,5.6c16,5.6,28,16.5,37.5,29.7c5.9,8.2,9.6,17.9,14.3,27l0.7,1.5
			c8.1,17.7,14.5,36.1,25.2,52.7c13.2,20.7,30.5,36.6,53.1,46.8c18.8,8.5,38,8.2,57.2,0.9c13.4-5.1,24.4-13.8,34.7-23.5
			c14.5-13.6,28.8-27.4,43.3-41c7-6.6,16-10,24.7-13.4c3.4-1.3,7.5-1.3,11.2-1.1c15.4,0.8,28.7,7.4,39.6,17.6
			c12.3,11.5,23.3,24.4,35.2,36.3c17.4,17.3,35,34.5,52.6,51.5c13.4,12.9,28.3,24.4,40,39c9.8,12.1,15.4,25.4,13,41.6
			c-2.4,17-6.8,33.2-14.2,48.8c-10.8,22.8-24.3,43.6-42.6,61.4c-14.3,13.7-27.7,28.3-40,43.9c-12.1,15.5-18.7,33.1-24,51.4
			c-7.1,24.7-8,50.5-12.8,75.6c-2.8,14.5-5.2,29.1-10,43c-8.8,25.8-22,49.4-41.9,69c-19.4,19.1-38.3,38.7-58.3,57.2
			c-22.7,20.9-47.9,38.9-75.2,53.3c-23.8,12.8-48.8,21.7-75.5,25.7c-12,1.8-24.3,1.8-36.4,3.1c-10.6,1.1-21.2,2.3-31.6,4.4
			c-10.2,1.9-20.2,4.5-30.1,7.6c-16.4,5.3-30.9,14.6-44.3,24.9c-20.4,15.7-40.1,32.4-60,48.8c-15.6,12.9-31.7,25.2-50.5,33.2
			c-10.8,4.6-21.7,8.9-34.1,9.1c-14.7,0.2-29.4-2.1-43.3-6.8C25.8,932.4,13,926.7,0,921.3"/>
	</g>
</g>
</svg>
