<svg xmlns="http://www.w3.org/2000/svg" width="519.474" height="625.408" viewBox="0 0 519.474 625.408">
  <g id="Group_399" data-name="Group 399" transform="translate(-119 -967.605)">
    <g id="CTA_-_S_inspirer_panneau" data-name="CTA - S&apos;inspirer panneau" transform="translate(120 1053.275)">
      <path id="Union_11" data-name="Union 11" d="M93.353,538.741V210.659a105.715,105.715,0,1,1,19.731.457V538.741Z" transform="translate(0 -0.003)" fill="#a7ccbf" stroke="#323530" stroke-width="2"/>
      <circle id="Ellipse_168" data-name="Ellipse 168" cx="87" cy="87" r="87" transform="translate(19 18.724)" fill="none" stroke="#323530" stroke-width="2"/>
      <text id="s_inspirer" data-name="s&apos;inspirer" transform="matrix(0.875, -0.485, 0.485, 0.875, 109.651, 116.41)" fill="none" stroke="#323530" stroke-width="2" font-size="22" font-family="SegoeUI, Segoe UI" letter-spacing="0.09em"><tspan x="-62.095" y="0">S&apos;INSPIRER</tspan></text>
    </g>
    <g id="CTA_-_Se_former_panneau" data-name="CTA - Se former panneau" transform="translate(210.006 968.721)">
      <path id="Union_21" data-name="Union 21" d="M18336.764,20604.652v-486.541l-147.971-18.166a12.75,12.75,0,0,1-11.262-14.045,12.424,12.424,0,0,1,3.77-7.457l.186-.176,23.7-18.668-18.477-23.85-.139-.217a12.431,12.431,0,0,1-1.857-8.145,12.745,12.745,0,0,1,14.33-10.9l293.186,36,1.2.936,45.164,35.4.383.465a15.43,15.43,0,0,1-2.725,22.262l-.486.361-53.785,24.031-126.211-15.5v484.207Z" transform="translate(-18175.771 -19981.373)" fill="#ffef9e" stroke="#323530" stroke-miterlimit="10" stroke-width="2"/>
      <path id="Subtraction_13" data-name="Subtraction 13" d="M18467.354,20137.881h0l-285.143-71.09a7.288,7.288,0,0,1-5.488-8.7,6.81,6.81,0,0,1,2.607-3.871l30.213-18.32-18.078-30.359a6.864,6.864,0,0,1-.484-4.645,7.174,7.174,0,0,1,7.053-5.332,7.767,7.767,0,0,1,1.877.232l285.137,71.094.006,0,40.094,40.213a9.968,9.968,0,0,1-3.518,14.1l-54.275,16.674Zm-52.395-47.7v0l1.9.469a4.115,4.115,0,0,1,1.121.449,3.2,3.2,0,0,1,.84.742,5.193,5.193,0,0,1,.652,1.1,12.317,12.317,0,0,1,.551,1.531l1.92,6.348,2.75.682-2.219-6.844c-.168-.51-.312-.937-.441-1.309a8.78,8.78,0,0,0-.434-1.035,4.681,4.681,0,0,0-.531-.84,4,4,0,0,0-.732-.717l.016-.057a7.133,7.133,0,0,0,1.99-.283,5.472,5.472,0,0,0,1.658-.8,5.289,5.289,0,0,0,1.264-1.314,5.758,5.758,0,0,0,.777-1.814,5.626,5.626,0,0,0,.123-2.41,4.84,4.84,0,0,0-.85-1.961,5.484,5.484,0,0,0-1.648-1.451,8.782,8.782,0,0,0-2.3-.92l-5.883-1.465-4.912,19.705,2.311.57,2.086-8.377Zm-16.248-16.074-4.912,19.7,10.441,2.6.521-2.088-8.139-2.025,1.725-6.9,7.115,1.773.518-2.072-7.117-1.773,1.633-6.555,7.7,1.922.52-2.09Zm-10.531.189v0l.055.014c-.508,1.486-.895,2.76-1.146,3.785l-3.3,13.217,2.3.57,4.908-19.705-2.881-.717-9.582,12.148c-.383.49-.92,1.242-1.553,2.178l-.08-.02a18.461,18.461,0,0,0-.318-2.588l-2.623-15.248-3.047-.758-4.912,19.7,2.223.555,3.291-13.189c.438-1.762.725-3.068.854-3.887l.055.012a12.521,12.521,0,0,0,.086,2.166l2.973,16.709,1.127.277,10.508-13.463a13.176,13.176,0,0,0,1.066-1.758Zm-37.146-.055v0l1.895.473a4.214,4.214,0,0,1,1.121.445,3.2,3.2,0,0,1,.84.742,5.137,5.137,0,0,1,.646,1.1,12.79,12.79,0,0,1,.557,1.531l1.92,6.348,2.744.688-2.219-6.848c-.162-.514-.307-.941-.439-1.309a8.238,8.238,0,0,0-.434-1.037,4.644,4.644,0,0,0-.527-.838,4.485,4.485,0,0,0-.732-.719l.016-.055a7.156,7.156,0,0,0,1.986-.283,5.531,5.531,0,0,0,1.662-.8,5.273,5.273,0,0,0,1.26-1.314,5.745,5.745,0,0,0,.783-1.814,5.573,5.573,0,0,0,.115-2.41,4.723,4.723,0,0,0-.844-1.957,5.559,5.559,0,0,0-1.652-1.455,8.649,8.649,0,0,0-2.3-.92l-5.877-1.465-4.918,19.705,2.309.57,2.094-8.377Zm-17.719-16.453a8.573,8.573,0,0,0-4.857,1.453,11.243,11.243,0,0,0-4.463,6.943,10.629,10.629,0,0,0,.727,7.818,8.968,8.968,0,0,0,6.025,4.432,11.185,11.185,0,0,0,2.719.355,8.569,8.569,0,0,0,4.822-1.451,11.257,11.257,0,0,0,4.457-6.99,10.62,10.62,0,0,0-.7-7.8,8.745,8.745,0,0,0-5.887-4.387A11.712,11.712,0,0,0,18333.314,20057.787Zm-21.789-5.418-4.912,19.7,2.311.576,2.178-8.723,7.115,1.773.516-2.072-7.115-1.773,1.7-6.818,7.7,1.922.516-2.094Zm-27-6.732-4.914,19.7,10.441,2.605.521-2.09-8.137-2.025,1.723-6.9,7.117,1.773.518-2.072-7.119-1.779,1.633-6.549,7.7,1.914.52-2.086Zm-22.441,11.594-.674,2.723a4.333,4.333,0,0,0,.9.727,12.574,12.574,0,0,0,1.264.7c.453.211.908.4,1.35.566s.818.281,1.131.363a12.838,12.838,0,0,0,2.74.385h.2a6.836,6.836,0,0,0,2.264-.359,4.877,4.877,0,0,0,1.945-1.258,5.084,5.084,0,0,0,1.184-2.324,4.519,4.519,0,0,0,.07-2.053,5.876,5.876,0,0,0-.748-1.84,9.509,9.509,0,0,0-1.344-1.687c-.527-.537-1.1-1.061-1.734-1.6-.613-.52-1.131-.975-1.582-1.391a8.073,8.073,0,0,1-1.121-1.213,3.228,3.228,0,0,1-.582-1.207,2.954,2.954,0,0,1,.041-1.375,2.553,2.553,0,0,1,.713-1.283,3.18,3.18,0,0,1,1.191-.684,4.366,4.366,0,0,1,1.27-.182c.068,0,.137,0,.207.006a7.671,7.671,0,0,1,1.551.217,7.961,7.961,0,0,1,4.176,2.324l.652-2.592a9.881,9.881,0,0,0-4.074-1.764,10.4,10.4,0,0,0-2.516-.309h-.072a7.506,7.506,0,0,0-2.432.414,5.354,5.354,0,0,0-1.961,1.258,5.155,5.155,0,0,0-1.273,4.205,5.132,5.132,0,0,0,.674,1.725,8.591,8.591,0,0,0,1.258,1.566c.535.533,1.094,1.051,1.658,1.535.627.547,1.117.979,1.586,1.4a9.293,9.293,0,0,1,1.229,1.3,4.051,4.051,0,0,1,.7,1.32,3.056,3.056,0,0,1-1.613,3.486,3.784,3.784,0,0,1-1.463.262,8.032,8.032,0,0,1-1.918-.268,8.2,8.2,0,0,1-1.314-.459,10.675,10.675,0,0,1-1.359-.713,9.16,9.16,0,0,1-1.238-.895A5.807,5.807,0,0,1,18262.082,20057.23Zm157.775,31.8a5.051,5.051,0,0,1-1.244-.162l-3.133-.779,1.783-7.145,3.16.787a4.571,4.571,0,0,1,2.738,1.623,3.214,3.214,0,0,1,.41,2.725,4.155,4.155,0,0,1-.7,1.51,3.487,3.487,0,0,1-1.139.986,3.926,3.926,0,0,1-1.455.434A4.214,4.214,0,0,1,18419.857,20089.033Zm-86.557-12.406a8.582,8.582,0,0,1-2.039-.264,6.388,6.388,0,0,1-4.371-3.447,10.278,10.278,0,0,1,2.977-11.73,6.393,6.393,0,0,1,3.754-1.219,7.76,7.76,0,0,1,1.846.238,6.43,6.43,0,0,1,4.473,3.375,9.389,9.389,0,0,1,.309,6.484,8.931,8.931,0,0,1-3.346,5.453A6.223,6.223,0,0,1,18333.3,20076.627Zm22.625-3.535a5.114,5.114,0,0,1-1.24-.156l-3.133-.783,1.779-7.146,3.164.789a4.541,4.541,0,0,1,2.738,1.627,3.2,3.2,0,0,1,.41,2.719,4.181,4.181,0,0,1-.7,1.512,3.654,3.654,0,0,1-1.137.99,3.886,3.886,0,0,1-1.461.43C18356.221,20073.084,18356.082,20073.092,18355.926,20073.092Z" transform="translate(-20477.881 -17588.678) rotate(-7)" fill="#ffef9e" stroke="#323530" stroke-miterlimit="10" stroke-width="2"/>
    </g>
    <g id="CTA_-_Les_Accompagner" data-name="CTA - Les Accompagner" transform="translate(301.654 1164.539)">
      <g id="Union_12" data-name="Union 12" fill="#2e667a">
        <path d="M 177.32958984375 423.9556884765625 L 159.4909057617188 423.9556884765625 L 159.4909057617188 101.4192276000977 L 159.4909057617188 100.4192276000977 L 158.4909057617188 100.4192276000977 L 1.00001585483551 100.4192276000977 L 1.00001585483551 1.000017404556274 L 335.819580078125 1.000017404556274 L 335.819580078125 100.4192276000977 L 178.32958984375 100.4192276000977 L 177.32958984375 100.4192276000977 L 177.32958984375 101.4192276000977 L 177.32958984375 423.9556884765625 Z" stroke="none"/>
        <path d="M 176.32958984375 422.9557495117188 L 176.32958984375 101.419189453125 L 176.32958984375 99.419189453125 L 178.32958984375 99.419189453125 L 334.8196411132813 99.419189453125 L 334.8196411132813 2.000026226043701 L 2.000027418136597 2.000026226043701 L 2.000027418136597 99.419189453125 L 158.4909210205078 99.419189453125 L 160.4909210205078 99.419189453125 L 160.4909210205078 101.419189453125 L 160.4909210205078 422.9557495117188 L 176.32958984375 422.9557495117188 M 178.32958984375 424.9557495117188 L 158.4909210205078 424.9557495117188 L 158.4909210205078 101.419189453125 L 2.75200745818438e-05 101.419189453125 L 2.75200745818438e-05 2.616373785713222e-05 L 336.8196411132813 2.616373785713222e-05 L 336.8196411132813 101.419189453125 L 178.32958984375 101.419189453125 L 178.32958984375 424.9557495117188 Z" stroke="none" fill="#323530"/>
      </g>
      <path id="Subtraction_31" data-name="Subtraction 31" d="M18188.342,18907.461h-314.994v-78h315v78h0v0h0Zm-98.963-48.162a7.724,7.724,0,0,0-5.727,2.291,8.057,8.057,0,0,0-2.264,5.875,7.827,7.827,0,0,0,2.035,5.627,7.074,7.074,0,0,0,5.334,2.127,10.361,10.361,0,0,0,5.158-1.311v-6.984h-5.178v1.637h3.369v4.318a6.47,6.47,0,0,1-3.127.717,5.4,5.4,0,0,1-4.166-1.67,7.457,7.457,0,0,1,.119-9.211,5.534,5.534,0,0,1,4.242-1.783,8.158,8.158,0,0,1,4.426,1.18v-2A9.746,9.746,0,0,0,18089.379,18859.3Zm-69.355,0a7.058,7.058,0,0,0-5.467,2.211,8.53,8.53,0,0,0-2.006,5.932,8.048,8.048,0,0,0,1.969,5.617,6.8,6.8,0,0,0,5.248,2.16,6.9,6.9,0,0,0,5.348-2.193,8.539,8.539,0,0,0,2-5.959,8.078,8.078,0,0,0-1.945-5.619A6.651,6.651,0,0,0,18020.023,18859.3Zm-14.619,0a7.581,7.581,0,0,0-5.643,2.277,8.214,8.214,0,0,0-2.225,5.975,7.829,7.829,0,0,0,1.979,5.551,6.889,6.889,0,0,0,5.262,2.117,9.07,9.07,0,0,0,4.258-.9v-1.75a7.638,7.638,0,0,1-4.02,1.029,5.255,5.255,0,0,1-4.043-1.67,6.364,6.364,0,0,1-1.543-4.484,6.714,6.714,0,0,1,1.646-4.736,5.631,5.631,0,0,1,4.3-1.773,7.411,7.411,0,0,1,3.654.924v-1.922A9.089,9.089,0,0,0,18005.4,18859.3Zm-15.014,0a7.574,7.574,0,0,0-5.637,2.277,8.2,8.2,0,0,0-2.227,5.975,7.829,7.829,0,0,0,1.979,5.551,6.882,6.882,0,0,0,5.264,2.117,9.056,9.056,0,0,0,4.256-.9v-1.75a7.638,7.638,0,0,1-4.02,1.029,5.255,5.255,0,0,1-4.043-1.67,6.375,6.375,0,0,1-1.541-4.484,6.694,6.694,0,0,1,1.646-4.736,5.623,5.623,0,0,1,4.3-1.773,7.4,7.4,0,0,1,3.654.924v-1.926A9.216,9.216,0,0,0,17990.391,18859.3Zm-44.984,12.91v2.127a3.308,3.308,0,0,0,.8.375,10.222,10.222,0,0,0,1.059.279c.418.08.766.135,1.1.172.387.039.674.057.9.057a9.842,9.842,0,0,0,2.082-.219,5.3,5.3,0,0,0,1.748-.717,3.625,3.625,0,0,0,1.205-1.285,3.9,3.9,0,0,0,.445-1.928,3.373,3.373,0,0,0-.328-1.521,4.286,4.286,0,0,0-.887-1.215,7.4,7.4,0,0,0-1.3-1c-.482-.293-1.012-.582-1.57-.859-.5-.248-.965-.486-1.418-.73a6.677,6.677,0,0,1-1.049-.684,2.487,2.487,0,0,1-.65-.787,2.229,2.229,0,0,1-.223-1.02,1.948,1.948,0,0,1,.289-1.074,2.353,2.353,0,0,1,.754-.721,3.265,3.265,0,0,1,1.055-.4,5.741,5.741,0,0,1,1.182-.125,6.064,6.064,0,0,1,3.5.943v-2.031a7.561,7.561,0,0,0-3.322-.545,7.728,7.728,0,0,0-1.959.248,5.617,5.617,0,0,0-1.715.748,4.072,4.072,0,0,0-1.213,1.285,3.922,3.922,0,0,0-.168,3.332,3.864,3.864,0,0,0,.813,1.143,6.466,6.466,0,0,0,1.215.926c.486.289.992.566,1.5.826.482.244.949.484,1.424.734a7.918,7.918,0,0,1,1.143.732,3.136,3.136,0,0,1,.76.844,2.124,2.124,0,0,1,.271,1.082,2.093,2.093,0,0,1-.822,1.779,4.135,4.135,0,0,1-2.486.617,6.539,6.539,0,0,1-1.053-.1,8.639,8.639,0,0,1-1.135-.277,6.478,6.478,0,0,1-1.072-.434,4.064,4.064,0,0,1-.873-.58Zm187.414-3.8h1.486a2.946,2.946,0,0,1,.906.125,2.4,2.4,0,0,1,.75.389,3.865,3.865,0,0,1,.682.7,8.507,8.507,0,0,1,.689,1.025l2.576,4.318h2.15l-2.891-4.633c-.187-.3-.377-.6-.564-.887a7.121,7.121,0,0,0-.508-.678,3.745,3.745,0,0,0-.545-.523,3.285,3.285,0,0,0-.67-.393v-.043a5.806,5.806,0,0,0,1.414-.574,4.2,4.2,0,0,0,1.072-.9,3.888,3.888,0,0,0,.689-1.2,4.333,4.333,0,0,0,.24-1.475,4.272,4.272,0,0,0-.355-1.8,3.553,3.553,0,0,0-.982-1.281,4.13,4.13,0,0,0-1.48-.77,6.613,6.613,0,0,0-1.865-.256h-4.6v15.408h1.8v-6.555Zm-14.914-8.855v15.41h8.168v-1.633h-6.359v-5.4h5.561v-1.617h-5.561v-5.125h6.012v-1.637h-7.82Zm-16.717,2.166h.066a4.963,4.963,0,0,0,.494.963l7.924,12.281h2.217v-15.408h-1.809v10.852a16.274,16.274,0,0,0,.109,2.27h-.043c-.1-.2-.314-.559-.621-1.035l-7.717-12.086h-2.338v15.408h1.8v-11.133a15.643,15.643,0,0,0-.086-2.109Zm-32.77,8.926h6.529l1.637,4.318h2l-5.932-15.408h-1.869l-5.908,15.408h2.008l1.537-4.316Zm-14.559-11.092v15.41h1.8v-5.822h2.031a5.774,5.774,0,0,0,4.076-1.4,4.69,4.69,0,0,0,1.51-3.588,4.31,4.31,0,0,0-1.357-3.393,5.611,5.611,0,0,0-3.834-1.205h-4.229Zm-7.715,2.076h.043c-.1,1.146-.152,2.154-.152,3v10.336h1.793v-15.408h-2.258l-4.822,10.7c-.193.441-.451,1.1-.74,1.893h-.066a13.3,13.3,0,0,0-.707-1.852l-4.725-10.742h-2.387v15.408h1.74v-10.316c0-1.408-.027-2.395-.086-3.018h.043a9.41,9.41,0,0,0,.461,1.58l5.252,11.754h.883l5.264-11.84a9.7,9.7,0,0,0,.465-1.492Zm-76.588,9.016h6.529l1.633,4.318h2l-5.926-15.408h-1.871l-5.906,15.408h2.006l1.537-4.316Zm-36.541-11.092v15.41h8.16v-1.633h-6.357v-5.4h5.566v-1.621h-5.566v-5.121h6.018v-1.637h-7.82Zm-12.338,0v15.41h7.99v-1.633h-6.187v-13.775h-1.8Zm99.088,14.043a4.836,4.836,0,0,1-3.848-1.732,7.78,7.78,0,0,1,.037-9.182,4.973,4.973,0,0,1,3.939-1.75,4.883,4.883,0,0,1,3.91,1.664,7.11,7.11,0,0,1,1.418,4.717,6.786,6.786,0,0,1-1.461,4.627A5.072,5.072,0,0,1,18019.768,18873.6Zm54.594-4.574h-5.34l2.393-6.562a5.91,5.91,0,0,0,.252-1.035h.043a5.8,5.8,0,0,0,.236,1.035l2.414,6.561Zm-98.861,0h-5.338l2.4-6.562a5.956,5.956,0,0,0,.246-1.035h.043a6.561,6.561,0,0,0,.232,1.035l2.418,6.561Zm82.053-1.514h-1.889v-6.316h2.117a4.132,4.132,0,0,1,2.707.762,2.83,2.83,0,0,1,.9,2.285,3.045,3.045,0,0,1-.982,2.416A4.27,4.27,0,0,1,18057.553,18867.508Zm77.717-.73h-2.449v-5.586h2.473a3.409,3.409,0,0,1,2.316.693,2.424,2.424,0,0,1,.8,1.926,3.1,3.1,0,0,1-.232,1.238,2.736,2.736,0,0,1-.66.936,2.842,2.842,0,0,1-.992.588A3.8,3.8,0,0,1,18135.27,18866.777Z" transform="translate(-17862 -18818)" fill="none" stroke="#323530" stroke-width="2"/>
    </g>
  </g>
</svg>
