<svg xmlns="http://www.w3.org/2000/svg" width="29.837" height="29.836" viewBox="0 0 29.837 29.836">
  <path id="message-circle" d="M3,16.617A13.425,13.425,0,0,0,4.442,22.7a13.617,13.617,0,0,0,12.175,7.529,13.425,13.425,0,0,0,6.088-1.442l9.132,3.044L28.793,22.7a13.424,13.424,0,0,0,1.442-6.088,13.617,13.617,0,0,0-7.53-12.175A13.425,13.425,0,0,0,16.617,3h-.8A13.585,13.585,0,0,0,3,15.816Z" transform="translate(-2.5 -2.5)" fill="none" stroke="#ffef9e" stroke-linecap="round" stroke-linejoin="round" stroke-width="1"/>
</svg>
