<svg xmlns="http://www.w3.org/2000/svg" width="335.348" height="345.984" viewBox="0 0 335.348 345.984">
  <g id="Panneau_se_former" data-name="Panneau_se former" transform="matrix(0.998, 0.07, -0.07, 0.998, 24.21, 13.512)">
    <path id="Union_16" data-name="Union 16" d="M11377.3,15888.031l-145.434-12.721a6.8,6.8,0,0,1-5.905-7.581,7.335,7.335,0,0,1,1.772-4.209l24-22.84-19.67-26.655a7.314,7.314,0,0,1-1.016-4.452,6.8,6.8,0,0,1,7.131-6.443l257.864,22.56h.008l40.138,32.658a10.727,10.727,0,0,1-1.255,14.34l-45.2,25.179-94.35-8.253,16.612,236.109-17.986,1.259Z" transform="translate(-11227.915 -15815.975)" fill="none" stroke="#fff" stroke-width="1"/>
    <path id="Soustraction_14" data-name="Soustraction 14" d="M18310.3,13862.473h0l-247.918-22.174a7.6,7.6,0,0,1-3.678-1.218,3.324,3.324,0,0,1-1.523-3.118l.018-.239c.1-1.078,1.445-2.327,2.531-3.33.391-.362.727-.674.961-.937l21.844-20.331-18.475-23.9c-.094-.15-.207-.321-.326-.5l-.078-.119c-.771-1.16-1.936-2.912-1.83-4.143l.021-.239a3.187,3.187,0,0,1,1.709-2.611,6.928,6.928,0,0,1,3.338-.758c.283,0,.572.013.855.038l247.965,21.69,36.879,27.727c2.547,2.247,3.754,4.48,3.588,6.639-.166,2.186-1.75,4.255-4.707,6.15l-41.174,21.373Zm-45.35-45.554a.336.336,0,0,0-.373.357l-1.547,17.683a.353.353,0,0,0,.367.438l11.842,1.036.029,0,.029,0a.382.382,0,0,0,.416-.359l.1-1.138a.426.426,0,0,0-.092-.329.591.591,0,0,0-.412-.183l-10.006-.88.563-6.4,7.965.7.066,0c.264,0,.434-.132.449-.353l.107-1.2a.376.376,0,0,0-.078-.283.528.528,0,0,0-.369-.163l-7.967-.7.535-6.095,9.85.861a.53.53,0,0,0,.055,0,.379.379,0,0,0,.412-.356l.105-1.217a.378.378,0,0,0-.4-.414l-11.588-1.014Zm-14.672-1.312a.285.285,0,0,0-.3.292l-1.562,17.872a.288.288,0,0,0,.291.341l11.256.985h.045a.28.28,0,0,0,.309-.285l.125-1.405a.3.3,0,0,0-.291-.359l-9.443-.825,1.41-16.139a.287.287,0,0,0-.291-.341l-1.5-.134h-.006Zm-15.6-1.336a.28.28,0,0,0-.3.287l-1.561,17.849a.314.314,0,0,0,.059.235.325.325,0,0,0,.23.105l6.855.6c.236.021.479.032.738.032a5.522,5.522,0,0,0,3.721-1.253,5.081,5.081,0,0,0,1.619-3.46,4.542,4.542,0,0,0-2.875-4.837,4.234,4.234,0,0,0,2.717-3.687,4.69,4.69,0,0,0-1.1-3.673,5.61,5.61,0,0,0-3.758-1.648l-6.3-.548A.376.376,0,0,0,18234.68,13814.271Zm-16.742,12.7h0l8.828.77,1.26,4.238a.462.462,0,0,0,.389.378l1.518.134.029,0,.029,0a.326.326,0,0,0,.273-.112.383.383,0,0,0,.025-.344l-5.7-18.313a.531.531,0,0,0-.439-.41l-1.123-.1-.037,0a.544.544,0,0,0-.461.315l-8.795,17.061a.382.382,0,0,0-.035.357.35.35,0,0,0,.293.149l1.506.129.037,0a.488.488,0,0,0,.438-.315l1.963-3.942Zm-17.176-15.676a.361.361,0,0,0-.381.361l-1.549,17.683a.4.4,0,0,0,.08.3.42.42,0,0,0,.289.133l4.906.429c.318.027.643.041.959.041a9.55,9.55,0,0,0,6.395-2.363,9.4,9.4,0,0,0,.838-12.912,9.694,9.694,0,0,0-6.574-3.241l-4.92-.433h-.012Zm-6.264-.558a.28.28,0,0,0-.3.292l-1.566,17.867a.286.286,0,0,0,.291.346l1.492.129h.051a.276.276,0,0,0,.3-.286l1.566-17.871a.3.3,0,0,0-.3-.346l-1.492-.129h-.045Zm-7.238,3.176h0l.182,14.467c0,.274.109.405.359.424l1.377.12a.175.175,0,0,1,.033,0l.027,0a.343.343,0,0,0,.254-.09.418.418,0,0,0,.092-.312l-.295-17.88c-.02-.273-.121-.393-.346-.41l-1.76-.157-.061,0a.43.43,0,0,0-.424.308l-6.883,13.555-4.437-14.545c-.049-.248-.166-.361-.391-.378l-1.783-.157-.053,0c-.187,0-.3.111-.357.349l-3.4,17.558a.422.422,0,0,0,.053.337.374.374,0,0,0,.275.124l1.369.12.068,0c.219,0,.338-.11.383-.357l2.7-14.218,4.248,13.65c.053.233.143.318.35.337l1.441.129.063,0c.168,0,.26-.072.348-.274Zm-29.6,5.769h0l3.934.346c.18.016.369.023.594.023l2.729,6.422c.105.243.229.351.424.369l1.658.143h.033a.278.278,0,0,0,.242-.125.34.34,0,0,0,.02-.322l-2.906-6.8a5.737,5.737,0,0,0,3.988-5.155,5.96,5.96,0,0,0-1.3-4.459,6.4,6.4,0,0,0-4.422-2.157l-4.252-.373-.373-.033-.375-.033-.334-.03-.346-.027a.408.408,0,0,0-.049,0,.363.363,0,0,0-.375.361l-1.553,17.705a.367.367,0,0,0,.359.438l1.354.12.043,0a.374.374,0,0,0,.387-.375l.523-6.03Zm-14.26-13.634a9.557,9.557,0,0,0-.8,19.084c.264.025.543.037.879.037a9.557,9.557,0,0,0,.789-19.083C18143.98,13806.064,18143.688,13806.052,18143.4,13806.052Zm-20.846-1.595c-.229,0-.35.115-.375.361l-1.543,17.683a.412.412,0,0,0,.068.315.4.4,0,0,0,.285.122l1.369.12h.051c.213,0,.338-.129.359-.373l.635-7.233,7.879.69.064,0a.375.375,0,0,0,.424-.357l.1-1.11c.018-.257-.137-.42-.424-.447l-7.879-.686.609-6.943,9.66.843.057,0a.377.377,0,0,0,.41-.357l.105-1.212a.358.358,0,0,0-.074-.275.454.454,0,0,0-.322-.144l-11.408-1h-.008Zm117.986,26.958c-.133,0-.27-.006-.408-.018l-5.031-.437.59-6.755,5.035.442a3.538,3.538,0,0,1,2.482,1.188,3.327,3.327,0,0,1,.711,2.493A3.216,3.216,0,0,1,18240.539,13831.415Zm-35.549-3.225c-.238,0-.48-.011-.717-.032l-3.16-.276,1.262-14.4,3.16.263a7.424,7.424,0,0,1,5.109,2.587,7.181,7.181,0,0,1,1.641,5.306,7.094,7.094,0,0,1-2.322,4.691A7.41,7.41,0,0,1,18204.99,13828.19Zm21.219-2.354h0l-7.389-.646,4.516-9.062,2.873,9.707Zm-82.744-2.795c-.225,0-.455-.01-.68-.029a7.334,7.334,0,0,1-6.74-8.021,7.472,7.472,0,0,1,2.369-4.865,7.358,7.358,0,0,1,4.984-1.931c.24,0,.48.017.682.032a7.419,7.419,0,0,1-.615,14.814Zm97.234-.2c-.127,0-.25,0-.365-.016l-4.488-.392.531-6.072,4.486.392a2.946,2.946,0,0,1,2.889,3.313A2.9,2.9,0,0,1,18240.7,13822.844Zm-78.5-4.83c-.148,0-.291-.006-.428-.019l-3.93-.346.7-7.993,3.934.346a4.2,4.2,0,0,1,2.865,1.391,4,4,0,0,1,.908,2.99A3.906,3.906,0,0,1,18162.2,13818.014Z" transform="translate(-18051.887 -13785.805)" fill="#ffef9e"/>
  </g>
</svg>
