<?xml version="1.0" encoding="utf-8"?>
<!-- Generator: Adobe Illustrator 25.2.1, SVG Export Plug-In . SVG Version: 6.00 Build 0)  -->
<svg version="1.1" id="signs" xmlns="http://www.w3.org/2000/svg" xmlns:xlink="http://www.w3.org/1999/xlink" x="0px" y="0px"
	 viewBox="0 0 519.5 624.9" style="enable-background:new 0 0 519.5 624.9;" xml:space="preserve">
<style type="text/css">
	.st0{fill:#A7CCBF;stroke:#323530;stroke-width:2;}
	.st1{fill:none;stroke:#323530;stroke-width:2;}
	.st2{fill:none;stroke:#323530;stroke-width:2.0008;}
	.st3{font-family:'CocogooseClassic-Regular';}
	.st4{font-size:22.0093px;}
	.st5{letter-spacing:1;}
	.st6{fill:#FFEF9E;stroke:#323530;stroke-width:2;stroke-miterlimit:10;}
	.st7{fill:#FFEF9E;stroke:#323530;}
	.st8{fill:#2E667A;}
	.st9{fill:#323530;}
	.st10{fill:#FFEF9E;}
	.st11{fill:none;}
	.st12{font-size:23px;}
</style>
<g id="Groupe_CTA" transform="translate(-119 -968.16)">
	<g id="CTA_inspirer" class="sign" transform="translate(120 1053.275)">
		<path id="Union_11" class="st0" d="M93.4,538.7V210.7c-58-6.8-99.5-59.3-92.7-117.3S60-6.1,118,0.7S217.4,60,210.7,118
			c-5.9,50.5-46.9,89.6-97.6,93.2v327.6H93.4z"/>
		<circle id="Ellipse_168" class="st1" cx="106" cy="105.7" r="87"/>
		<text transform="matrix(0.8746 -0.4848 0.4848 0.8746 52.5403 148.0651)" class="st2 st3 st4 st5">S&apos;INSPIRER</text>
	</g>
	<g id="CTA_former" class="sign" transform="translate(210.006 968.721)">
		<path id="Union_21" class="st6" d="M161,623.3V136.7L13,118.6c-7-0.8-12-7.1-11.3-14c0.4-2.8,1.7-5.5,3.8-7.5l0.2-0.2l23.7-18.7
			L10.9,54.4l-0.1-0.2c-1.5-2.4-2.2-5.3-1.9-8.1c1-7,7.4-11.8,14.3-10.9l293.2,36l1.2,0.9l45.2,35.4l0.4,0.5
			c5.4,6.6,4.5,16.3-2,21.7c-0.2,0.2-0.5,0.4-0.7,0.5l-0.5,0.4l-53.8,24L180,139.1v484.2L161,623.3z"/>
		<path id="Soustraction_13" class="st7" d="M306,148.5L306,148.5L14.3,112.7c-4-0.4-6.9-4-6.5-8c0.2-1.6,0.9-3.1,2.1-4.2l27.8-21.9
			L16,50.8c-0.9-1.3-1.2-3-1-4.6c0.5-3.3,3.1-5.8,6.4-6.2c0.6-0.1,1.3-0.1,1.9,0l291.7,35.8l0,0l44.7,35c3.5,4.2,3,10.5-1.3,14
			c-0.2,0.1-0.3,0.3-0.5,0.4L306,148.5L306,148.5z M254.5,110.3L254.5,110.3l3.2,0.4l2.5,6.5c0.2,0.4,0.3,0.6,0.7,0.6l3.4,0.4
			c0,0,0.1,0,0.1,0c0.1,0,0.3-0.1,0.3-0.2c0.1-0.1,0.1-0.3,0-0.5l-2.8-7.3c2.3-0.9,3.9-3.1,4.1-5.6c0.3-1.9-0.2-3.8-1.4-5.3
			c-1.3-1.5-3-2.4-5-2.5l-4-0.5l-0.3,0c-0.4-0.1-1.1-0.1-1.8-0.2l-0.7-0.1c-0.1,0-0.1,0-0.2,0c-0.3,0-0.5,0.3-0.5,0.6l-2.4,19.3
			c-0.1,0.3,0.1,0.6,0.4,0.7c0,0,0.1,0,0.1,0l2.8,0.3c0.1,0,0.1,0,0.2,0c0.3,0,0.5-0.3,0.5-0.6L254.5,110.3z M232.3,93.5
			c-0.3,0-0.5,0.3-0.5,0.5l-2.4,19.3c-0.1,0.3,0.1,0.6,0.4,0.7c0,0,0.1,0,0.1,0l13.4,1.6c0.1,0,0.1,0,0.2,0c0.3,0,0.5-0.3,0.5-0.6
			l0.3-2.3c0-0.2,0-0.4-0.1-0.6c-0.2-0.2-0.4-0.3-0.6-0.3l-9.8-1.2l0.6-4.8l7.6,0.9c0.1,0,0.2,0,0.2,0c0.3,0,0.5-0.3,0.5-0.5
			l0.3-2.4c0-0.2,0-0.3-0.1-0.5c-0.1-0.1-0.3-0.2-0.5-0.3l-7.6-0.9l0.6-4.6l9.7,1.2c0.1,0,0.1,0,0.2,0c0.3,0,0.5-0.3,0.5-0.6
			l0.3-2.5c0.1-0.3-0.1-0.6-0.5-0.7c0,0-0.1,0-0.1,0l-13.1-1.6C232.4,93.5,232.4,93.5,232.3,93.5z M220,99L220,99l-0.3,13.1
			c0,0.4,0.2,0.6,0.6,0.7l2.8,0.3c0.1,0,0.2,0,0.2,0c0.3,0,0.5-0.2,0.5-0.6L224,93c0-0.4-0.2-0.6-0.5-0.7l-3.6-0.4
			c-0.1,0-0.2,0-0.2,0c-0.3,0-0.5,0.2-0.6,0.5l-6.3,12.9l-3-14c0-0.4-0.3-0.6-0.6-0.7l-3.6-0.4c-0.1,0-0.1,0-0.2,0
			c-0.2,0-0.4,0.2-0.5,0.5l-4.5,19.1c0,0.2,0,0.3,0.1,0.5c0.1,0.1,0.3,0.2,0.5,0.2l2.8,0.3c0.1,0,0.1,0,0.2,0c0.3,0,0.4-0.2,0.5-0.5
			l2.9-12.8l2.8,12.8c0.1,0.4,0.2,0.6,0.6,0.6l2.9,0.4c0.1,0,0.1,0,0.2,0c0.2,0,0.4-0.2,0.5-0.5L220,99z M185.2,101.8L185.2,101.8
			l3.2,0.4l2.5,6.5c0.2,0.4,0.3,0.6,0.7,0.6l3.4,0.4c0,0,0.1,0,0.1,0c0.1,0,0.3-0.1,0.3-0.2c0.1-0.1,0.1-0.3,0-0.5l-2.8-7.3
			c2.3-0.9,3.9-3.1,4.1-5.6c0.3-1.9-0.2-3.8-1.4-5.3c-1.3-1.5-3-2.4-5-2.5l-4-0.5c-0.1,0-0.2,0-0.4,0l-0.4-0.1
			c-0.3,0-0.8-0.1-1.3-0.2l-0.7-0.1c-0.1,0-0.1,0-0.2,0c-0.3,0-0.5,0.3-0.5,0.6l-2.4,19.3c0,0.2,0,0.4,0.1,0.5
			c0.1,0.1,0.3,0.2,0.4,0.2l2.8,0.3c0.1,0,0.1,0,0.2,0c0.3,0,0.5-0.3,0.5-0.6L185.2,101.8L185.2,101.8z M164.1,85
			c-5.9,0.7-10,6.1-9.3,12c0.6,4.9,4.5,8.8,9.4,9.3c0.9,0.1,1.8,0.1,2.7,0c5.9-0.7,10-6.1,9.3-12c-0.6-4.9-4.5-8.7-9.4-9.3
			C165.9,84.9,165,84.9,164.1,85L164.1,85z M139.1,82c-0.3,0-0.4,0.2-0.5,0.6l-2.4,19.3c0,0.2,0,0.4,0.1,0.5
			c0.1,0.1,0.3,0.2,0.4,0.2l2.8,0.3c0.1,0,0.1,0,0.2,0c0.3,0,0.5-0.3,0.5-0.6l0.8-6.8l7.4,0.9c0.1,0,0.2,0,0.2,0
			c0.3,0,0.5-0.3,0.5-0.5l0.3-2.3c0-0.2,0-0.3-0.1-0.5c-0.1-0.1-0.3-0.2-0.5-0.2l-7.4-0.9l0.7-5.8l9.3,1.1c0.1,0,0.1,0,0.2,0
			c0.3,0,0.5-0.3,0.5-0.5l0.3-2.5c0-0.2,0-0.3-0.1-0.5c-0.1-0.1-0.3-0.2-0.5-0.2L139.4,82C139.3,82,139.2,82,139.1,82L139.1,82z
			 M109.3,78.4c-0.3,0-0.5,0.3-0.5,0.5l-2.4,19.3c0,0.2,0,0.4,0.1,0.5c0.1,0.1,0.3,0.2,0.5,0.2l13.4,1.6c0.1,0,0.1,0,0.2,0
			c0.3,0,0.5-0.3,0.5-0.6l0.3-2.3c0.1-0.4-0.2-0.8-0.7-0.9c0,0-0.1,0-0.1,0l-9.8-1.2l0.6-4.8l7.6,0.9c0.1,0,0.2,0,0.2,0
			c0.3,0,0.5-0.3,0.5-0.5l0.3-2.4c0-0.2,0-0.3-0.1-0.5c-0.1-0.1-0.3-0.2-0.5-0.3l-7.6-0.9l0.6-4.6l9.7,1.2c0.1,0,0.1,0,0.2,0
			c0.3,0,0.5-0.3,0.5-0.6l0.3-2.5c0-0.2,0-0.3-0.1-0.5c-0.1-0.1-0.3-0.2-0.5-0.2l-13.1-1.6C109.5,78.4,109.4,78.4,109.3,78.4
			L109.3,78.4z M87.7,91c-0.2,0-0.3,0.1-0.4,0.2l-1.8,2c-0.3,0.2-0.3,0.6,0,0.9c0,0,0.1,0.1,0.1,0.1c2.1,1.7,4.6,2.8,7.2,3.2
			c0.9,0.1,1.8,0.1,2.7,0c1.5-0.1,2.9-0.7,4.1-1.6c1.1-0.9,1.8-2.2,2-3.7c0.3-1.6-0.3-3.3-1.6-4.4c-1.5-1.2-3.2-2.2-5-2.9l-0.4-0.2
			c-1.5-0.6-3.1-1.3-3-2.7c0.1-0.8,0.9-1.3,2.2-1.5c0.4-0.1,0.9-0.1,1.3,0c1.5,0.2,3,0.8,4.2,1.7c0.2,0.1,0.3,0.2,0.5,0.2
			c0.2,0,0.3-0.1,0.4-0.3l1.8-2c0.3-0.2,0.3-0.6,0-0.9c0,0,0,0-0.1-0.1c-1.8-1.5-4.1-2.4-6.4-2.7c-0.9-0.1-1.7-0.1-2.6,0
			c-1.4,0.1-2.7,0.7-3.7,1.5c-1,0.9-1.6,2.1-1.8,3.5c-0.3,1.5,0.3,3.1,1.4,4.2c1.3,1.1,2.8,2,4.3,2.6c2.3,1,4.3,1.9,4.1,3.4
			c-0.1,1-1,1.6-2.5,1.8c-0.6,0.1-1.2,0.1-1.8,0c-1.9-0.3-3.6-1.1-5.1-2.2C88,91,87.9,91,87.7,91L87.7,91z M259.3,106.9
			c-0.3,0-0.6,0-0.9,0l-3.5-0.4l0.8-6.3l3.5,0.4c0.9,0.1,1.6,0.5,2.2,1.2c0.5,0.7,0.7,1.5,0.6,2.4
			C261.9,105.6,260.8,106.7,259.3,106.9L259.3,106.9z M166.4,102.3c-0.6,0.1-1.1,0.1-1.7,0c-3.6-0.4-6.2-3.7-5.8-7.3
			c0,0,0-0.1,0-0.1c0.2-1.5,0.8-2.9,1.9-4c1-1,2.4-1.7,3.9-1.9c0.6-0.1,1.1-0.1,1.7,0c3.7,0.4,6.3,3.7,5.9,7.4
			C171.9,99.5,169.5,101.9,166.4,102.3z M190.1,98.4c-0.3,0-0.6,0-0.9,0l-3.5-0.4l0.8-6.3l3.5,0.4c0.9,0.1,1.7,0.5,2.2,1.2
			c0.5,0.7,0.7,1.5,0.6,2.4C192.6,97.1,191.5,98.2,190.1,98.4L190.1,98.4z"/>
	</g>
	<g id="CTA_accompagner" class="sign" transform="translate(301.654 1164.539)">
		<g id="Union_12">
			<g>
				<polygon class="st8" points="158.5,425 158.5,101.4 0,101.4 0,0 336.8,0 336.8,101.4 178.3,101.4 178.3,425 				"/>
				<path class="st9" d="M335.8,1v99.4H178.3h-1v1V424h-17.8V101.4v-1h-1H1V1H335.8 M337.8-1h-2H1h-2v2v99.4v2h2h156.5V424v2h2h17.8
					h2v-2V102.4h156.5h2v-2V1V-1L337.8-1z"/>
			</g>
		</g>
		<path id="Soustraction_31" class="st10" d="M326.3,89.5h-315v-78h315L326.3,89.5L326.3,89.5L326.3,89.5L326.3,89.5L326.3,89.5z"/>
		<text transform="matrix(1 0 0 1 50.2869 57.3985)"><tspan x="0" y="0" class="st8 st3 st12 st5">LES ACCOMPAGNER</tspan></text>
	</g>
</g>
</svg>
