<svg xmlns="http://www.w3.org/2000/svg" width="335.348" height="345.984" viewBox="0 0 335.348 345.984">
  <g id="Panneau_se_former" data-name="Panneau_se former" transform="matrix(0.998, 0.07, -0.07, 0.998, 24.21, 13.512)">
    <path id="Union_16" data-name="Union 16" d="M11377.3,15888.031l-145.434-12.721a6.8,6.8,0,0,1-5.905-7.581,7.335,7.335,0,0,1,1.772-4.209l24-22.84-19.67-26.655a7.314,7.314,0,0,1-1.016-4.452,6.8,6.8,0,0,1,7.131-6.443l257.864,22.56h.008l40.138,32.658a10.727,10.727,0,0,1-1.255,14.34l-45.2,25.179-94.35-8.253,16.612,236.109-17.986,1.259Z" transform="translate(-11227.915 -15815.975)" fill="none" stroke="#fff" stroke-width="1"/>
    <path id="Subtraction_14" data-name="Subtraction 14" d="M18310.3,13862.473h0l-247.918-22.174a7.6,7.6,0,0,1-3.678-1.218,3.324,3.324,0,0,1-1.523-3.118l.018-.239c.1-1.078,1.445-2.327,2.531-3.33.391-.362.727-.674.961-.937l21.844-20.331-18.475-23.9c-.094-.15-.207-.321-.326-.5l-.078-.119c-.771-1.16-1.936-2.912-1.83-4.143l.021-.239a3.187,3.187,0,0,1,1.709-2.611,6.928,6.928,0,0,1,3.338-.758c.283,0,.572.013.855.038l247.965,21.69,36.879,27.727c2.547,2.247,3.754,4.48,3.588,6.639-.166,2.186-1.75,4.255-4.707,6.15l-41.174,21.373Zm-29.479-44.927a.521.521,0,0,0-.367.127.634.634,0,0,0-.189.424l-1.58,18.078a.539.539,0,0,0,.121.434.573.573,0,0,0,.4.17l13.094,1.147a.6.6,0,0,0,.092,0c.264,0,.422-.107.469-.318a.332.332,0,0,0,.125-.226l.285-3.253a.624.624,0,0,0-.105-.459.6.6,0,0,0-.424-.186l-8.707-.761.295-3.317,6.486.567a.588.588,0,0,0,.074,0,.5.5,0,0,0,.355-.133.578.578,0,0,0,.174-.341l.244-2.8a.45.45,0,0,0-.129-.4.689.689,0,0,0-.4-.151l-6.473-.567.281-3.211,8.389.732c.025,0,.051,0,.074,0a.517.517,0,0,0,.4-.165.664.664,0,0,0,.193-.405l.277-3.2a.642.642,0,0,0-.115-.465.573.573,0,0,0-.424-.208l-12.85-1.124C18280.863,13817.546,18280.842,13817.546,18280.82,13817.546Zm-15.189-1.341a.55.55,0,0,0-.377.131.584.584,0,0,0-.189.388l-1.584,18.106a.511.511,0,0,0,.52.621l11.564,1.01h.041a.506.506,0,0,0,.4-.157.627.627,0,0,0,.186-.387l.3-3.4a.558.558,0,0,0-.129-.442.58.58,0,0,0-.393-.194l-7.121-.621,1.234-14.089a.565.565,0,0,0-.162-.434.581.581,0,0,0-.387-.188l-3.832-.337h-.006Zm-17.316-1.5a.52.52,0,0,0-.365.127.589.589,0,0,0-.189.419l-1.584,18.083a.57.57,0,0,0,.119.434.62.62,0,0,0,.406.17l9.361.82c.141.013.293.019.465.019a5.248,5.248,0,0,0,1.742-.295,5.725,5.725,0,0,0,1.912-1.105,6.084,6.084,0,0,0,1.387-1.746,5.689,5.689,0,0,0,.65-2.193,5.9,5.9,0,0,0-.328-2.548,6.3,6.3,0,0,0-1.3-2.16,4.855,4.855,0,0,0,.994-1.42,5.15,5.15,0,0,0,.461-1.782,5.5,5.5,0,0,0-.248-2.221,5.823,5.823,0,0,0-1.041-1.88,5.709,5.709,0,0,0-1.668-1.346,5.485,5.485,0,0,0-2.109-.622l-8.6-.751h-.012Zm-16.795,14.773h0l6.879.6.076.279c.1.347.2.718.3,1.079.139.5.266.945.387,1.354a.7.7,0,0,0,.221.392.826.826,0,0,0,.451.152l3.719.322a1,1,0,0,0,.119,0,.539.539,0,0,0,.383-.12.387.387,0,0,0,.078-.419l-5.266-18.129-.258-.77a1.9,1.9,0,0,0-.213-.258.542.542,0,0,0-.363-.171l-3.318-.29h-.037a.662.662,0,0,0-.184.028.968.968,0,0,0-.234.106,1.022,1.022,0,0,0-.189.151.407.407,0,0,0-.1.161l-8.625,17.591a.308.308,0,0,0,.023.4.619.619,0,0,0,.395.165l3.82.332c.037,0,.064,0,.09,0a.639.639,0,0,0,.615-.424l.074-.158c.164-.347.352-.739.539-1.113s.373-.766.611-1.271Zm-20.506-18.051a.532.532,0,0,0-.377.133.642.642,0,0,0-.186.429l-1.584,18.093a.461.461,0,0,0,.143.456.836.836,0,0,0,.4.138l6.387.558c.365.031.668.046.953.046a10.534,10.534,0,0,0,1.705-.143,10.193,10.193,0,0,0,2.441-.732,9.742,9.742,0,0,0,2.125-1.3,9.528,9.528,0,0,0,1.717-1.8,9.4,9.4,0,0,0,1.2-2.216,9.949,9.949,0,0,0,.58-2.58,9.534,9.534,0,0,0-.129-2.636,10.1,10.1,0,0,0-.793-2.4,9.3,9.3,0,0,0-1.383-2.078,9.955,9.955,0,0,0-4.141-2.829,10.5,10.5,0,0,0-2.594-.566l-6.387-.558A.659.659,0,0,0,18211.014,13811.426Zm-8.479-.728a.507.507,0,0,0-.363.133.6.6,0,0,0-.18.392l-1.58,18.088a.505.505,0,0,0,.521.622l3.8.331a.849.849,0,0,0,.111,0,.51.51,0,0,0,.576-.516l1.58-18.093a.48.48,0,0,0-.186-.434.724.724,0,0,0-.4-.193l-3.8-.331A.606.606,0,0,0,18202.535,13810.7Zm-10.2,7.827h0l.252,10.1a.545.545,0,0,0,.57.627l3.668.318a.784.784,0,0,0,.1,0,.458.458,0,0,0,.518-.46l0-.064c-.033-2.711-.074-5.915-.133-9.127-.051-2.728-.094-5.713-.135-9.127a.61.61,0,0,0-.18-.424.618.618,0,0,0-.4-.2l-4.428-.387-.074,0a.668.668,0,0,0-.631.44l-4.58,11.449-2.492-12.071a.6.6,0,0,0-.576-.544l-4.482-.392c-.031,0-.061,0-.082,0a.531.531,0,0,0-.375.133.723.723,0,0,0-.217.388l-3.432,17.927a.58.58,0,0,0,.1.44.574.574,0,0,0,.408.177l3.662.322c.039,0,.074,0,.1,0a.533.533,0,0,0,.582-.521l2-9.883,2.037,10.3a.564.564,0,0,0,.156.336.489.489,0,0,0,.318.2l3.4.3h.023a.46.46,0,0,0,.309-.158.7.7,0,0,0,.217-.295Zm-28.49,1.718h0l2.1.18,2.631,6.2a.633.633,0,0,0,.193.368.677.677,0,0,0,.387.166l4.441.387.037,0,.037,0a.551.551,0,0,0,.3-.083.369.369,0,0,0,.16-.3.888.888,0,0,0-.1-.442c-.078-.164-.145-.314-.2-.447l-2.779-6.561a6.525,6.525,0,0,0,1.373-.853,6.21,6.21,0,0,0,1.125-1.166,6.137,6.137,0,0,0,.8-1.428,5.824,5.824,0,0,0,.387-1.658,6.022,6.022,0,0,0-.285-2.483,6.317,6.317,0,0,0-1.189-2.124,6.658,6.658,0,0,0-1.916-1.529,6.248,6.248,0,0,0-2.455-.715l-8.367-.732a.758.758,0,0,0-.084,0,.48.48,0,0,0-.354.129.653.653,0,0,0-.186.419l-1.58,18.078a.517.517,0,0,0,.121.434.584.584,0,0,0,.4.175l3.848.337a.885.885,0,0,0,.092,0,.5.5,0,0,0,.553-.511l.51-5.837Zm-17.338-14.7a9.635,9.635,0,0,0-1.777.163,10.372,10.372,0,0,0-2.451.792,9.569,9.569,0,0,0-2.139,1.373,9.873,9.873,0,0,0-1.723,1.875,10.015,10.015,0,0,0-1.207,2.285,9.744,9.744,0,0,0-.58,2.6,9.978,9.978,0,0,0,.119,2.667,9.522,9.522,0,0,0,.793,2.442,9.981,9.981,0,0,0,1.373,2.133,10.146,10.146,0,0,0,1.865,1.723,10.007,10.007,0,0,0,2.281,1.2,9.711,9.711,0,0,0,2.6.58c.27.025.561.037.889.037a9.85,9.85,0,0,0,4.234-.944,10.4,10.4,0,0,0,2.141-1.373,9.657,9.657,0,0,0,1.725-1.861,9.906,9.906,0,0,0,1.2-2.267,9.879,9.879,0,0,0,.461-5.271,10.391,10.391,0,0,0-.787-2.461,9.888,9.888,0,0,0-3.248-3.87,10.277,10.277,0,0,0-2.285-1.207,9.793,9.793,0,0,0-2.6-.585C18147.1,13805.558,18146.8,13805.545,18146.508,13805.545Zm-23.809-1.837a.548.548,0,0,0-.559.553l-1.584,18.093a.49.49,0,0,0,.418.585l3.949.346a.6.6,0,0,0,.092,0,.5.5,0,0,0,.553-.512l.521-5.93,5.842.512h.006l.043,0a.486.486,0,0,0,.375-.168.728.728,0,0,0,.184-.41l.271-3.1a.528.528,0,0,0-.129-.447.629.629,0,0,0-.4-.17l-5.814-.512.35-4.013,7.879.687c.027,0,.057,0,.076,0a.51.51,0,0,0,.393-.161.69.69,0,0,0,.189-.405l.281-3.2a.652.652,0,0,0-.111-.47.552.552,0,0,0-.428-.2l-12.393-1.087Zm132.367,27.078c-.053,0-.109,0-.16-.006l-3.428-.3.377-4.326,3.428.3a1.631,1.631,0,0,1,.779.263,2.213,2.213,0,0,1,.949,1.285,2.149,2.149,0,0,1,.082.788,2.261,2.261,0,0,1-.7,1.446,2.059,2.059,0,0,1-.678.429A1.745,1.745,0,0,1,18255.066,13830.786Zm-38.543-4.23h-.041c-.2,0-.383,0-.576,0-.23-.006-.416-.017-.58-.032l-1.088-.093.871-9.96,1.709.151a5.351,5.351,0,0,1,1.967.544,5.018,5.018,0,0,1,1.549,1.18,4.966,4.966,0,0,1,.969,1.677,4.873,4.873,0,0,1,.234,2.036,5.017,5.017,0,0,1-.521,1.856,4.777,4.777,0,0,1-1.119,1.424,5.057,5.057,0,0,1-1.562.908A5.284,5.284,0,0,1,18216.523,13826.556Zm20.787-.761h0l-3.973-.351c.191-.4.395-.846.621-1.372s.438-1.021.631-1.493l.078-.183q.179-.422.355-.841l.2-.474c.2-.47.41-.934.621-1.378l1.463,6.09Zm17.824-2.875c-.076,0-.154,0-.232-.009l-2.742-.24.332-3.759,2.773.244a2.071,2.071,0,0,1,.783.221,1.91,1.91,0,0,1,.586.461,1.778,1.778,0,0,1,.35.631,1.743,1.743,0,0,1,.078.737,1.866,1.866,0,0,1-.213.746,1.952,1.952,0,0,1-.459.558,1.827,1.827,0,0,1-.664.337A2.34,2.34,0,0,1,18255.135,13822.92Zm-108.576-2.293c-.16,0-.314-.007-.475-.02a4.9,4.9,0,0,1-1.93-.566,4.737,4.737,0,0,1-1.451-1.226,4.9,4.9,0,0,1-.871-1.714,5.44,5.44,0,0,1-.189-2.041,5.521,5.521,0,0,1,.535-1.968,5.129,5.129,0,0,1,1.16-1.548,4.817,4.817,0,0,1,1.641-.968,4.706,4.706,0,0,1,1.543-.248c.174,0,.32.006.461.018a4.818,4.818,0,0,1,1.936.576,4.738,4.738,0,0,1,1.455,1.239,4.936,4.936,0,0,1,.871,1.724,5.431,5.431,0,0,1,.189,2.031,5.537,5.537,0,0,1-.539,1.977,4.94,4.94,0,0,1-1.156,1.539,4.756,4.756,0,0,1-3.18,1.194Zm20.447-4.272c-.113,0-.244-.007-.42-.022l-2.381-.208.414-4.754,1.787.156c.229.021.455.047.691.078l.23.036.131.021.316.05a2.168,2.168,0,0,1,.777.354,2.456,2.456,0,0,1,.572.6,2.521,2.521,0,0,1,.342.747,2.192,2.192,0,0,1,.072.792,2.626,2.626,0,0,1-.2.8,2.41,2.41,0,0,1-.437.678,2.085,2.085,0,0,1-.66.479,2.055,2.055,0,0,1-.838.194C18167.26,13816.354,18167.125,13816.354,18167.006,13816.354Z" transform="translate(-18051.887 -13785.805)" fill="none" stroke="#fff" stroke-miterlimit="10" stroke-width="1"/>
  </g>
</svg>
