<?xml version="1.0" encoding="utf-8"?>
<!-- Generator: Adobe Illustrator 25.3.0, SVG Export Plug-In . SVG Version: 6.00 Build 0)  -->
<svg version="1.1" id="Calque_1" xmlns="http://www.w3.org/2000/svg" xmlns:xlink="http://www.w3.org/1999/xlink" x="0px" y="0px"
	 viewBox="0 0 335.3 346" style="enable-background:new 0 0 335.3 346;" xml:space="preserve">
<style type="text/css">
	.st0{fill:none;stroke:#FFFFFF;stroke-width:1.0005;stroke-miterlimit:4.0018;}
	.st1{fill:none;stroke:#FFFFFF;stroke-width:1.0005;stroke-miterlimit:10.0045;}
	.st2{fill:none;stroke:#FFFFFF;}
</style>
<g id="Panneau_se_former" transform="matrix(0.998, 0.07, -0.07, 0.998, 24.21, 13.512)">
	<path id="Union_16" class="st0" d="M149.4,72.1L4,59.3c-3.7-0.5-6.4-3.9-5.9-7.6c0.1-1.6,0.7-3,1.8-4.2l24-22.8L4.1-1.9
		C3.3-3.3,3-4.8,3.1-6.4c0.2-3.7,3.4-6.6,7.1-6.4L268.1,9.7h0l40.1,32.7c3.3,4.4,2.8,10.6-1.3,14.3l-45.2,25.2l-94.3-8.3l16.6,236.1
		l-18,1.3L149.4,72.1z"/>
	<path id="Subtraction_14" class="st1" d="M258.4,76.7L258.4,76.7L10.5,54.5c-1.3-0.1-2.6-0.5-3.7-1.2c-1.1-0.7-1.6-1.9-1.5-3.1
		l0-0.2c0.1-1.1,1.4-2.3,2.5-3.3c0.4-0.4,0.7-0.7,1-0.9l21.8-20.3L12.2,1.4c-0.1-0.2-0.2-0.3-0.3-0.5l-0.1-0.1
		C11-0.4,9.8-2.1,9.9-3.3l0-0.2c0.1-1.1,0.7-2.1,1.7-2.6c1-0.5,2.2-0.8,3.3-0.8c0.3,0,0.6,0,0.9,0l248,21.7l36.9,27.7
		c2.5,2.2,3.8,4.5,3.6,6.6c-0.2,2.2-1.8,4.3-4.7,6.2L258.4,76.7z"/>
</g>
<g>
	<path class="st2" d="M112.9,41.4c0.1,0.1,0.1,0.2,0.1,0.3c0,0.1,0,0.2-0.1,0.2l-9.6,16.1c-0.1,0.1-0.2,0.3-0.3,0.3
		c-0.1,0.1-0.3,0.1-0.4,0.1l-2-0.3c-0.1,0-0.3-0.1-0.4-0.2s-0.2-0.3-0.2-0.4l-1.5-6.7l-3.5,5.9c-0.1,0.1-0.2,0.3-0.3,0.3
		c-0.1,0.1-0.3,0.1-0.4,0.1l-2-0.3c-0.2,0-0.3-0.1-0.4-0.2c-0.1-0.1-0.2-0.3-0.2-0.4l-4.1-18.3c0-0.1,0-0.2,0-0.3
		c0-0.2,0.2-0.3,0.5-0.3l2.7,0.4c0.2,0,0.3,0.1,0.4,0.2c0.1,0.1,0.2,0.2,0.2,0.4l2.8,13.4l6.8-11.9c0.1-0.1,0.2-0.3,0.3-0.3
		c0.1-0.1,0.3-0.1,0.4-0.1l2.7,0.4c0.2,0,0.3,0.1,0.3,0.1s0.1,0.2,0.1,0.3c0,0.1,0,0.2-0.1,0.3l-3.7,6.3l1.6,6.4l6.9-12
		c0.1-0.1,0.2-0.2,0.3-0.3c0.1-0.1,0.3-0.1,0.4-0.1l2.7,0.4C112.8,41.3,112.9,41.3,112.9,41.4z"/>
	<path class="st2" d="M115,42.2c0.1-0.4,0.3-0.5,0.7-0.5l11.7,1.8c0.2,0,0.3,0.1,0.4,0.2c0.1,0.1,0.1,0.3,0.1,0.4l-0.3,2.2
		c0,0.2-0.1,0.3-0.2,0.4c-0.1,0.1-0.3,0.1-0.5,0.1l-8.7-1.4l-0.6,4.1l6.8,1.1c0.2,0,0.3,0.1,0.4,0.2c0.1,0.1,0.1,0.3,0.1,0.4
		l-0.3,2.2c0,0.2-0.1,0.3-0.2,0.4c-0.1,0.1-0.3,0.1-0.5,0.1l-6.8-1.1l-0.7,4.3l8.7,1.4c0.2,0,0.4,0.1,0.5,0.3
		c0.1,0.1,0.2,0.3,0.1,0.5l-0.3,2.1c0,0.2-0.1,0.3-0.2,0.4c-0.1,0.1-0.3,0.1-0.5,0.1l-11.9-1.9c-0.4-0.1-0.5-0.3-0.5-0.7L115,42.2z"
		/>
	<path class="st2" d="M150.1,65.6c0,0.1-0.1,0.2-0.2,0.3c-0.1,0.1-0.2,0.1-0.4,0.1l-2.7-0.4c-0.1,0-0.3-0.1-0.4-0.2
		c-0.1-0.1-0.2-0.2-0.2-0.4l-0.6-3.2l-7.3-1.2l-1.6,2.9c-0.1,0.1-0.2,0.2-0.3,0.3c-0.1,0.1-0.3,0.1-0.4,0.1l-2.7-0.4
		c-0.2,0-0.3-0.1-0.3-0.2s-0.1-0.2-0.1-0.3c0-0.1,0-0.2,0.1-0.2l9.6-16.1c0.1-0.1,0.2-0.3,0.3-0.3c0.1-0.1,0.3-0.1,0.4-0.1l2,0.3
		c0.1,0,0.3,0.1,0.4,0.2c0.1,0.1,0.2,0.3,0.2,0.4l4.2,18.3C150.1,65.4,150.1,65.5,150.1,65.6z M145,58.4l-1.5-7.5l-3.7,6.6L145,58.4
		z"/>
	<path class="st2" d="M165.6,68c0,0.1-0.1,0.2-0.2,0.3c-0.1,0.1-0.2,0.1-0.3,0.1l-3-0.5c-0.2,0-0.3-0.1-0.3-0.2
		c-0.1-0.1-0.2-0.2-0.2-0.4l-2-5.9l-2.9-0.5l-0.8,5.4c0,0.2-0.1,0.3-0.2,0.4c-0.1,0.1-0.3,0.1-0.4,0.1l-2.5-0.4
		c-0.2,0-0.3-0.1-0.4-0.2s-0.1-0.3-0.1-0.4l2.7-17.2c0-0.2,0.1-0.3,0.2-0.4c0.1-0.1,0.3-0.1,0.4-0.1l0.6,0.1l1.9,0.3l3.6,0.6
		c1.2,0.2,2.3,0.6,3.2,1.3s1.5,1.5,1.9,2.5c0.4,1,0.5,2.2,0.3,3.4c-0.2,1.2-0.6,2.2-1.3,3.1c-0.7,0.8-1.5,1.4-2.6,1.8l2.3,6.6
		C165.6,67.8,165.6,67.9,165.6,68z M157.3,57.5l3.1,0.5c0.6,0.1,1.1,0,1.5-0.1c0.5-0.2,0.9-0.4,1.2-0.8c0.3-0.4,0.5-0.8,0.6-1.4
		c0.1-0.5,0-1-0.1-1.5c-0.2-0.5-0.5-0.8-0.9-1.2c-0.4-0.3-0.9-0.5-1.4-0.6l-3.1-0.5L157.3,57.5z"/>
	<path class="st2" d="M171.2,51.1c0.1-0.4,0.3-0.5,0.7-0.5l11.7,1.8c0.2,0,0.3,0.1,0.4,0.2c0.1,0.1,0.1,0.3,0.1,0.4l-0.3,2.2
		c0,0.2-0.1,0.3-0.2,0.4s-0.3,0.1-0.5,0.1l-8.7-1.4l-0.6,4.1l6.8,1.1c0.2,0,0.3,0.1,0.4,0.2c0.1,0.1,0.1,0.3,0.1,0.4l-0.3,2.2
		c0,0.2-0.1,0.3-0.2,0.4c-0.1,0.1-0.3,0.1-0.5,0.1l-6.8-1.1l-0.7,4.3l8.7,1.4c0.2,0,0.4,0.1,0.5,0.3c0.1,0.1,0.2,0.3,0.1,0.5
		l-0.3,2.1c0,0.2-0.1,0.3-0.2,0.4c-0.1,0.1-0.3,0.1-0.5,0.1l-11.9-1.9c-0.4-0.1-0.5-0.3-0.5-0.7L171.2,51.1z"/>
	<path class="st2" d="M193.1,54.6c0.1-0.4,0.3-0.5,0.6-0.5l11.3,1.8c0.2,0,0.3,0.1,0.4,0.2c0.1,0.1,0.1,0.3,0.1,0.4l-0.3,2.2
		c0,0.2-0.1,0.3-0.2,0.4c-0.1,0.1-0.3,0.1-0.4,0.1l-8.3-1.3l-0.8,5.2l6.6,1c0.2,0,0.3,0.1,0.4,0.2c0.1,0.1,0.1,0.3,0.1,0.4l-0.3,2
		c0,0.2-0.1,0.3-0.2,0.4c-0.1,0.1-0.3,0.1-0.5,0.1l-6.6-1l-1,6.1c0,0.2-0.1,0.3-0.2,0.4c-0.1,0.1-0.3,0.1-0.4,0.1l-2.5-0.4
		c-0.4-0.1-0.5-0.3-0.5-0.7L193.1,54.6z"/>
	<path class="st2" d="M218.6,76.4c0,0.1-0.1,0.2-0.2,0.3c-0.1,0.1-0.2,0.1-0.3,0.1l-3-0.5c-0.2,0-0.3-0.1-0.3-0.2
		c-0.1-0.1-0.2-0.2-0.2-0.4l-2-5.9l-2.9-0.5l-0.8,5.4c0,0.2-0.1,0.3-0.2,0.4c-0.1,0.1-0.3,0.1-0.4,0.1l-2.5-0.4
		c-0.2,0-0.3-0.1-0.4-0.2c-0.1-0.1-0.1-0.3-0.1-0.4l2.7-17.2c0-0.2,0.1-0.3,0.2-0.4c0.1-0.1,0.3-0.1,0.4-0.1l0.6,0.1l1.9,0.3
		l3.6,0.6c1.2,0.2,2.3,0.6,3.2,1.3c0.9,0.7,1.5,1.5,1.9,2.5c0.4,1,0.5,2.2,0.3,3.4c-0.2,1.2-0.6,2.2-1.3,3.1
		c-0.7,0.8-1.5,1.4-2.6,1.8l2.3,6.6C218.6,76.2,218.6,76.3,218.6,76.4z M210.2,65.9l3.1,0.5c0.6,0.1,1.1,0,1.5-0.1
		c0.5-0.2,0.9-0.4,1.2-0.8c0.3-0.4,0.5-0.8,0.6-1.4c0.1-0.5,0-1-0.1-1.5c-0.2-0.5-0.5-0.8-0.9-1.2c-0.4-0.3-0.9-0.5-1.4-0.6
		l-3.1-0.5L210.2,65.9z"/>
	<path class="st2" d="M224.2,59.4c0.1-0.4,0.3-0.5,0.7-0.5l11.7,1.8c0.2,0,0.3,0.1,0.4,0.2c0.1,0.1,0.1,0.3,0.1,0.4l-0.3,2.2
		c0,0.2-0.1,0.3-0.2,0.4c-0.1,0.1-0.3,0.1-0.5,0.1l-8.7-1.4l-0.6,4.1l6.8,1.1c0.2,0,0.3,0.1,0.4,0.2s0.1,0.3,0.1,0.4l-0.3,2.2
		c0,0.2-0.1,0.3-0.2,0.4c-0.1,0.1-0.3,0.1-0.5,0.1l-6.8-1.1l-0.7,4.3l8.7,1.4c0.2,0,0.4,0.1,0.5,0.3c0.1,0.1,0.2,0.3,0.1,0.5
		l-0.3,2.1c0,0.2-0.1,0.3-0.2,0.4c-0.1,0.1-0.3,0.1-0.5,0.1l-11.9-1.9c-0.4-0.1-0.5-0.3-0.5-0.7L224.2,59.4z"/>
	<path class="st2" d="M240,61.9c0.1-0.4,0.3-0.5,0.7-0.5l11.7,1.8c0.2,0,0.3,0.1,0.4,0.2c0.1,0.1,0.1,0.3,0.1,0.4l-0.3,2.2
		c0,0.2-0.1,0.3-0.2,0.4c-0.1,0.1-0.3,0.1-0.5,0.1l-8.7-1.4l-0.6,4.1l6.8,1.1c0.2,0,0.3,0.1,0.4,0.2c0.1,0.1,0.1,0.3,0.1,0.4
		l-0.3,2.2c0,0.2-0.1,0.3-0.2,0.4c-0.1,0.1-0.3,0.1-0.5,0.1l-6.8-1.1l-0.7,4.3l8.7,1.4c0.2,0,0.4,0.1,0.5,0.3
		c0.1,0.1,0.2,0.3,0.1,0.5l-0.3,2.1c0,0.2-0.1,0.3-0.2,0.4c-0.1,0.1-0.3,0.1-0.5,0.1l-11.9-1.9c-0.4-0.1-0.5-0.3-0.5-0.7L240,61.9z"
		/>
</g>
</svg>
