<?xml version="1.0" encoding="utf-8"?>
<!-- Generator: Adobe Illustrator 25.2.1, SVG Export Plug-In . SVG Version: 6.00 Build 0)  -->
<svg version="1.1" id="signs" xmlns="http://www.w3.org/2000/svg" xmlns:xlink="http://www.w3.org/1999/xlink" x="0px" y="0px"
	 viewBox="0 0 519.5 624.9" style="enable-background:new 0 0 519.5 624.9;" xml:space="preserve">
<style type="text/css">
	.st0{fill:#A7CCBF;stroke:#323530;stroke-width:2;}
	.st1{fill:none;stroke:#323530;stroke-width:2;}
	.st2{enable-background:new    ;}
	.st3{fill:#323530;}
	.st4{fill:#FFEF9E;stroke:#323530;stroke-width:2;stroke-miterlimit:10;}
	.st5{fill:#FFEF9E;stroke:#323530;}
	.st6{fill:#2E667A;}
	.st7{fill:none;stroke:#323530;stroke-width:2;stroke-miterlimit:10;}
</style>
<g id="Groupe_CTA" transform="translate(-119 -968.16)">
	<g id="CTA_inspirer" class="sign" transform="translate(120 1053.275)">
		<path id="Union_11" class="st0" d="M93.4,538.7v-328c-58-6.8-99.5-59.3-92.7-117.3S60-6.1,118,0.7S217.4,60,210.7,118
			c-5.9,50.5-46.9,89.6-97.6,93.2v327.6L93.4,538.7L93.4,538.7z"/>
		<circle id="Ellipse_168" class="st1" cx="106" cy="105.7" r="87"/>
		<g class="st2">
			<path class="st3" d="M51.3,146.8c-0.1,0-0.3,0-0.4,0c-0.4,0-0.7-0.2-0.9-0.5l0,0c-0.1-0.2-0.2-0.4-0.2-0.7l0-2.8
				c0-0.4,0.2-0.8,0.6-1c0.2-0.1,0.3-0.1,0.6-0.2c0.8-0.1,1.6-0.2,2.3-0.4c0.7-0.2,1.4-0.4,2-0.8c0.4-0.2,0.8-0.5,1-0.9
				c0.2-0.3,0.1-0.5,0.1-0.6c-0.1-0.1-0.2-0.2-0.3-0.2c-0.2-0.1-0.6-0.1-1,0c-0.4,0.1-1,0.2-1.8,0.4c-1.3,0.3-2.3,0.4-3.2,0.4
				c-0.9,0-1.8-0.2-2.5-0.6c-0.7-0.4-1.4-1.1-1.9-2c-0.6-1-0.8-2.1-0.7-3.2c0.1-1.1,0.6-2,1.3-2.9c0.7-0.9,1.6-1.6,2.6-2.2
				c0.6-0.4,1.4-0.7,2.1-0.9c0.7-0.2,1.4-0.4,2.1-0.4c0.7-0.1,1.3-0.1,1.7-0.1c0.6,0,0.8,0.3,1,0.5c0.1,0.2,0.1,0.4,0.1,0.7l0,2.9
				c0,0.4-0.2,0.7-0.5,0.9c-0.2,0.1-0.4,0.2-0.7,0.2c-0.7,0-1.3,0.1-1.9,0.2c-0.5,0.1-1.1,0.3-1.6,0.6c-0.4,0.2-0.6,0.4-0.8,0.7
				c-0.2,0.3-0.1,0.4-0.1,0.5c0.1,0.2,0.4,0.2,0.6,0.2c0.5,0,1.2-0.1,2.2-0.4c1.3-0.3,2.4-0.5,3.3-0.5c0.9,0,1.8,0.1,2.6,0.5
				c0.8,0.4,1.5,1.1,2.1,2.1c0.6,1,0.8,2.1,0.7,3.3c-0.1,1.1-0.6,2.1-1.3,3.1c-0.7,0.9-1.6,1.7-2.8,2.3c-1,0.6-2.1,1-3.3,1.3
				C53.3,146.7,52.2,146.8,51.3,146.8z M55.5,137.7c0.2,0,0.4,0,0.6,0.1c0.4,0.1,0.8,0.3,1,0.7c0.2,0.4,0.3,0.9-0.1,1.6
				c-0.3,0.5-0.7,0.9-1.3,1.2c-0.7,0.4-1.5,0.7-2.3,0.9c-0.7,0.2-1.6,0.3-2.4,0.4c-0.1,0-0.2,0-0.2,0c0,0,0,0,0,0.1l0,2.8
				c0,0.1,0,0.2,0,0.2l0,0c0,0,0,0,0,0c1.1,0.1,2.2-0.1,3.3-0.3c1.1-0.3,2.1-0.7,3.1-1.2c1-0.6,1.8-1.2,2.4-2.1
				c0.6-0.8,1-1.7,1.1-2.6c0.1-0.9-0.1-1.8-0.6-2.7c-0.4-0.8-1-1.4-1.6-1.7c-0.7-0.3-1.4-0.4-2.2-0.4c-0.8,0-1.9,0.2-3.2,0.5
				c-1.1,0.2-1.9,0.4-2.4,0.4c-0.9,0-1.3-0.4-1.5-0.7c-0.2-0.3-0.3-0.8,0.1-1.5c0.3-0.4,0.6-0.8,1.2-1.1c0.6-0.4,1.3-0.6,1.9-0.7
				c0.6-0.1,1.3-0.2,2-0.2c0.2,0,0.3,0,0.3-0.1l0-3c0-0.2,0-0.2,0-0.2h0c0,0,0,0-0.2,0c-0.4,0-0.9,0-1.5,0c-0.6,0.1-1.3,0.2-1.9,0.4
				c-0.7,0.2-1.3,0.5-1.9,0.8c-0.9,0.5-1.7,1.2-2.3,1.9c-0.6,0.7-0.9,1.6-1,2.4c-0.1,0.9,0.1,1.7,0.6,2.6c0.4,0.8,0.9,1.3,1.5,1.6
				c0.6,0.3,1.2,0.5,2,0.5c0.8,0,1.9-0.1,3-0.4c0.8-0.2,1.4-0.3,1.9-0.4C55.1,137.7,55.3,137.7,55.5,137.7z"/>
			<path class="st3" d="M60.4,130.9c-0.2,0-0.3-0.1-0.4-0.1c-0.1-0.1-0.3-0.2-0.4-0.4l-2.8-4.9c-0.2-0.3-0.2-0.6-0.1-0.7
				c0-0.2,0.2-0.4,0.5-0.6l1.7-0.9c0.4-0.2,0.7-0.1,0.8,0c0.2,0.1,0.3,0.2,0.4,0.5l2.7,5c0.1,0.2,0.2,0.5,0.1,0.7
				c0,0.2-0.1,0.4-0.4,0.5l-1.6,0.9C60.7,130.9,60.5,130.9,60.4,130.9z M57.8,125.1l2.8,4.8l1.4-0.8l-2.6-4.8L57.8,125.1z"/>
			<path class="st3" d="M71,137.2c-0.1,0-0.2,0-0.2,0c-0.2,0-0.4-0.2-0.6-0.5l-7.9-14.2c-0.3-0.5-0.1-1,0.4-1.3l2.9-1.6
				c0.3-0.2,0.6-0.2,0.7-0.1c0.2,0,0.4,0.2,0.6,0.5l7.9,14.2c0.2,0.3,0.2,0.6,0.1,0.7c0,0.2-0.2,0.4-0.5,0.6l-2.9,1.6
				C71.3,137.1,71.2,137.2,71,137.2z M63.3,122l7.8,14.1l2.8-1.6l-7.8-14.1L63.3,122z"/>
			<path class="st3" d="M78.2,133.2c-0.1,0-0.2,0-0.2,0c-0.2,0-0.4-0.2-0.6-0.5l-7.9-14.2c-0.2-0.3-0.1-0.6-0.1-0.8
				c0.1-0.2,0.2-0.4,0.5-0.6l3-1.7c0.3-0.2,0.8-0.3,1.5,0l8.7,4.4l-3.8-6.9c-0.2-0.3-0.2-0.6-0.1-0.7c0-0.2,0.2-0.4,0.5-0.6l2.9-1.6
				c0.3-0.2,0.6-0.2,0.7-0.1h0c0.2,0,0.4,0.2,0.6,0.5l7.9,14.2c0.2,0.3,0.1,0.6,0.1,0.8c-0.1,0.2-0.2,0.4-0.5,0.6l-2.8,1.5
				c-0.3,0.2-0.9,0.3-1.5,0l-9.1-4.8l4.1,7.4c0.2,0.3,0.1,0.6,0.1,0.7c-0.1,0.2-0.2,0.4-0.5,0.6l-2.9,1.6
				C78.5,133.2,78.3,133.2,78.2,133.2z M73.6,116.3c-0.1,0-0.2,0-0.2,0l-3,1.7l7.9,14.1l2.9-1.6l-5.7-10.2l12.1,6.3
				c0.3,0.1,0.4,0.1,0.6,0l2.8-1.5L83,111.1l-2.9,1.6l5.4,9.7L74,116.5C73.8,116.4,73.7,116.3,73.6,116.3z"/>
			<path class="st3" d="M94.4,122.9c-0.1,0-0.3,0-0.4,0c-0.4,0-0.7-0.2-0.9-0.5l0,0c-0.1-0.2-0.2-0.4-0.2-0.7l0-2.8
				c0-0.4,0.2-0.8,0.6-1c0.2-0.1,0.3-0.1,0.6-0.2c0.8-0.1,1.6-0.2,2.3-0.4c0.7-0.2,1.4-0.4,2-0.8c0.4-0.2,0.8-0.5,1-0.9
				c0.2-0.3,0.1-0.5,0.1-0.6c-0.1-0.1-0.2-0.2-0.3-0.2c-0.2-0.1-0.6-0.1-1,0c-0.4,0.1-1.1,0.2-1.8,0.4c-1.3,0.3-2.4,0.4-3.2,0.4
				c-1,0-1.8-0.2-2.5-0.6c-0.7-0.4-1.4-1.1-1.9-2c-0.6-1-0.8-2.1-0.7-3.2c0.1-1.1,0.6-2,1.3-2.9c0.7-0.9,1.6-1.6,2.6-2.2
				c0.6-0.4,1.4-0.7,2.1-0.9c0.7-0.2,1.5-0.4,2.1-0.4c0.7-0.1,1.2-0.1,1.7-0.1c0.6,0,0.8,0.3,1,0.5c0.1,0.2,0.1,0.4,0.1,0.7l0,2.9
				c0,0.4-0.2,0.7-0.5,0.9c-0.2,0.1-0.4,0.2-0.7,0.2c-0.7,0-1.3,0.1-1.9,0.2c-0.5,0.1-1.1,0.3-1.6,0.6c-0.4,0.2-0.6,0.4-0.8,0.7
				c-0.2,0.3-0.1,0.4-0.1,0.5c0.1,0.2,0.4,0.2,0.6,0.2c0.5,0,1.2-0.1,2.2-0.4c1.3-0.3,2.4-0.5,3.3-0.5c0.9-0.1,1.8,0.1,2.6,0.5
				c0.8,0.4,1.5,1.1,2.1,2.1c0.6,1.1,0.8,2.1,0.7,3.3c-0.1,1.1-0.6,2.1-1.3,3.1c-0.7,0.9-1.6,1.7-2.8,2.3c-1,0.6-2.2,1-3.3,1.3
				C96.4,122.7,95.4,122.9,94.4,122.9z M93.9,121.8C93.9,121.9,93.9,121.9,93.9,121.8c1.1,0.1,2.2-0.1,3.3-0.3
				c1.1-0.3,2.1-0.7,3.1-1.2c1-0.6,1.8-1.2,2.4-2.1c0.6-0.8,1-1.7,1.1-2.6c0.1-0.9-0.1-1.8-0.6-2.7c-0.4-0.8-1-1.4-1.6-1.7
				c-0.7-0.3-1.4-0.4-2.2-0.4c-0.8,0-1.9,0.2-3.2,0.5c-1.1,0.2-1.9,0.4-2.4,0.4c-0.9,0-1.3-0.4-1.5-0.7c-0.2-0.3-0.3-0.8,0.1-1.5
				c0.3-0.4,0.6-0.8,1.2-1.1c0.6-0.4,1.3-0.6,1.9-0.7c0.6-0.1,1.3-0.2,2-0.2c0.2,0,0.3,0,0.3-0.1l0-2.9c0-0.2,0-0.2,0-0.2
				c0,0,0,0-0.2,0c-0.4,0-0.9,0-1.5,0c-0.6,0.1-1.3,0.2-1.9,0.4c-0.7,0.2-1.3,0.5-1.9,0.8c-0.9,0.5-1.7,1.2-2.3,1.9
				c-0.6,0.7-0.9,1.6-1,2.4c-0.1,0.9,0.1,1.7,0.6,2.6c0.4,0.8,0.9,1.3,1.5,1.6c0.6,0.3,1.2,0.5,2,0.5c0.8,0,1.8-0.1,3-0.4
				c0.8-0.2,1.4-0.3,1.9-0.4c0.5-0.1,0.9-0.1,1.3,0c0.4,0.1,0.8,0.3,1,0.7c0.2,0.4,0.3,0.9-0.1,1.6c-0.3,0.5-0.7,0.9-1.3,1.2
				c-0.7,0.4-1.5,0.7-2.3,0.9c-0.7,0.2-1.6,0.3-2.4,0.4c-0.1,0-0.2,0-0.2,0c0,0,0,0,0,0.1l0,2.8C93.9,121.8,93.9,121.8,93.9,121.8z"
				/>
			<path class="st3" d="M109.1,116c-0.1,0-0.2,0-0.3,0c-0.2-0.1-0.5-0.2-0.7-0.6l-7.7-13.9c-0.1-0.3-0.2-0.6-0.1-0.8
				c0.1-0.3,0.3-0.5,0.5-0.7l5-2.8c1.1-0.6,2.3-0.9,3.4-1l0,0c1.1,0,2.2,0.3,3.2,0.8c1,0.6,1.8,1.4,2.4,2.6c0.6,1.1,0.9,2.2,0.9,3.3
				c0,1.1-0.4,2.2-1,3.1c-0.6,0.9-1.5,1.7-2.6,2.3l-1.4,0.8l2,3.6c0.2,0.4,0.2,0.7,0.1,0.9c-0.1,0.2-0.2,0.5-0.6,0.7l-2.6,1.5
				C109.5,116,109.3,116,109.1,116z M109.3,97.3c-1,0-1.9,0.3-2.9,0.8l-5,2.8c-0.1,0.1-0.1,0.1,0,0.2l7.7,13.9
				c0,0.1,0.1,0.1,0.1,0.1l2.7-1.5c0.1,0,0.1-0.1,0.1-0.1l-2.5-4.6l2.2-1.2c1-0.5,1.7-1.2,2.3-2c0.5-0.8,0.8-1.7,0.8-2.6
				c0-0.9-0.2-1.9-0.8-2.8c-0.5-1-1.2-1.7-2-2.2C111.1,97.5,110.2,97.3,109.3,97.3L109.3,97.3z M108,106.4l-2.5-4.5l2.1-1.2
				c0.4-0.2,0.9-0.3,1.3-0.3c0.5,0,0.9,0.1,1.3,0.4c0.4,0.2,0.7,0.6,0.9,1c0.2,0.4,0.3,0.9,0.3,1.3c0,0.4-0.1,0.9-0.4,1.3l0,0
				c-0.2,0.4-0.6,0.7-1,0.9L108,106.4z M106.9,102.2l1.5,2.7l1.2-0.7c0.3-0.1,0.5-0.3,0.6-0.6l0,0c0.1-0.2,0.2-0.5,0.2-0.8
				c0-0.3-0.1-0.5-0.2-0.8c-0.1-0.3-0.3-0.5-0.6-0.6c-0.2-0.1-0.5-0.2-0.8-0.2c-0.3,0-0.5,0.1-0.8,0.2L106.9,102.2z"/>
			<path class="st3" d="M122.5,108.6c-0.1,0-0.2,0-0.2,0c-0.2,0-0.4-0.2-0.6-0.5l-7.9-14.2c-0.2-0.3-0.2-0.6-0.1-0.7
				c0-0.2,0.2-0.4,0.5-0.6l2.9-1.6c0.5-0.3,1-0.1,1.3,0.4l7.9,14.2c0.1,0.3,0.2,0.5,0.1,0.7c0,0.2-0.2,0.4-0.5,0.6l-2.9,1.6
				C122.8,108.6,122.6,108.6,122.5,108.6z M114.7,93.5l7.8,14.1l2.8-1.6l-7.8-14.1L114.7,93.5z M125.4,106
				C125.4,106.1,125.4,106.1,125.4,106l0.4-0.2L125.4,106z"/>
			<path class="st3" d="M129.7,104.6c-0.1,0-0.2,0-0.3,0c-0.2-0.1-0.5-0.2-0.7-0.6l-7.7-13.9c-0.1-0.3-0.2-0.6-0.1-0.8
				c0.1-0.3,0.3-0.5,0.5-0.7l5.3-2.9c1.1-0.6,2.3-0.9,3.4-1c1.1,0,2.2,0.3,3.2,0.8c1,0.6,1.8,1.4,2.4,2.5c0.6,1,0.8,2,0.9,3.1
				c0,0.9-0.2,1.8-0.6,2.6l4.9,3.2c0.1,0.1,0.3,0.2,0.4,0.4l0,0c0.1,0.2,0.2,0.5,0.1,0.7c-0.1,0.3-0.2,0.5-0.5,0.6l-3.1,1.7
				c-0.2,0.1-0.5,0.2-0.7,0.2c-0.2,0-0.4-0.1-0.7-0.3l-4.3-2.8l-0.8,0.5l2.1,3.7c0.2,0.4,0.2,0.7,0.1,0.9c-0.1,0.2-0.2,0.5-0.6,0.7
				l-2.6,1.5C130.1,104.6,129.9,104.6,129.7,104.6z M130.3,85.7c0,0-0.1,0-0.1,0c-1,0-1.9,0.3-2.9,0.8l-5.3,2.9
				c-0.1,0.1-0.1,0.1,0,0.2l7.7,13.9c0,0.1,0.1,0.1,0.1,0.1l2.7-1.5c0.1,0,0.1-0.1,0.1-0.1l-2.6-4.7l2.2-1.2l4.8,3.2
				c0.2,0.1,0.3,0.1,0.3,0.1c0,0,0,0,0.1,0l3-1.7l-5.7-3.7l0.2-0.4c0.4-0.8,0.7-1.6,0.7-2.5c0-0.9-0.2-1.8-0.7-2.6
				c-0.5-1-1.2-1.7-2-2.2C132,85.9,131.2,85.7,130.3,85.7z M128.6,95l-2.6-4.6l2.4-1.3c0.8-0.5,1.8-0.5,2.6,0c0.4,0.2,0.7,0.6,0.9,1
				c0.2,0.4,0.4,0.9,0.4,1.3c0,0.5-0.1,0.9-0.3,1.3c-0.2,0.4-0.6,0.7-1,1L128.6,95z M127.5,90.8l1.6,2.9l1.5-0.8
				c0.3-0.1,0.5-0.3,0.6-0.6c0.1-0.2,0.2-0.5,0.2-0.8c0-0.3-0.1-0.6-0.2-0.9c-0.2-0.3-0.3-0.5-0.6-0.6c-0.5-0.3-1-0.3-1.6,0
				L127.5,90.8z"/>
			<path class="st3" d="M144,96.7c-0.1,0-0.2,0-0.3,0c-0.2-0.1-0.5-0.2-0.7-0.6l-7.7-13.9c-0.2-0.4-0.2-0.7-0.1-0.9
				c0.1-0.2,0.2-0.5,0.6-0.7l9.6-5.3c0.4-0.2,0.7-0.2,0.9-0.1c0.2,0.1,0.5,0.2,0.7,0.6l1.3,2.4c0.2,0.4,0.2,0.7,0.1,0.9
				c-0.1,0.2-0.2,0.5-0.6,0.7l-6.1,3.4l0.9,1.6l4.5-2.5c0.4-0.2,0.7-0.2,0.9-0.1c0.2,0.1,0.5,0.2,0.7,0.6l1.1,1.9
				c0.2,0.4,0.2,0.7,0.1,0.9c-0.1,0.3-0.3,0.5-0.6,0.7l-4.5,2.5l0.9,1.7l6.1-3.4c0.3-0.2,0.7-0.2,1-0.2c0.3,0.1,0.6,0.3,0.8,0.6
				l1.2,2.2c0.2,0.4,0.2,0.7,0.1,0.9c-0.1,0.2-0.2,0.5-0.6,0.7l-9.8,5.5C144.4,96.6,144.2,96.7,144,96.7z M136.2,81.7l7.7,13.9
				c0.1,0.1,0.1,0.1,0.2,0l9.8-5.5c0.1,0,0.1-0.1,0.1-0.1l-1.3-2.3c-0.1-0.1-0.1-0.1-0.2-0.2c0,0-0.1,0-0.3,0.1l-6.9,3.9l-1.9-3.4
				l5.4-3c0.1,0,0.1-0.1,0.1-0.1l-1.1-2c0,0,0-0.1-0.1-0.1c0,0-0.1,0-0.2,0l-5.4,3l-1.9-3.4l6.9-3.9c0.1,0,0.1-0.1,0.1-0.1
				c0,0,0,0,0-0.1l-1.3-2.4c0-0.1-0.1-0.1-0.1-0.1c0,0,0,0-0.1,0l-9.6,5.3c-0.1,0-0.1,0.1-0.1,0.1C136.2,81.6,136.2,81.6,136.2,81.7
				z"/>
			<path class="st3" d="M158,88.9c-0.1,0-0.2,0-0.3,0c-0.3-0.1-0.5-0.3-0.7-0.6l-7.7-13.9c-0.1-0.3-0.2-0.6-0.1-0.8
				c0.1-0.3,0.3-0.5,0.5-0.7L155,70c1.1-0.6,2.3-0.9,3.4-1c1.1,0,2.2,0.3,3.2,0.8c1,0.6,1.8,1.4,2.4,2.5c0.6,1,0.8,2,0.9,3.1
				c0,0.9-0.2,1.8-0.6,2.5l4.9,3.2c0.1,0.1,0.3,0.2,0.4,0.4c0.1,0.2,0.2,0.5,0.1,0.7c-0.1,0.3-0.2,0.5-0.5,0.6l-3.1,1.7
				c-0.2,0.1-0.5,0.2-0.7,0.2c-0.2,0-0.4-0.1-0.7-0.3l-4.3-2.8l-0.8,0.5l2.1,3.7c0.2,0.4,0.2,0.7,0.1,0.9c-0.1,0.2-0.2,0.5-0.6,0.7
				l-2.6,1.5C158.3,88.9,158.1,88.9,158,88.9z M158.5,70c0,0-0.1,0-0.1,0c-1,0-1.9,0.3-2.9,0.8l-5.3,2.9c-0.1,0.1-0.1,0.1,0,0.2
				l7.7,13.9c0,0.1,0.1,0.1,0.1,0.1l2.7-1.5c0.1,0,0.1-0.1,0.1-0.1l-2.6-4.7l2.2-1.2l4.8,3.2c0.2,0.1,0.3,0.1,0.3,0.1c0,0,0,0,0.1,0
				l3-1.7l-5.7-3.7l0.2-0.4c0.4-0.8,0.7-1.6,0.7-2.5c0-0.9-0.2-1.8-0.7-2.6c-0.5-1-1.2-1.7-2-2.2C160.3,70.3,159.4,70,158.5,70z
				 M168.6,82.1L168.6,82.1l0.4-0.2L168.6,82.1z M168.6,82L168.6,82L168.6,82L168.6,82z M156.9,79.4l-2.6-4.6l2.4-1.3
				c0.8-0.5,1.8-0.5,2.6,0c0.4,0.2,0.7,0.6,0.9,1c0.2,0.4,0.4,0.9,0.4,1.3c0,0.5-0.1,0.9-0.3,1.3c-0.2,0.4-0.6,0.7-1,1L156.9,79.4z
				 M155.7,75.2l1.6,2.9l1.5-0.8c0.3-0.1,0.5-0.3,0.6-0.6c0.1-0.2,0.2-0.5,0.2-0.8c0-0.3-0.1-0.6-0.2-0.9c-0.2-0.3-0.3-0.5-0.6-0.6
				c-0.5-0.3-1-0.3-1.6,0L155.7,75.2z"/>
		</g>
	</g>
	<g id="CTA_former" class="sign" transform="translate(210.006 968.721)">
		<path id="Union_21" class="st4" d="M161,623.3V136.7L13,118.6c-7-0.8-12-7.1-11.3-14c0.4-2.8,1.7-5.5,3.8-7.5l0.2-0.2l23.7-18.7
			L10.9,54.4l-0.1-0.2c-1.5-2.4-2.2-5.3-1.9-8.1c1-7,7.4-11.8,14.3-10.9l293.2,36l1.2,0.9l45.2,35.4l0.4,0.5
			c5.4,6.6,4.5,16.3-2,21.7c-0.2,0.2-0.5,0.4-0.7,0.5l-0.5,0.4l-53.8,24L180,139.1v484.2L161,623.3z"/>
		<path id="Soustraction_13" class="st5" d="M306,148.5L306,148.5L14.3,112.7c-4-0.4-6.9-4-6.5-8c0.2-1.6,0.9-3.1,2.1-4.2l27.8-21.9
			L16,50.8c-0.9-1.3-1.2-3-1-4.6c0.5-3.3,3.1-5.8,6.4-6.2c0.6-0.1,1.3-0.1,1.9,0L315,75.8l0,0l44.7,35c3.5,4.2,3,10.5-1.3,14
			c-0.2,0.1-0.3,0.3-0.5,0.4L306,148.5L306,148.5z M254.5,110.3L254.5,110.3l3.2,0.4l2.5,6.5c0.2,0.4,0.3,0.6,0.7,0.6l3.4,0.4h0.1
			c0.1,0,0.3-0.1,0.3-0.2c0.1-0.1,0.1-0.3,0-0.5l-2.8-7.3c2.3-0.9,3.9-3.1,4.1-5.6c0.3-1.9-0.2-3.8-1.4-5.3c-1.3-1.5-3-2.4-5-2.5
			l-4-0.5h-0.3c-0.4-0.1-1.1-0.1-1.8-0.2l-0.7-0.1c-0.1,0-0.1,0-0.2,0c-0.3,0-0.5,0.3-0.5,0.6l-2.4,19.3c-0.1,0.3,0.1,0.6,0.4,0.7
			h0.1l2.8,0.3c0.1,0,0.1,0,0.2,0c0.3,0,0.5-0.3,0.5-0.6L254.5,110.3z M232.3,93.5c-0.3,0-0.5,0.3-0.5,0.5l-2.4,19.3
			c-0.1,0.3,0.1,0.6,0.4,0.7h0.1l13.4,1.6c0.1,0,0.1,0,0.2,0c0.3,0,0.5-0.3,0.5-0.6l0.3-2.3c0-0.2,0-0.4-0.1-0.6
			c-0.2-0.2-0.4-0.3-0.6-0.3l-9.8-1.2l0.6-4.8l7.6,0.9c0.1,0,0.2,0,0.2,0c0.3,0,0.5-0.3,0.5-0.5l0.3-2.4c0-0.2,0-0.3-0.1-0.5
			c-0.1-0.1-0.3-0.2-0.5-0.3l-7.6-0.9l0.6-4.6l9.7,1.2c0.1,0,0.1,0,0.2,0c0.3,0,0.5-0.3,0.5-0.6l0.3-2.5c0.1-0.3-0.1-0.6-0.5-0.7
			h-0.1l-13.1-1.6C232.4,93.5,232.4,93.5,232.3,93.5z M220,99L220,99l-0.3,13.1c0,0.4,0.2,0.6,0.6,0.7l2.8,0.3c0.1,0,0.2,0,0.2,0
			c0.3,0,0.5-0.2,0.5-0.6L224,93c0-0.4-0.2-0.6-0.5-0.7l-3.6-0.4c-0.1,0-0.2,0-0.2,0c-0.3,0-0.5,0.2-0.6,0.5l-6.3,12.9l-3-14
			c0-0.4-0.3-0.6-0.6-0.7l-3.6-0.4c-0.1,0-0.1,0-0.2,0c-0.2,0-0.4,0.2-0.5,0.5l-4.5,19.1c0,0.2,0,0.3,0.1,0.5
			c0.1,0.1,0.3,0.2,0.5,0.2l2.8,0.3c0.1,0,0.1,0,0.2,0c0.3,0,0.4-0.2,0.5-0.5l2.9-12.8l2.8,12.8c0.1,0.4,0.2,0.6,0.6,0.6l2.9,0.4
			c0.1,0,0.1,0,0.2,0c0.2,0,0.4-0.2,0.5-0.5L220,99z M185.2,101.8L185.2,101.8l3.2,0.4l2.5,6.5c0.2,0.4,0.3,0.6,0.7,0.6l3.4,0.4h0.1
			c0.1,0,0.3-0.1,0.3-0.2c0.1-0.1,0.1-0.3,0-0.5l-2.8-7.3c2.3-0.9,3.9-3.1,4.1-5.6c0.3-1.9-0.2-3.8-1.4-5.3c-1.3-1.5-3-2.4-5-2.5
			l-4-0.5c-0.1,0-0.2,0-0.4,0l-0.4-0.1c-0.3,0-0.8-0.1-1.3-0.2l-0.7-0.1c-0.1,0-0.1,0-0.2,0c-0.3,0-0.5,0.3-0.5,0.6l-2.4,19.3
			c0,0.2,0,0.4,0.1,0.5s0.3,0.2,0.4,0.2l2.8,0.3c0.1,0,0.1,0,0.2,0c0.3,0,0.5-0.3,0.5-0.6L185.2,101.8L185.2,101.8z M164.1,85
			c-5.9,0.7-10,6.1-9.3,12c0.6,4.9,4.5,8.8,9.4,9.3c0.9,0.1,1.8,0.1,2.7,0c5.9-0.7,10-6.1,9.3-12c-0.6-4.9-4.5-8.7-9.4-9.3
			C165.9,84.9,165,84.9,164.1,85L164.1,85z M139.1,82c-0.3,0-0.4,0.2-0.5,0.6l-2.4,19.3c0,0.2,0,0.4,0.1,0.5s0.3,0.2,0.4,0.2
			l2.8,0.3c0.1,0,0.1,0,0.2,0c0.3,0,0.5-0.3,0.5-0.6l0.8-6.8l7.4,0.9c0.1,0,0.2,0,0.2,0c0.3,0,0.5-0.3,0.5-0.5l0.3-2.3
			c0-0.2,0-0.3-0.1-0.5c-0.1-0.1-0.3-0.2-0.5-0.2l-7.4-0.9l0.7-5.8l9.3,1.1c0.1,0,0.1,0,0.2,0c0.3,0,0.5-0.3,0.5-0.5l0.3-2.5
			c0-0.2,0-0.3-0.1-0.5c-0.1-0.1-0.3-0.2-0.5-0.2L139.4,82C139.3,82,139.2,82,139.1,82L139.1,82z M109.3,78.4
			c-0.3,0-0.5,0.3-0.5,0.5l-2.4,19.3c0,0.2,0,0.4,0.1,0.5s0.3,0.2,0.5,0.2l13.4,1.6c0.1,0,0.1,0,0.2,0c0.3,0,0.5-0.3,0.5-0.6
			l0.3-2.3c0.1-0.4-0.2-0.8-0.7-0.9h-0.1l-9.8-1.2l0.6-4.8l7.6,0.9c0.1,0,0.2,0,0.2,0c0.3,0,0.5-0.3,0.5-0.5l0.3-2.4
			c0-0.2,0-0.3-0.1-0.5c-0.1-0.1-0.3-0.2-0.5-0.3l-7.6-0.9l0.6-4.6l9.7,1.2c0.1,0,0.1,0,0.2,0c0.3,0,0.5-0.3,0.5-0.6l0.3-2.5
			c0-0.2,0-0.3-0.1-0.5c-0.1-0.1-0.3-0.2-0.5-0.2l-13.1-1.6C109.5,78.4,109.4,78.4,109.3,78.4L109.3,78.4z M87.7,91
			c-0.2,0-0.3,0.1-0.4,0.2l-1.8,2c-0.3,0.2-0.3,0.6,0,0.9l0.1,0.1c2.1,1.7,4.6,2.8,7.2,3.2c0.9,0.1,1.8,0.1,2.7,0
			c1.5-0.1,2.9-0.7,4.1-1.6c1.1-0.9,1.8-2.2,2-3.7c0.3-1.6-0.3-3.3-1.6-4.4c-1.5-1.2-3.2-2.2-5-2.9l-0.4-0.2c-1.5-0.6-3.1-1.3-3-2.7
			c0.1-0.8,0.9-1.3,2.2-1.5c0.4-0.1,0.9-0.1,1.3,0c1.5,0.2,3,0.8,4.2,1.7c0.2,0.1,0.3,0.2,0.5,0.2s0.3-0.1,0.4-0.3l1.8-2
			c0.3-0.2,0.3-0.6,0-0.9c0,0,0,0-0.1-0.1c-1.8-1.5-4.1-2.4-6.4-2.7c-0.9-0.1-1.7-0.1-2.6,0c-1.4,0.1-2.7,0.7-3.7,1.5
			c-1,0.9-1.6,2.1-1.8,3.5c-0.3,1.5,0.3,3.1,1.4,4.2c1.3,1.1,2.8,2,4.3,2.6c2.3,1,4.3,1.9,4.1,3.4c-0.1,1-1,1.6-2.5,1.8
			c-0.6,0.1-1.2,0.1-1.8,0C91,93,89.3,92.2,87.7,91C88,91,87.9,91,87.7,91L87.7,91z M259.3,106.9c-0.3,0-0.6,0-0.9,0l-3.5-0.4
			l0.8-6.3l3.5,0.4c0.9,0.1,1.6,0.5,2.2,1.2c0.5,0.7,0.7,1.5,0.6,2.4C261.9,105.6,260.8,106.7,259.3,106.9L259.3,106.9z
			 M166.4,102.3c-0.6,0.1-1.1,0.1-1.7,0c-3.6-0.4-6.2-3.7-5.8-7.3v-0.1c0.2-1.5,0.8-2.9,1.9-4c1-1,2.4-1.7,3.9-1.9
			c0.6-0.1,1.1-0.1,1.7,0c3.7,0.4,6.3,3.7,5.9,7.4C171.9,99.5,169.5,101.9,166.4,102.3z M190.1,98.4c-0.3,0-0.6,0-0.9,0l-3.5-0.4
			l0.8-6.3l3.5,0.4c0.9,0.1,1.7,0.5,2.2,1.2s0.7,1.5,0.6,2.4C192.6,97.1,191.5,98.2,190.1,98.4L190.1,98.4z"/>
	</g>
	<g id="CTA_accompagner" class="sign" transform="translate(301.654 1164.539)">
		<g id="Union_12">
			<g>
				<polygon class="st6" points="158.5,425 158.5,101.4 0,101.4 0,0 336.8,0 336.8,101.4 178.3,101.4 178.3,425 				"/>
				<path class="st3" d="M335.8,1v99.4H178.3h-1v1V424h-17.8V101.4v-1h-1H1V1H335.8 M337.8-1h-2H1h-2v2v99.4v2h2h156.5V424v2h2h17.8
					h2v-2V102.4h156.5h2v-2V1V-1L337.8-1z"/>
			</g>
		</g>
		<path id="Soustraction_31" class="st7" d="M326.3,89.5h-315v-78h315V89.5L326.3,89.5L326.3,89.5L326.3,89.5L326.3,89.5z"/>
		<g class="st2">
			<path class="st3" d="M52.7,60.6H42.3c-0.3,0-0.5-0.1-0.6-0.2s-0.2-0.3-0.2-0.6V43.3c0-0.3,0.1-0.5,0.2-0.6
				c0.1-0.1,0.3-0.3,0.7-0.3h2.6c0.3,0,0.5,0.1,0.7,0.3c0.1,0.1,0.2,0.3,0.2,0.6v13h7c0.3,0,0.5,0.1,0.6,0.2s0.2,0.3,0.2,0.6v2.4
				c0,0.3-0.1,0.5-0.3,0.7C53.2,60.4,53,60.6,52.7,60.6z M42.4,59.6l10.2,0l0-2.2l-7.9,0V43.4l-2.4,0L42.4,59.6z"/>
			<path class="st3" d="M68.3,60.6H57.2c-0.6,0-1-0.4-1-1V43.4c0-0.6,0.4-1,1-1h10.9c0.4,0,0.6,0.1,0.7,0.3c0.1,0.1,0.3,0.4,0.3,0.7
				v2.1c0,0.4-0.2,0.6-0.3,0.7s-0.4,0.3-0.8,0.3h-7.6v2.8h5.8c0.3,0,0.6,0.1,0.8,0.3c0.2,0.1,0.3,0.4,0.3,0.8v2
				c0,0.4-0.2,0.6-0.3,0.8c-0.2,0.2-0.5,0.3-0.8,0.3h-5.8v3h7.6c0.4,0,0.6,0.1,0.9,0.3c0.2,0.1,0.4,0.4,0.4,0.9l0,1.9
				c0,0.4-0.2,0.6-0.3,0.8C68.9,60.5,68.6,60.6,68.3,60.6z M57.2,43.4L57.2,43.4l0,16.1l11.2,0l0.1-2c0,0,0-0.1,0-0.1
				c0,0-0.1,0-0.2,0h-8.6v-5h6.8l0.1-2.1c0,0,0,0-0.1,0h-6.8v-4.8h8.6l0-2.1L57.2,43.4z"/>
			<path class="st3" d="M78.3,60.7c-1.2,0-2.3-0.2-3.3-0.5c-1-0.3-2.1-0.8-3.2-1.5c-0.5-0.3-0.6-0.7-0.6-0.9c0-0.2,0.1-0.4,0.2-0.6
				l1.3-1.8c0.3-0.4,0.6-0.5,0.8-0.5c0.2,0,0.4,0.1,0.6,0.2c0.5,0.3,1.2,0.6,1.9,0.9c1.2,0.4,2.6,0.5,3.7,0.2c0.4-0.1,0.8-0.3,1-0.5
				c0.2-0.2,0.3-0.4,0.3-0.7c0-0.3-0.1-0.5-0.3-0.7c-0.3-0.2-0.7-0.5-1.1-0.6c-0.5-0.2-1.1-0.4-1.9-0.6c-1.2-0.4-2.2-0.7-3-1.1
				c-0.8-0.4-1.5-1-2-1.6c-0.5-0.7-0.8-1.6-0.8-2.7c0-1.1,0.3-2.1,0.9-2.9c0.6-0.8,1.4-1.4,2.4-1.9c1.8-0.8,4.2-0.8,6.5-0.2
				c1.1,0.3,1.9,0.7,2.7,1.2c0.4,0.3,0.5,0.6,0.5,0.8c0,0.2-0.1,0.4-0.2,0.6l-1.3,1.8c-0.3,0.4-0.6,0.5-0.9,0.5
				c-0.2,0-0.4,0-0.6-0.1c-0.7-0.3-1.2-0.6-1.7-0.7c-0.5-0.1-1-0.2-1.7-0.2c-0.4,0-0.8,0.1-1.2,0.2c-0.3,0.1-0.6,0.3-0.8,0.4
				c-0.2,0.2-0.2,0.4-0.2,0.5c0,0.2,0.1,0.4,0.2,0.5c0.2,0.2,0.5,0.3,0.8,0.5c0.3,0.1,0.8,0.3,1.3,0.4l0.3,0.1
				c1.4,0.4,2.5,0.8,3.4,1.3c0.9,0.5,1.7,1,2.2,1.8c0.6,0.8,0.9,1.7,0.9,2.8c0,1.2-0.3,2.2-1,3.1c-0.7,0.9-1.6,1.5-2.7,2
				C80.7,60.5,79.5,60.7,78.3,60.7z M72.2,57.9c1.1,0.7,2.1,1.1,3,1.4c1.9,0.6,4.3,0.6,6.2-0.1c0.9-0.4,1.7-0.9,2.2-1.7
				c0.5-0.7,0.8-1.5,0.8-2.5c0-0.9-0.2-1.6-0.7-2.2c-0.5-0.6-1.1-1.1-1.9-1.5c-0.8-0.4-1.9-0.8-3.2-1.2L78.4,50
				c-0.6-0.2-1.1-0.3-1.4-0.5c-0.4-0.2-0.8-0.4-1.1-0.7c-0.4-0.3-0.6-0.8-0.6-1.2c0-0.5,0.2-0.9,0.6-1.2c0.3-0.3,0.7-0.5,1.2-0.7
				c0.5-0.1,1-0.2,1.5-0.2c0.8,0,1.4,0.1,2,0.2c0.5,0.2,1.2,0.4,1.8,0.8c0.1,0,0.1,0,0.1,0l1.3-1.9c0-0.1,0-0.1,0-0.1
				c-0.7-0.5-1.4-0.8-2.4-1.1c-2-0.6-4.2-0.5-5.8,0.1c-0.8,0.4-1.5,0.9-2,1.5C73.2,46,73,46.7,73,47.7c0,0.8,0.2,1.5,0.6,2.1
				c0.4,0.6,1,1,1.6,1.3c0.7,0.4,1.7,0.7,2.8,1c0.8,0.2,1.5,0.4,2,0.6c0.6,0.2,1,0.5,1.4,0.8c0.4,0.4,0.7,0.9,0.7,1.4
				c0,0.5-0.2,1-0.6,1.4c-0.4,0.3-0.9,0.6-1.4,0.8c-1.3,0.4-3,0.3-4.3-0.2c-0.8-0.3-1.5-0.6-2.1-1c-0.1,0-0.1,0-0.1,0L72.2,57.9
				C72.2,57.9,72.2,57.9,72.2,57.9z"/>
			<path class="st3" d="M109.6,60.6h-2.6c-0.2,0-0.5-0.1-0.7-0.2c-0.2-0.1-0.3-0.3-0.4-0.6l-0.9-2.5h-6.2L98,59.8
				c-0.1,0.2-0.2,0.4-0.4,0.6c-0.2,0.1-0.4,0.2-0.7,0.2h-2.6c-0.3,0-0.5-0.1-0.6-0.2c-0.2-0.2-0.3-0.4-0.3-0.6c0-0.2,0-0.3,0.1-0.4
				l6.4-16.1c0.1-0.2,0.2-0.4,0.4-0.6c0.2-0.1,0.4-0.2,0.7-0.2h1.9c0.2,0,0.5,0.1,0.7,0.2c0.2,0.1,0.3,0.3,0.4,0.6l6.4,16.1
				c0.1,0.1,0.1,0.3,0.1,0.4c0,0.2-0.1,0.5-0.3,0.6C110.1,60.5,109.9,60.6,109.6,60.6z M101,43.4c-0.1,0.1-0.1,0.1-0.2,0.2l-6.4,16
				l2.4,0c0.1-0.1,0.1-0.1,0.2-0.1l1.2-3.2h7.6l1.2,3.2c0,0.1,0,0.1,0.1,0.1l2.5,0l-6.4-16c0-0.1-0.1-0.1-0.1-0.1L101,43.4z
				 M105.1,54.4h-6.2l3.1-8.5L105.1,54.4z M100.3,53.4h3.4l-1.7-4.6L100.3,53.4z"/>
			<path class="st3" d="M120.1,60.9c-1.7,0-3.3-0.4-4.8-1.2c-1.4-0.8-2.6-2-3.4-3.4c-0.8-1.4-1.3-3-1.3-4.7c0-1.7,0.4-3.3,1.3-4.7
				c0.8-1.4,2-2.6,3.4-3.4c1.4-0.8,3.1-1.2,4.8-1.2c0.9,0,1.9,0.2,2.9,0.5c1,0.3,1.9,0.8,2.7,1.4c0.3,0.2,0.4,0.5,0.4,0.8
				c0,0.2-0.1,0.4-0.2,0.5l-1.3,1.9c-0.3,0.4-1,0.5-1.5,0.1c-0.4-0.3-0.9-0.6-1.5-0.8c-0.5-0.2-1-0.3-1.5-0.3
				c-0.9,0-1.8,0.2-2.6,0.7c-0.8,0.5-1.4,1.1-1.9,1.9c-0.5,0.8-0.7,1.7-0.7,2.6c0,0.9,0.2,1.8,0.7,2.6c0.5,0.8,1.1,1.4,1.9,1.9
				c0.8,0.5,1.6,0.7,2.6,0.7c0.5,0,1-0.1,1.5-0.3c0.5-0.2,1-0.5,1.5-0.8c0.5-0.4,1.2-0.3,1.5,0.1l1.3,2c0.1,0.1,0.1,0.3,0.1,0.5
				c0,0.2,0,0.3-0.1,0.5c-0.1,0.1-0.2,0.3-0.3,0.4c-0.7,0.5-1.5,1-2.6,1.3C122,60.7,121.1,60.9,120.1,60.9z M120.1,43.1
				c-1.5,0-3,0.4-4.3,1.1c-1.3,0.7-2.3,1.8-3.1,3c-0.7,1.3-1.1,2.7-1.1,4.2c0,1.5,0.4,2.9,1.1,4.2c0.7,1.3,1.8,2.3,3.1,3
				c1.3,0.7,2.7,1.1,4.3,1.1c0.8,0,1.7-0.2,2.6-0.5c0.9-0.3,1.7-0.7,2.3-1.2l0.1-0.1l-1.3-1.8c0,0-0.1,0-0.1,0
				c-0.5,0.4-1.1,0.7-1.7,0.9c-1.9,0.7-3.5,0.4-4.9-0.5c-0.9-0.5-1.7-1.3-2.2-2.2c-0.5-0.9-0.8-2-0.8-3.1c0-1.1,0.3-2.2,0.8-3.1
				c0.5-0.9,1.3-1.7,2.2-2.2c0.9-0.5,2-0.8,3.1-0.8c0.6,0,1.2,0.1,1.8,0.4c0.6,0.2,1.2,0.5,1.8,0.9l0.1,0.1l1.3-1.8
				c-0.7-0.6-1.5-1-2.4-1.3C121.8,43.3,120.9,43.1,120.1,43.1z M125.1,58.2C125.1,58.3,125.1,58.3,125.1,58.2L125.1,58.2z
				 M125.2,44.8C125.1,44.8,125.1,44.8,125.2,44.8L125.2,44.8z"/>
			<path class="st3" d="M136.4,60.9c-1.7,0-3.3-0.4-4.8-1.2c-1.4-0.8-2.6-2-3.4-3.4c-0.8-1.4-1.3-3-1.3-4.7c0-1.7,0.4-3.3,1.3-4.7
				c0.8-1.4,2-2.6,3.4-3.4c1.4-0.8,3.1-1.2,4.8-1.2c0.9,0,1.9,0.2,2.9,0.5c1,0.3,1.9,0.8,2.7,1.4c0.3,0.2,0.4,0.5,0.4,0.8
				c0,0.2-0.1,0.4-0.2,0.5l-1.3,1.9c-0.3,0.4-1,0.5-1.5,0.1c-0.4-0.3-0.9-0.6-1.5-0.8c-0.5-0.2-1-0.3-1.5-0.3
				c-0.9,0-1.8,0.2-2.6,0.7c-0.8,0.5-1.4,1.1-1.9,1.9c-0.5,0.8-0.7,1.7-0.7,2.6c0,0.9,0.2,1.8,0.7,2.6c0.5,0.8,1.1,1.4,1.9,1.9
				c0.8,0.5,1.6,0.7,2.6,0.7c0.5,0,1-0.1,1.5-0.3c0.5-0.2,1-0.5,1.5-0.8c0.5-0.4,1.2-0.3,1.5,0.1l1.3,2c0.1,0.1,0.1,0.3,0.1,0.5
				c0,0.2,0,0.3-0.1,0.5c-0.1,0.1-0.2,0.3-0.3,0.4c-0.7,0.5-1.5,1-2.6,1.3C138.3,60.7,137.4,60.9,136.4,60.9z M136.4,43.1
				c-1.5,0-3,0.4-4.3,1.1c-1.3,0.7-2.3,1.8-3.1,3c-0.7,1.3-1.1,2.7-1.1,4.2c0,1.5,0.4,2.9,1.1,4.2c0.7,1.3,1.8,2.3,3.1,3
				c1.3,0.7,2.7,1.1,4.3,1.1c0.8,0,1.7-0.2,2.6-0.5c0.9-0.3,1.7-0.7,2.3-1.2l0.1-0.1l-1.3-1.8c0,0-0.1,0-0.1,0
				c-0.5,0.4-1.1,0.7-1.7,0.9c-1.9,0.7-3.5,0.4-4.9-0.5c-0.9-0.5-1.7-1.3-2.2-2.2c-0.5-0.9-0.8-2-0.8-3.1c0-1.1,0.3-2.2,0.8-3.1
				c0.5-0.9,1.3-1.7,2.2-2.2c0.9-0.5,2-0.8,3.1-0.8c0.6,0,1.2,0.1,1.8,0.4c0.6,0.2,1.2,0.5,1.8,0.9l0.1,0.1l1.3-1.8
				c-0.7-0.6-1.5-1-2.4-1.3C138.1,43.3,137.2,43.1,136.4,43.1z M141.4,58.2C141.4,58.3,141.4,58.3,141.4,58.2L141.4,58.2z
				 M141.5,44.8C141.5,44.8,141.4,44.8,141.5,44.8L141.5,44.8z"/>
			<path class="st3" d="M152.7,60.9c-1.7,0-3.3-0.4-4.7-1.2c-1.4-0.8-2.6-2-3.4-3.4c-0.8-1.4-1.3-3-1.3-4.7c0-1.7,0.4-3.3,1.3-4.7
				c0.8-1.4,2-2.6,3.4-3.4c1.4-0.8,3-1.3,4.7-1.3s3.3,0.4,4.7,1.3c1.4,0.8,2.6,2,3.4,3.4c0.8,1.4,1.3,3,1.3,4.7
				c0,1.7-0.4,3.3-1.3,4.7c-0.8,1.4-2,2.6-3.4,3.4C156,60.5,154.4,60.9,152.7,60.9z M152.7,43.1c-1.5,0-3,0.4-4.2,1.1
				c-1.3,0.7-2.3,1.8-3,3c-0.7,1.3-1.1,2.7-1.1,4.2c0,1.5,0.4,2.9,1.1,4.2c0.7,1.3,1.8,2.3,3,3c1.3,0.7,2.7,1.1,4.2,1.1
				s3-0.4,4.2-1.1c1.3-0.7,2.3-1.8,3-3c0.7-1.3,1.1-2.7,1.1-4.2c0-1.5-0.4-3-1.1-4.2c-0.7-1.3-1.8-2.3-3-3
				C155.6,43.5,154.2,43.1,152.7,43.1z M152.7,57.5c-1.1,0-2.1-0.3-3-0.8c-0.9-0.5-1.7-1.3-2.2-2.2c-0.5-0.9-0.8-1.9-0.8-3
				c0-1.1,0.3-2.1,0.8-3.1c0.5-0.9,1.3-1.7,2.2-2.2c1.8-1.1,4.2-1.1,6.1,0c0.9,0.5,1.7,1.3,2.2,2.2c0.5,0.9,0.8,1.9,0.8,3.1
				c0,1.1-0.3,2.1-0.8,3c-0.5,0.9-1.3,1.6-2.2,2.2C154.8,57.3,153.8,57.5,152.7,57.5z M152.7,46.5c-0.9,0-1.8,0.2-2.5,0.7
				c-0.8,0.4-1.4,1.1-1.8,1.8c-0.4,0.8-0.7,1.6-0.7,2.6c0,0.9,0.2,1.8,0.7,2.5c0.4,0.8,1.1,1.4,1.8,1.8c1.5,0.9,3.6,0.9,5.1,0
				c0.8-0.4,1.4-1.1,1.8-1.8c0.4-0.8,0.7-1.6,0.7-2.5c0-0.9-0.2-1.8-0.7-2.6c-0.4-0.8-1.1-1.4-1.8-1.8
				C154.4,46.7,153.6,46.5,152.7,46.5z"/>
			<path class="st3" d="M183,60.6h-2.3c-0.4,0-0.6-0.1-0.7-0.3c-0.2-0.2-0.3-0.4-0.3-0.7l-0.9-8.6l-2.8,8.1
				c-0.1,0.3-0.2,0.4-0.3,0.6c-0.2,0.1-0.4,0.2-0.7,0.2h-2.4c-0.3,0-0.5-0.1-0.7-0.2c-0.2-0.1-0.3-0.3-0.4-0.6l-2.8-8.1l-0.9,8.5
				c0,0.3-0.1,0.5-0.3,0.7c-0.2,0.2-0.4,0.3-0.7,0.3h-2.3c-0.3,0-0.6-0.1-0.8-0.3c-0.1-0.1-0.3-0.4-0.3-0.8l1.8-16.1
				c0.1-0.6,0.5-0.9,1-0.9h3c0.3,0,0.5,0.1,0.7,0.2c0.2,0.2,0.3,0.4,0.4,0.6l3.4,9.8l3.4-9.8c0.1-0.2,0.2-0.4,0.4-0.6
				c0.2-0.2,0.4-0.2,0.7-0.2h3c0.6,0,0.9,0.3,1,0.9l1.8,16.1c0,0.4-0.1,0.7-0.3,0.8C183.6,60.5,183.4,60.6,183,60.6z M179.4,46.5
				l1.3,13c0,0.1,0,0.1,0,0.1l2.3,0l0,0l-1.8-16.1c0-0.1,0-0.1,0-0.1l-3,0c-0.1,0-0.1,0-0.1,0.1l-4.4,12.6l-4.4-12.6
				c0-0.1,0-0.1-0.1-0.1l-3.1,0c0,0,0,0,0,0.1l-1.8,16.1l2.3,0c0,0,0,0,0-0.1l1.3-13l4.3,12.4c0,0.1,0.1,0.2,0.1,0.2l2.4,0
				c0,0,0,0,0.1-0.1L179.4,46.5z"/>
			<path class="st3" d="M190,60.6h-2.3c-0.4,0-0.6-0.2-0.7-0.3c-0.2-0.2-0.3-0.4-0.3-0.7V43.5c0-0.3,0.1-0.5,0.3-0.7
				c0.2-0.2,0.4-0.3,0.7-0.3h5.5c1.2,0,2.4,0.3,3.4,0.8c1,0.5,1.8,1.3,2.3,2.2c0.5,1,0.8,2.1,0.8,3.3c0,1.2-0.3,2.3-0.8,3.3
				c-0.6,0.9-1.3,1.7-2.3,2.2c-1,0.5-2.1,0.8-3.4,0.8H191v4.5c0,0.4-0.2,0.6-0.3,0.8C190.6,60.4,190.4,60.6,190,60.6z M187.7,43.4
				l0,16.1l2.3,0l0-5.5h3.1c1.1,0,2.1-0.2,2.9-0.7c0.8-0.4,1.5-1.1,1.9-1.8c0.5-0.8,0.7-1.7,0.7-2.8c0-1.1-0.2-2-0.7-2.8
				c-0.5-0.8-1.1-1.4-1.9-1.9c-0.8-0.4-1.8-0.7-2.9-0.7H187.7z M193.1,51.8H190v-6.2h3.1c0.6,0,1.1,0.1,1.6,0.4
				c0.5,0.3,0.9,0.6,1.1,1.1c0.3,0.5,0.4,1,0.4,1.6c0,0.6-0.1,1.1-0.4,1.6c-0.3,0.5-0.7,0.8-1.1,1.1
				C194.3,51.7,193.7,51.8,193.1,51.8z M191,50.8h2.1c0.4,0,0.8-0.1,1.1-0.3c0.3-0.2,0.6-0.4,0.8-0.7c0.2-0.3,0.3-0.7,0.3-1.1
				c0-0.4-0.1-0.8-0.3-1.1c-0.2-0.3-0.4-0.6-0.8-0.7c-0.3-0.2-0.7-0.3-1.1-0.3H191V50.8z"/>
			<path class="st3" d="M214.8,60.6h-2.6c-0.2,0-0.5-0.1-0.7-0.2c-0.2-0.1-0.3-0.3-0.4-0.6l-0.9-2.5h-6.2l-0.9,2.5
				c-0.1,0.2-0.2,0.4-0.4,0.6c-0.2,0.1-0.4,0.2-0.7,0.2h-2.6c-0.3,0-0.5-0.1-0.6-0.2c-0.2-0.2-0.3-0.4-0.3-0.6c0-0.2,0-0.3,0.1-0.4
				l6.4-16.1c0.1-0.2,0.2-0.4,0.4-0.6c0.2-0.1,0.4-0.2,0.7-0.2h1.9c0.2,0,0.5,0.1,0.7,0.2c0.2,0.1,0.3,0.3,0.4,0.6l6.4,16.1
				c0.1,0.1,0.1,0.3,0.1,0.4c0,0.2-0.1,0.5-0.3,0.6C215.3,60.5,215,60.6,214.8,60.6z M206.2,43.4c-0.1,0.1-0.1,0.1-0.2,0.2l-6.4,16
				l2.4,0c0.1-0.1,0.1-0.1,0.2-0.1l1.2-3.2h7.6l1.2,3.2c0,0.1,0,0.1,0.1,0.1l2.5,0l-6.4-16c0-0.1-0.1-0.1-0.1-0.1L206.2,43.4z
				 M210.2,54.4H204l3.1-8.5L210.2,54.4z M205.5,53.4h3.4l-1.7-4.6L205.5,53.4z"/>
			<path class="st3" d="M225.3,60.9c-1.7,0-3.3-0.4-4.8-1.2c-1.4-0.8-2.6-2-3.4-3.4c-0.8-1.4-1.3-3-1.3-4.7s0.4-3.3,1.3-4.7
				c0.8-1.4,2-2.6,3.4-3.4c2.2-1.3,4.8-1.7,7.7-0.8c1,0.3,1.9,0.8,2.6,1.4c0.2,0.2,0.4,0.5,0.4,0.8c0,0.2-0.1,0.4-0.2,0.6l-1.3,2
				c-0.3,0.5-1,0.6-1.4,0.2c-0.4-0.4-0.9-0.6-1.4-0.8c-1.6-0.5-3-0.3-4.2,0.4c-0.8,0.4-1.4,1.1-1.9,1.8c-0.4,0.8-0.7,1.6-0.7,2.5
				c0,0.9,0.2,1.8,0.7,2.5c0.4,0.8,1.1,1.4,1.8,1.8c0.8,0.4,1.6,0.7,2.6,0.7c0.3,0,0.7-0.1,1.2-0.2c0.4-0.1,0.7-0.2,0.9-0.4v-3.4
				c0-0.3,0.1-0.5,0.3-0.7c0.2-0.2,0.4-0.3,0.7-0.3h2.2c0.3,0,0.5,0.1,0.7,0.3c0.2,0.2,0.3,0.4,0.3,0.7v5.6c0,0.2,0,0.4-0.1,0.5
				c-0.1,0.2-0.2,0.3-0.4,0.4c-0.7,0.5-1.6,0.9-2.7,1.2C227.3,60.7,226.2,60.9,225.3,60.9z M225.3,43.1c-1.6,0-3,0.4-4.3,1.1
				c-1.3,0.7-2.3,1.8-3.1,3c-0.7,1.3-1.1,2.7-1.1,4.2c0,1.5,0.4,3,1.1,4.2c0.7,1.3,1.8,2.3,3.1,3c1.3,0.7,2.7,1.1,4.3,1.1
				c0.8,0,1.8-0.2,2.8-0.4c1-0.3,1.8-0.7,2.5-1.1c0-0.1,0-0.1,0-0.1v-5.6l-2.2,0l0,4l-0.2,0.1c-0.4,0.2-0.9,0.4-1.4,0.6
				c-0.6,0.2-1,0.2-1.5,0.2c-1.1,0-2.2-0.3-3.1-0.8c-0.9-0.5-1.7-1.3-2.2-2.2c-0.5-0.9-0.8-1.9-0.8-3c0-1.1,0.3-2.1,0.8-3
				c0.5-0.9,1.3-1.7,2.2-2.2c1.4-0.8,3.1-1.1,5-0.5c0.7,0.2,1.3,0.5,1.8,1l1.3-2c-0.7-0.5-1.4-0.9-2.3-1.2
				C227,43.3,226.1,43.1,225.3,43.1z"/>
			<path class="st3" d="M249.4,60.6h-2.4c-0.5,0-0.9-0.2-1.2-0.7l-7.1-10.3v10.1c0,0.3-0.1,0.5-0.2,0.6s-0.3,0.2-0.6,0.2h-2.6
				c-0.3,0-0.5-0.1-0.6-0.2s-0.2-0.3-0.2-0.6V43.3c0-0.3,0.1-0.5,0.2-0.6c0.1-0.1,0.3-0.3,0.7-0.3h2.7c0.3,0,0.8,0.1,1.2,0.7
				l6.9,9.8v-9.6c0-0.3,0.1-0.5,0.2-0.6c0.1-0.1,0.3-0.3,0.7-0.3h2.6c0.3,0,0.5,0.1,0.7,0.3c0.1,0.1,0.2,0.3,0.2,0.6v16.4
				c0,0.3-0.1,0.5-0.2,0.6S249.7,60.6,249.4,60.6z M237.7,46.4l8.9,13c0.1,0.2,0.2,0.2,0.3,0.2h2.3l0-16.1l-2.4,0l0,12.7l-8.7-12.4
				c-0.2-0.3-0.3-0.3-0.3-0.3h-2.6l0,16.1l2.3,0L237.7,46.4z"/>
			<path class="st3" d="M265.8,60.6h-11.1c-0.6,0-1-0.4-1-1V43.4c0-0.6,0.4-1,1-1h10.9c0.4,0,0.6,0.1,0.7,0.3
				c0.1,0.1,0.3,0.4,0.3,0.7v2.1c0,0.4-0.2,0.6-0.3,0.7s-0.4,0.3-0.8,0.3H258v2.8h5.8c0.3,0,0.6,0.1,0.8,0.3
				c0.2,0.1,0.3,0.4,0.3,0.8v2c0,0.4-0.2,0.6-0.3,0.8c-0.2,0.2-0.5,0.3-0.8,0.3H258v3h7.6c0.4,0,0.6,0.1,0.9,0.3
				c0.2,0.1,0.4,0.4,0.4,0.9l0,1.9c0,0.4-0.2,0.6-0.3,0.8C266.4,60.5,266.1,60.6,265.8,60.6z M254.7,43.4L254.7,43.4l0,16.1l11.2,0
				l0.1-2c0,0,0-0.1,0-0.1c0,0-0.1,0-0.2,0H257v-5h6.8l0.1-2.1c0,0,0,0-0.1,0H257v-4.8h8.6l0-2.1L254.7,43.4z"/>
			<path class="st3" d="M282.1,60.6h-2.8c-0.2,0-0.5-0.1-0.6-0.2c-0.2-0.1-0.3-0.3-0.4-0.5l-2.5-4.9h-1.9v4.5c0,0.4-0.2,0.6-0.3,0.8
				c-0.1,0.1-0.4,0.3-0.7,0.3h-2.3c-0.4,0-0.6-0.2-0.7-0.3c-0.2-0.2-0.3-0.4-0.3-0.7V43.5c0-0.3,0.1-0.5,0.3-0.7
				c0.2-0.2,0.4-0.3,0.7-0.3h5.7c1.2,0,2.4,0.3,3.3,0.8c1,0.5,1.8,1.3,2.3,2.2c0.5,1,0.8,2.1,0.8,3.3c0,1.2-0.3,2.3-0.8,3.2
				c-0.5,0.8-1.1,1.5-1.9,2l2.8,5.3c0.1,0.1,0.1,0.3,0.1,0.4c0,0.2-0.1,0.5-0.2,0.6C282.6,60.5,282.3,60.6,282.1,60.6z M282,59.7
				h0.5H282L282,59.7z M272.8,54h3.5l2.8,5.4c0.1,0.1,0.1,0.2,0.1,0.2l2.7,0l-3.2-6l0.4-0.2c0.8-0.4,1.4-1.1,1.9-1.8
				c0.5-0.8,0.7-1.7,0.7-2.7c0-1.1-0.2-2-0.7-2.8c-0.5-0.8-1.1-1.4-1.9-1.9c-0.8-0.4-1.8-0.7-2.9-0.7h-5.7l0,16.1l2.3,0L272.8,54z
				 M276.2,51.8h-3.4v-6.2h3.4c0.6,0,1.1,0.1,1.6,0.4c0.5,0.3,0.9,0.6,1.1,1.1c0.3,0.5,0.4,1,0.4,1.6c0,0.6-0.1,1.1-0.4,1.6
				c-0.3,0.5-0.7,0.9-1.1,1.1C277.3,51.7,276.8,51.8,276.2,51.8z M273.8,50.8h2.4c0.4,0,0.8-0.1,1.1-0.3c0.3-0.2,0.6-0.4,0.8-0.7
				c0.2-0.3,0.3-0.7,0.3-1.1c0-0.4-0.1-0.8-0.3-1.1c-0.2-0.3-0.4-0.6-0.8-0.7c-0.3-0.2-0.7-0.3-1.1-0.3h-2.4V50.8z"/>
		</g>
	</g>
</g>
</svg>
