<svg xmlns="http://www.w3.org/2000/svg" width="1265.114" height="934.467" viewBox="0 0 1265.114 934.467">
  <g id="Lignes_topos_1" data-name="Lignes topos 1" transform="translate(0.457 0.121)">
    <path id="Path_1260" data-name="Path 1260" d="M1272.88,1103.453q-31.311-22.019-64.725-43.172c-9.349-5.911-18.9-11.676-28.144-17.251-22.426-13.531-45.615-27.522-66.921-44.307-8-6.3-16.05-12.834-23.834-19.151-19.861-16.116-40.4-32.78-62.058-47.2-58.749-39.12-123.881-52.717-185.557-63.293-5.525-.948-11.215-1.824-16.719-2.673-27.021-4.165-54.964-8.472-79.466-23.155-14.374-8.613-26.162-20.36-37.564-31.719-10.466-10.432-21.29-21.218-34.024-29.45-19.85-12.832-59.608-35.392-82.718-38.561-19.607-2.691-30.929,7.97-35.661,33.533-5.439,29.365,4.1,59.458,13.313,88.561,8.678,27.389,17.649,55.711,14.415,83.755-5.472,47.406-30.852,102.728-67.9,147.984-19.614,23.963-39.3,47.339-58.506,69.481-19.061,21.972-40.671,32.878-66.059,33.344-26.562.509-50.976-13.515-74.56-27.058l-3.158-1.812c-10.821-6.2-22.229-12.005-33.258-17.62-19.378-9.865-39.413-20.066-57.285-32.865-27.594-19.763-93.916-71.952-113.753-129.592-16.84-48.93,6.2-92.3,28.475-134.233,4.876-9.182,9.485-17.855,13.659-26.565,9.9-20.661,15.7-43,21.307-64.6,2.384-9.181,4.847-18.675,7.608-27.986,5.482-18.5,13.968-35.392,22.172-51.728,4.582-9.123,9.323-18.558,13.522-28.224,6.241-14.368,9.832-30.912,13.305-46.909,8.021-36.956,16.315-75.169,57.973-88.3,11.793-3.718,29.472-7.6,46.736-4.98a76.447,76.447,0,0,1,13.11,3.68c5.334,1.841,10.847,3.747,16.213,3.962,27.548,1.165,32.752-22.957,35.7-47.707,1.212-10.163,2.788-20.229,4.311-29.963,4.99-31.875,9.765-62.432,1.953-94.531" transform="translate(-8.554 -353.142)" fill="none" stroke="#fff" stroke-miterlimit="10" stroke-width="1"/>
    <path id="Path_1261" data-name="Path 1261" d="M1277.7,1120.03c-34.878-24.4-73.709-48.914-119.247-75.471-24.31-14.179-48.269-29.759-71.439-44.826-45.341-29.487-92.226-59.976-143.408-80.951-38.941-11.891-79.316-19.949-118.363-27.742-32.562-6.5-66.235-13.219-98.95-22.134-3.756-1.024-7.683-2.331-11.84-3.712-16.091-5.346-34.323-11.406-46.206-1.249-5.212,4.454-8.673,13.069-11.728,20.669-1.4,3.478-2.717,6.762-4.121,9.494-3.116,6.054-6.363,12.155-9.5,18.054-5.418,10.177-11.018,20.7-16.107,31.3-28.523,59.426-67.722,117.033-123.363,181.293-3.727,4.3-7.517,8.874-11.531,13.71-33.643,40.549-75.51,91.016-138.715,56.887-19.093-10.31-37.71-22.659-55.714-34.6-16.517-10.958-33.6-22.286-51.071-32.068-21.848-12.231-39.487-27.329-58.16-43.315-8.564-7.331-17.421-14.913-26.659-22.129-32.757-25.589-53.048-47.281-66.438-88.565-9.924-30.6-10.188-56.8-.854-84.963,9.4-28.361,22.747-55.824,35.649-82.38l.333-.683c6.807-14,13.234-27.23,13.19-43.347-.013-4.788-.292-9.165-.563-13.4-.624-9.789-1.214-19.034,1.936-30.149,6.669-23.526,18.044-45.762,29.046-67.267,5.224-10.21,10.625-20.77,15.4-31.247,9.483-20.81,14.653-41.543,20.13-63.494,2.782-11.154,5.658-22.688,9.139-34.136,7.94-26.119,27.307-63.117,51.065-82.631,9.122-7.49,20.2-11.836,30.919-16.04,13.77-5.4,28.009-10.985,37.765-23.3,12.042-15.2,16.867-33.832,14.339-55.365a110.937,110.937,0,0,0-2.559-13.813" transform="translate(-13.372 -332.461)" fill="none" stroke="#fff" stroke-miterlimit="10" stroke-width="1"/>
    <path id="Path_1262" data-name="Path 1262" d="M1281.974,1135.561c-7.225-5.313-14.509-10.487-21.858-15.455-49.931-33.748-104.8-61.049-157.872-87.45-19.128-9.518-38.908-19.358-58.134-29.342-6.989-3.63-13.891-7.752-20.567-11.742-10.484-6.264-21.324-12.739-32.709-17.421a252.4,252.4,0,0,0-26.053-8.565c-7.112-2.054-14.467-4.177-21.572-6.809-12.411-4.6-24.864-9.729-36.907-14.692-15.8-6.512-32.133-13.244-48.549-18.839-81.2-27.675-137.719-26.6-172.795,3.3-15.515,13.217-28.155,30.346-40.377,46.91-6.337,8.584-12.89,17.463-19.7,25.572-8.979,10.7-17.836,21.831-26.4,32.6-11.7,14.707-23.8,29.916-36.4,44.255-8.23,9.367-16.77,18.568-25.031,27.468-13.825,14.893-28.121,30.3-41.163,46.719-15.345,19.32-33.87,40.852-59.616,51.831-49.366,21.055-93.164-9.245-135.522-38.547-11.755-8.131-23.91-16.539-35.775-23.484-28.789-16.85-53.04-35.96-78.714-56.192-8.105-6.388-16.488-12.994-25.017-19.516-5.419-4.143-10.817-7.958-16.041-11.647-18.293-12.924-35.571-25.13-46.309-46.951-29.784-60.526-32.961-114.682-10.3-175.6,11.1-29.842,21.679-62.559,23.88-99.554,1.849-31.1,9.063-55.9,24.9-85.581,4.536-8.505,9.419-17.01,14.143-25.239,12.5-21.775,25.427-44.29,33.155-68.908,4.732-15.074,8.383-30.819,11.912-46.047,3.279-14.133,6.666-28.746,10.914-42.815,4.31-14.273,12.487-28.6,20.394-42.446,10.109-17.709,20.564-36.023,23.472-54.875,1.271-8.235,3.317-16.609,5.485-25.477,1.8-7.373,3.624-14.841,5-22.307" transform="translate(-17.648 -318.716)" fill="none" stroke="#fff" stroke-miterlimit="10" stroke-width="1"/>
    <path id="Path_1263" data-name="Path 1263" d="M1289.8,1157.78c-62.206-47.707-134.55-91.958-215.226-122.3l-2.448-.921c-31.05-11.683-63.158-23.763-95.6-31-6.657-1.485-13.376-2.8-19.877-4.068-24.521-4.794-47.68-9.32-70.247-22.69-59.507-35.261-121.452-63.061-171.374-28.039-8.451,5.927-15.623,13.743-22.559,21.3a195.069,195.069,0,0,1-16.882,16.943c-3.043,2.589-6.093,5.132-9.133,7.667-10.037,8.371-19.518,16.279-28.5,25.463-8.047,8.223-16.125,16.664-23.938,24.828-12.827,13.4-26.088,27.261-39.584,40.541-12.993,12.786-25.162,27.984-36.932,42.679-24.105,30.1-49.033,61.228-84.5,77.492-59.584,27.32-115.7-7.592-157.934-41.058-14.48-11.474-30.072-21.758-45.15-31.7-17.335-11.434-35.26-23.257-51.675-36.994-3-2.514-5.986-5.064-8.969-7.613-9.806-8.379-19.944-17.044-30.823-24.33a206.691,206.691,0,0,0-20.907-11.745c-8.656-4.43-17.6-9.011-25.477-14.966C87.614,1018.786,77.85,987.133,69.236,959.2c-1.007-3.262-1.992-6.458-2.98-9.556-1.39-4.365-2.87-8.728-4.437-13.349C53.27,911.085,44.43,885.014,50.8,861.113c3.266-12.271,7.953-23.89,12.484-35.129,5.906-14.647,12.013-29.792,14.947-46.395,2.458-13.907,4.181-28.254,5.845-42.127,1.886-15.717,3.837-31.969,6.871-47.714,6.721-34.906,21.855-60.462,40.939-90.243,17.785-27.755,28.668-62.169,37.472-92.251,5.053-17.253,6.69-35.439,8.273-53.027,1.2-13.309,2.437-27.071,5.138-40.443,1.618-8.005,3.786-16.322,5.883-24.364,5.427-20.827,11.042-42.362,8.765-63.316-.811-7.456-1.115-14.86-1.347-22.094" transform="translate(-25.475 -304.012)" fill="none" stroke="#fff" stroke-miterlimit="10" stroke-width="1"/>
    <path id="Path_1264" data-name="Path 1264" d="M1295.3,1177.745c-28.924-25.531-59.25-49.359-94.73-70.226-71.116-41.824-138.134-66.386-204.885-75.088-35.728-4.657-69.609-18.038-102.374-30.979-32.5-12.836-66.1-26.108-101.394-30.79-37.84-5.023-58.189,2.683-86.959,20.73-23.759,14.9-44.907,33.472-65.359,51.427-5.388,4.729-10.958,9.621-16.493,14.371-28.19,24.2-57.906,50.463-84.1,82.04-3.548,4.276-7.129,8.773-10.592,13.122-15.111,18.972-30.735,38.591-51.883,51.238-22.432,13.414-50.754,19.287-79.749,16.539a156.158,156.158,0,0,1-80.225-31.7c-15.547-12.1-31.16-24.69-46.258-36.869-17.245-13.91-35.079-28.294-52.959-42.057-6.224-4.791-12.383-9.848-18.9-15.2-18.215-14.959-37.051-30.427-57.256-39.66C73.321,1023.628,58,971.4,40.264,910.931q-2.123-7.226-4.315-14.6c-10.344-34.553-2.812-57.659,6.725-86.91q1.133-3.476,2.3-7.091c4.6-14.285,6.159-29.481,7.671-44.177,1.34-13.048,2.728-26.541,6.226-39.446,4.281-15.8,7.036-32.333,9.7-48.324,2.7-16.23,5.5-33.012,9.889-49,4.476-16.3,14.373-28.45,23.943-40.2,8.181-10.045,16.642-20.432,21.587-33.328,9.822-25.624,14.23-57.756,18.12-86.1q.781-5.7,1.552-11.217c4.554-32.238.884-62.955-3.306-88.751-2.568-15.819-.9-33.828.7-51.24.723-7.817,1.452-15.745,1.807-23.538" transform="translate(-30.974 -287.006)" fill="none" stroke="#fff" stroke-miterlimit="10" stroke-width="1"/>
  </g>
</svg>
