<svg xmlns="http://www.w3.org/2000/svg" width="933.375" height="765.453" viewBox="0 0 933.375 765.453">
  <g id="Lignes_topo_4" data-name="Lignes topo 4" transform="translate(-46.406 -292.556)">
    <path id="Path_1281" data-name="Path 1281" d="M496.782,293c-1.252,1.986-2.457,4-3.6,6.043a75.845,75.845,0,0,0-8.513,23.383c-2.834,16.23.543,29.043,17.809,39.006,11.961,6.933,25.257,10.365,38.515,13.485q33.528,7.788,67.273,14.834a152.58,152.58,0,0,0,52.2,2,299.551,299.551,0,0,0,48.536-10.7c8.2-2.558,16.886-3.566,25.209-5.606,18.777-4.728,37.421-2.81,55.773,2.031,22.345,5.835,40.557,18.482,55.146,36.972,11.72,14.856,19.752,31.6,26.775,48.925,7.377,18.182,13.8,36.737,15.374,56.524,1.765,21.763-3.834,41.137-19.949,56.056-14.657,13.564-30.177,26.057-45.027,39.43-21.519,19.35-39.942,41.565-53.381,67.434-8.428,16.2-14.974,33.708-15.307,52.334-.375,22.061,3.81,43.444,16.854,62.022,8.516,12.065,17.277,23.916,25.728,36.032,7.531,10.718,14.142,22.327,16.639,35.124,1.8,9.315-.926,19.146-4.907,28.162-5.115,11.548-12.625,21.128-21.486,29.879-17.961,17.712-38.095,31.758-61.648,41.2-18.676,7.551-37.033,7.126-55.826,2-14.416-3.906-27.227-11.64-39.845-19.5-13.69-8.562-26.846-18.041-40.823-25.982a178.918,178.918,0,0,0-69.244-22.41c-24.365-2.666-48.889-4.14-73.259-6.928-28.879-3.319-56.6-10.632-81.728-26.707-11.94-7.652-22.67-16.7-32.967-26.324-16.8-15.709-33.656-31.418-49.76-47.831-22.46-22.9-40.359-49.006-51.219-79.706-4.8-13.581-8.2-27.538-9.1-41.843-1.169-18.913.559-37.759,3.044-56.448,3.295-24.951,8.575-49.643,9.048-74.963.353-18.252-1.458-36.442-8.97-53.17a57.607,57.607,0,0,0-15.607-20.424c-11.45-9.6-24.1-16.71-37.768-22.387-20.035-8.361-37.608-20.417-50.063-38.9-4.61-6.786-8.509-14.116-9.265-22.6-1.772-19.435,12.818-35.89,31.674-33.455,10.355,1.329,19.437,5.425,28.4,10.33,9.039,5.024,17.569,11.3,27.118,14.783,15.067,5.478,29.656,2.22,40.664-9.593,8.137-8.723,15.522-18.506,18.477-30.782a67.48,67.48,0,0,0-.094-32.211c-.776-3.262-3.182-6.019-2.182-9.019" fill="none" stroke="#fff" stroke-miterlimit="10" stroke-width="1" fill-rule="evenodd"/>
    <path id="Path_1282" data-name="Path 1282" d="M466.008,293Q460.4,300.3,455,307.756c-7.494,10.337-14.855,21.022-18.358,33.58-3.142,11.229-3.809,22.878,4.441,32.434A46.577,46.577,0,0,0,455.836,385.2c11.62,5.559,24.431,6.187,37.035,7.155,12.859.982,25.733,1.7,38.577,2.62,25.623,1.877,50.585,8.005,75.715,13,15.395,3.06,30.888,4.68,46.77,3.484,13.363-.973,26.088-3.815,38.813-7.572,13.684-3.989,27.288-8.652,41.224-11.562,20.7-4.379,41.362-3.165,61.353,5.036,27.686,11.371,43.059,34.036,54.027,60.711,5.041,12.256,8.9,24.938,10.161,38.083,2.426,25.142-2.117,49.007-17.672,69.156-8.268,10.63-18.377,19.828-28.026,29.3-18.23,17.894-35.529,36.619-50.219,57.7a186.473,186.473,0,0,0-29.83,69.377c-3.178,15.205-2.412,30.543.712,45.556a111.915,111.915,0,0,0,15.567,37.955q13.354,20.734,25.63,42.177c14.569,25.578,5.332,50.99-12.071,68.113a115.015,115.015,0,0,1-51.65,29.437,62.3,62.3,0,0,1-23.681,1.135c-12.172-1.725-24.438-4.023-35.623-9.988-16.386-8.809-32.754-17.684-49.388-26.019a219.282,219.282,0,0,0-86.629-22.753c-23.488-1.3-47.051-2.721-70.506-5.081-28.962-2.948-56.368-11.465-79.87-29.756-14.8-11.5-28.8-24.127-42.766-36.739-16.393-14.8-32.373-30.088-46.737-47.04-15.014-17.789-25.322-37.948-32.67-59.972-7.248-21.746-7.14-43.749-4.111-65.864,3.729-27.241,11.279-53.469,19.486-79.586a617.093,617.093,0,0,0,16.93-66.131c3.522-17.944,3.942-36.456,6.219-54.662a229.987,229.987,0,0,1,12.039-48.918c5.359-14.885,12.292-29.424,13.71-45.417,1.788-19.685-2.528-37.941-12.012-55.129" fill="none" stroke="#fff" stroke-miterlimit="10" stroke-width="1" fill-rule="evenodd"/>
    <path id="Path_1283" data-name="Path 1283" d="M519.186,293a92.684,92.684,0,0,0-5.4,15.144c-3.249,12.449-.713,27.092,11.819,37.426,12.624,10.317,27.36,15.249,42.168,19.952a334.471,334.471,0,0,0,36.423,9.14c10.934,2.163,22.074,4,33.169,4.244a218.249,218.249,0,0,0,35.781-2.7c9.383-1.334,18.458-4.4,27.653-6.6,7.573-1.82,15.169-3.549,22.753-5.127,6.618-1.371,13.2-3.152,19.923-3.664,33.7-2.3,65.468,4.032,92.528,26.005,15.735,12.835,28.033,29.109,37.588,47.263,6.6,12.495,12.75,25.231,18.906,37.925l10.857,26c4.2,11.774,9.243,23.3,10.362,35.988.966,10.286,2.611,19.43-1.943,28.686,0,0-8.085,12.417-15.056,18.064s-14.5,11.09-24.205,18.348c-14.274,10.692-29.662,19.911-43.494,31.139-15.363,12.446-27.847,27.887-38.433,44.836-12.039,19.288-20.795,39.448-20.569,63,.107,13.709,1.565,27.288,7.777,39.354,5.941,11.626,13.91,22.284,21.562,32.958,8.967,12.506,19.128,24.114,27.673,36.905,9.887,14.713,11.812,30.947,4.56,47.525a103.4,103.4,0,0,1-21.228,30.948c-24.922,25.376-51.258,48.715-84.331,62.546-10.528,4.411-21.514,8.045-33.158,7.139-17.508-1.34-34.048-5.939-49.536-14.966-18.146-10.609-34.46-23.738-51.318-36.2-8.1-6.03-16.579-11.822-25.609-16.207-22.692-10.961-46.828-16.645-71.809-19.153-27.053-2.7-54.181-4.55-80.934-10.162-24.464-5.143-46.927-15.061-66.534-30.331-17.426-13.6-33.432-29.244-49.526-44.54-25.551-24.361-49.76-49.848-66.261-81.83-8.962-17.349-16.4-35.269-20.475-54.393-3.455-16.362-4.069-33.115-3.688-49.8.491-21.862,3.186-43.681,1.127-65.568-1.155-12.1-2.019-24.425-5.1-36.129-3.965-14.908-13.143-27.289-24.27-37.691-16.757-15.632-34.326-30.451-50.926-46.243-15.76-15.027-29.928-31.258-39.541-51.576-7.888-16.764-7.521-33.236-2.048-49.514,6.931-20.709,21.054-36.383,38.507-48.879A122.392,122.392,0,0,1,140.165,293" fill="none" stroke="#fff" stroke-miterlimit="10" stroke-width="1" fill-rule="evenodd"/>
    <path id="Path_1284" data-name="Path 1284" d="M543.281,293q-.659,1.7-1.206,3.481c-4.528,14.555-1.012,29.439,11.273,39.675,16,13.371,34.938,18.688,53.975,24.113a118.745,118.745,0,0,0,43.255,3.613c6.891-.59,13.876-.644,20.633-1.863,11.819-2.18,23.447-5.146,35.172-7.715,4.946-1.089,9.9-2.206,14.889-2.989,7.284-1.171,14.662-1.981,22.019-3.03,9.858-1.418,19.711-.875,29.6.191a139.872,139.872,0,0,1,63.8,23.034c15.1,10.04,26.028,24.182,37.155,38.175a190.4,190.4,0,0,1,11.505,17.1l11.44,19.151c13.256,24.29,27.307,48.081,40.151,72.553,11.141,21.184,7.777,47.548-4.522,61.544s-23.471,20.483-23.471,20.483c-11.52,6.289-23.223,12.291-34.637,18.773-24.766,14.055-47.916,29.909-64.682,54.164-13.745,19.833-24.039,40.279-23.319,65.536.346,11.747,2.186,22.972,6.972,33.287,8.789,18.792,22.8,33.953,36.548,49.1,10.109,11.138,19.75,22.549,26.435,36.37,5.859,12.062,4.454,23.647.042,35.317-5.96,15.789-17.183,27.8-28.879,39.094q-24.6,23.713-50.346,46.2c-11.782,10.322-23.972,20.213-37.921,27.607-16.469,8.649-32.988,14.949-52.456,12.468-23.814-3.06-44.354-13.235-63.072-27.273-17.112-12.787-32.953-27.379-49.587-40.878-20.582-16.73-44.932-24.592-70.237-29.323-16.253-3.045-32.823-4.45-49.251-6.534-25.513-3.193-51.018-6.156-75.119-16.326-18.316-7.709-35.723-17.2-50.363-30.768-19.78-18.231-38.756-37.37-57.72-56.522-25.013-25.288-45.546-53.828-59.808-86.83-6.546-15.138-12.178-30.44-14.442-46.851-.814-5.975-1.855-11.89-2.364-17.869-.813-9.569-1.366-19.194-1.918-28.818-.719-12.345-1.072-24.735-2.05-37.089a211.8,211.8,0,0,0-3.184-23.422c-1.372-7.106-2.837-14.337-5.44-21.042-6.078-15.6-15.693-29.175-26.515-41.523-19.512-22.307-39.944-43.744-59.66-65.854A152.84,152.84,0,0,1,80.9,420.728c-6.526-10.473-12.006-21.685-14.733-33.8C62.5,370.613,65.778,354.511,71,339.174c3.423-10.044,8.809-19.44,13.767-28.914,3.05-5.8,6.277-11.527,9.492-17.26" fill="none" stroke="#fff" stroke-miterlimit="10" stroke-width="1" fill-rule="evenodd"/>
    <path id="Path_1285" data-name="Path 1285" d="M580.34,293c-2.264,8.506-1.082,16.983,5.015,24.536a54.081,54.081,0,0,0,21.948,16.29c10.674,4.27,21.581,7.765,33.148,8.03,7.629.108,15.34.361,22.871-.585,14.37-1.831,28.659-4.369,42.955-6.71,8.957-1.445,17.865-3.428,26.881-4.562,14.8-1.838,29.664-1.187,44.424.77,22.614,2.926,43.584,10.817,63.247,22.533,16.059,9.59,28.359,23.328,40.623,37.158l4.793,6.2a192.584,192.584,0,0,1,15.03,19.7c17.977,26.853,38.227,51.931,58.821,76.705a83.5,83.5,0,0,1,18.272,37.965c2.756,14.967-.657,29.668-5.606,43.8-5.607,16-16.521,27.967-29.678,37.491-8.217,5.921-17.944,9.6-27.014,14.258l-1.457.724c-17.687,8.094-36.1,14.531-52.685,25.163-20.693,13.2-36.574,30.511-46.756,53.1-8.489,18.827-8.17,38.051-.867,57.172,5.1,13.42,13.831,24.418,23.5,34.732,13.6,14.484,27.368,28.84,40.98,43.283,6.623,7,9.954,15.975,13.4,24.691,1.351,3.374,1.318,7.517,1.1,11.24-.853,15.435-7.425,28.7-17.621,39.558-11.511,12.313-24.416,23.3-36.334,35.194C822,968.8,804.858,986.4,787.818,1004.024c-12.911,13.41-24.376,28.291-38.971,39.951-12.142,9.754-25.438,15.365-41.577,13.031-16.994-2.432-33.2-6.8-48.842-14.211-22.852-10.754-43.561-24.281-61.394-42.63a431.339,431.339,0,0,0-43.86-40.023c-15.5-12.139-33.113-18.674-51.369-23.973-24.7-7.12-50.483-7.954-75.592-12.82-14.453-2.829-29.148-5.206-43.028-9.95-25.856-8.763-49.434-21.964-69-41.861-19.07-19.405-38.673-38.344-57.225-58.3a357.757,357.757,0,0,1-53.319-75.164c-12.71-23.887-21.642-48.833-25.684-75.536-1.8-12.02-1.819-24.29-3.111-36.409-1.1-10.593-2.336-21.156-4.367-31.6a258.686,258.686,0,0,0-7.608-30.1c-5.263-16.417-14.552-30.905-24.907-44.334-15.734-20.4-32.393-40.053-48.791-59.95-12.9-15.643-25.193-31.723-33.176-50.576-4.578-10.819-8.929-21.7-9.077-34.077a132.285,132.285,0,0,1,6.813-43.328c4.407-13.332,10.1-26.181,15.435-39.166" fill="none" stroke="#fff" stroke-miterlimit="10" stroke-width="1" fill-rule="evenodd"/>
  </g>
</svg>
