<svg xmlns="http://www.w3.org/2000/svg" width="986.332" height="476.905" viewBox="0 0 986.332 476.905">
  <g id="Lignes_topo_2" data-name="Lignes topo 2" transform="translate(986.126 0.455) rotate(90)">
    <path id="Path_1296" data-name="Path 1296" d="M343.941,863.908c-4.047-3.176-8.188-6.215-12.261-9.2-9.671-7.1-19.672-14.436-27.871-23.243-12.889-13.845-22.369-30.767-31.537-47.132-2.549-4.549-5.185-9.254-7.844-13.8-19.688-33.665-51.737-65.868-100.857-101.344C122.111,639.239,86.3,613.379,70.83,561.76c-8.063-26.9-9.292-55.84-10.482-83.83-.742-17.47-1.51-35.535-3.924-52.992-2.372-17.149-5.867-34.329-9.247-50.943C40.8,342.672,34.213,310.28,34.942,276.922c.478-21.9,5.127-44.161,9.623-65.691,4.779-22.89,9.721-46.558,9.7-69.926C54.216,94.552,30.3,43.657,7.929,11.616,5.233,7.755,2.6,3.882,0,0" transform="translate(0 121.824)" fill="none" stroke="#2b2e2a" stroke-miterlimit="10" stroke-width="1"/>
    <path id="Path_1297" data-name="Path 1297" d="M386.929,893.658c-7.434-7.416-15.144-14.448-22.626-21.249-17.059-15.5-33.17-30.146-46.452-49.3-6.282-9.06-11.5-19.153-16.536-28.915-7.308-14.15-14.865-28.783-25.832-40.581-20.656-22.219-46.8-39.469-72.073-56.151-23.85-15.737-48.51-32.012-68.555-52.442-38.323-39.058-44.209-88.8-47.922-149.762-1.613-26.479-6.9-52.408-12.02-77.483-5.984-29.323-12.171-59.642-12.488-90.961-.248-24.465,3.616-49.283,7.353-73.283C74.9,220.612,80.2,186.573,74.822,153.337,66.258,100.431,39.667,60.171,11.516,17.546,7.73,11.813,3.843,5.925,0,0" transform="translate(0 92.074)" fill="none" stroke="#2b2e2a" stroke-miterlimit="10" stroke-width="1"/>
    <path id="Path_1298" data-name="Path 1298" d="M0,0" transform="translate(0 93.665)" fill="none" stroke="#2b2e2a" stroke-miterlimit="10" stroke-width="1"/>
    <path id="Path_1299" data-name="Path 1299" d="M0,0" transform="translate(0 92.074)" fill="none" stroke="#2b2e2a" stroke-miterlimit="10" stroke-width="1"/>
    <path id="Path_1300" data-name="Path 1300" d="M421.778,921.432A218.071,218.071,0,0,0,385.84,884.35c-25.2-20.668-39.334-46.889-54.3-74.65l-2.423-4.491c-15.311-28.327-40.42-52.645-76.763-74.342C185.226,690.79,137.2,650.7,121,585.322c-4.848-19.563-6.914-39.949-8.913-59.665-1.577-15.551-3.207-31.632-6.191-47.235-2.076-10.847-4.648-21.6-7.135-32.006-5.153-21.552-10.48-43.836-11.394-67.309-1.1-28.17,1.883-57.3,4.765-85.479,4.018-39.3,8.174-79.932,1.262-118.338-5.57-30.944-17.1-61.286-36.3-95.487-9.1-16.21-20.615-30.951-31.751-45.206C16.686,23.522,7.78,12.1,0,0" transform="translate(0 64.3)" fill="none" stroke="#2b2e2a" stroke-miterlimit="10" stroke-width="1"/>
    <path id="Path_1301" data-name="Path 1301" d="M452.623,952.479a162.209,162.209,0,0,0-15.353-23.135c-8.891-11.025-19.14-21.139-29.052-30.921-8.752-8.637-17.8-17.567-25.847-27.062-9.077-10.715-15.736-23.356-22.176-35.583-6.248-11.861-12.71-24.127-21.4-34.734-14.426-17.6-33.381-33.36-57.948-48.182-44.23-26.684-94.361-56.93-120.423-107.653-17.949-34.93-25.335-74.861-32.478-113.478-2.322-12.555-4.724-25.536-7.448-38.109-10.677-49.265-14.211-101.692-11.125-164.989q.372-7.6.773-15.152c2.6-49.856,5.049-96.948-8.115-143.889C89.418,124.638,64.226,91.07,37.553,55.53c-4.72-6.289-9.6-12.792-14.4-19.349A360.294,360.294,0,0,1,0,0" transform="translate(0 33.253)" fill="none" stroke="#2b2e2a" stroke-miterlimit="10" stroke-width="1"/>
    <path id="Path_1302" data-name="Path 1302" d="M476,985.732c-2.822-5.78-5.717-11.587-8.745-17.249-13.675-25.572-32.224-48.225-50.162-70.133-14.322-17.489-29.13-35.575-41.39-55.056-23.593-37.485-61.273-62.519-97.711-86.73-45.031-29.918-91.594-60.856-110.977-115.4-5.078-14.289-7.824-29.723-10.48-44.649-1.756-9.866-3.571-20.069-6.044-29.849-2.31-9.135-5.062-18.264-7.723-27.093-4.133-13.709-8.406-27.885-11.1-42.358-6.693-35.936-4.752-73.856-2.876-110.529.816-15.942,1.659-32.427,1.779-48.513.4-53.389-5.441-103.59-17.853-153.471-8.757-35.19-30.536-61.76-51.6-87.456C49.175,82.674,36.824,67.607,26.749,50.96A485.173,485.173,0,0,1,0,0" transform="translate(0 0)" fill="none" stroke="#2b2e2a" stroke-miterlimit="10" stroke-width="1"/>
  </g>
</svg>
