<svg xmlns="http://www.w3.org/2000/svg" width="736.608" height="997.242" viewBox="0 0 736.608 997.242">
  <g id="Lignes_topos_1" data-name="Lignes topos 1" transform="translate(1023.063 -30.508) rotate(90)">
    <path id="Path_1260" data-name="Path 1260" d="M1025,429.381q-24.677,17.354-51.012,34.025c-7.368,4.659-14.9,9.2-22.181,13.6-17.674,10.664-35.951,21.691-52.742,34.919-6.306,4.968-12.65,10.115-18.784,15.093-15.653,12.7-31.838,25.834-48.909,37.2-46.3,30.831-97.633,41.548-146.242,49.883-4.355.747-8.839,1.438-13.177,2.107-21.3,3.283-43.318,6.677-62.628,18.249-11.329,6.788-20.619,16.046-29.605,25-8.248,8.221-16.779,16.722-26.815,23.21-15.644,10.113-46.978,27.893-65.192,30.391-15.453,2.121-24.376-6.281-28.105-26.428-4.286-23.143,3.228-46.861,10.492-69.8,6.839-21.586,13.91-43.908,11.361-66.01-4.312-37.361-24.315-80.962-53.51-116.629-15.458-18.885-30.972-37.309-46.11-54.76-15.023-17.316-32.054-25.912-52.063-26.279-20.934-.4-40.175,10.652-58.763,21.325l-2.489,1.428C260,380.79,251,385.367,242.312,389.792c-15.272,7.775-31.063,15.815-45.148,25.9-21.748,15.576-74.017,56.707-89.652,102.135-13.272,38.563,4.884,72.74,22.442,105.792,3.843,7.236,7.475,14.072,10.765,20.936,7.8,16.284,12.375,33.888,16.792,50.912,1.879,7.235,3.82,14.718,6,22.057,4.321,14.58,11.008,27.894,17.475,40.768,3.611,7.19,7.348,14.626,10.657,22.244,4.919,11.323,7.749,24.363,10.486,36.97,6.322,29.126,12.858,59.242,45.689,69.594,9.294,2.93,23.228,5.99,36.833,3.925a60.26,60.26,0,0,0,10.332-2.9c4.2-1.451,8.549-2.953,12.778-3.123,21.711-.918,25.813,18.093,28.138,37.6.955,8.009,2.2,15.943,3.4,23.614,3.933,25.121,7.7,49.2,1.539,74.5" transform="translate(2.42 2.224)" fill="none" stroke="#fff" stroke-miterlimit="10" stroke-width="1"/>
    <path id="Path_1261" data-name="Path 1261" d="M1025.518,400.714c-27.488,19.23-58.092,38.55-93.982,59.48-19.159,11.175-38.042,23.454-56.3,35.328-35.735,23.239-72.686,47.269-113.023,63.8-30.69,9.372-62.511,15.723-93.285,21.864-25.663,5.123-52.2,10.418-77.985,17.444-2.96.807-6.055,1.837-9.332,2.925-12.682,4.213-27.051,8.989-36.416.984-4.108-3.51-6.835-10.3-9.243-16.29-1.1-2.741-2.142-5.329-3.248-7.482-2.456-4.771-5.015-9.58-7.49-14.229-4.27-8.021-8.683-16.316-12.694-24.671-22.479-46.835-53.374-92.237-97.225-142.882-2.938-3.391-5.925-6.994-9.088-10.806-26.515-31.958-59.511-71.732-109.325-44.834-15.048,8.125-29.72,17.858-43.91,27.27-13.017,8.636-26.478,17.564-40.251,25.273-17.219,9.64-31.12,21.539-45.837,34.138-6.75,5.778-13.73,11.753-21.011,17.44-25.817,20.167-41.808,37.263-52.362,69.8-7.821,24.116-8.029,44.766-.673,66.961,7.409,22.352,17.927,44,28.1,64.925l.263.538c5.365,11.036,10.43,21.46,10.4,34.163-.01,3.774-.23,7.223-.443,10.559-.492,7.715-.957,15,1.526,23.761,5.256,18.541,14.221,36.066,22.892,53.015,4.117,8.047,8.373,16.37,12.137,24.626,7.474,16.4,11.549,32.741,15.865,50.041,2.192,8.791,4.459,17.881,7.2,26.9,6.258,20.585,21.521,49.744,40.245,65.124,7.189,5.9,15.922,9.328,24.368,12.641,10.852,4.255,22.074,8.658,29.763,18.366,9.491,11.983,13.293,26.664,11.3,43.635a87.442,87.442,0,0,1-2.017,10.886" transform="translate(1.9 1.529)" fill="none" stroke="#fff" stroke-miterlimit="10" stroke-width="1"/>
    <path id="Path_1262" data-name="Path 1262" d="M1025.979,378.1c-5.694,4.187-11.435,8.265-17.226,12.18C969.4,416.88,926.154,438.4,884.33,459.2c-15.075,7.5-30.665,15.256-45.817,23.125-5.508,2.861-10.948,6.11-16.209,9.254-8.263,4.937-16.806,10.04-25.779,13.73a198.916,198.916,0,0,1-20.533,6.751c-5.605,1.619-11.4,3.292-17,5.367-9.781,3.623-19.6,7.667-29.087,11.579-12.45,5.132-25.325,10.438-38.263,14.847-63.993,21.812-108.539,20.961-136.184-2.6-12.228-10.417-22.19-23.916-31.822-36.971-4.995-6.765-10.159-13.763-15.523-20.154-7.076-8.431-14.057-17.206-20.809-25.691-9.222-11.591-18.759-23.577-28.688-34.879-6.486-7.382-13.217-14.634-19.728-21.648-10.9-11.738-22.163-23.877-32.441-36.82-12.093-15.226-26.693-32.2-46.985-40.849-38.907-16.594-73.425,7.286-106.808,30.379-9.264,6.409-18.844,13.035-28.2,18.508-22.689,13.28-41.8,28.341-62.036,44.286-6.388,5.035-12.995,10.241-19.716,15.381-4.271,3.265-8.525,6.272-12.642,9.18-14.417,10.185-28.034,19.805-36.5,37-23.474,47.7-25.977,90.384-8.116,138.391,8.751,23.519,17.086,49.3,18.82,78.461,1.457,24.511,7.142,44.052,19.627,67.448,3.575,6.7,7.424,13.406,11.147,19.891,9.853,17.161,20.04,34.906,26.13,54.308,3.729,11.88,6.607,24.289,9.388,36.291,2.584,11.138,5.254,22.655,8.6,33.744,3.4,11.249,9.841,22.537,16.073,33.452,7.967,13.957,16.207,28.391,18.5,43.248,1,6.49,2.614,13.09,4.323,20.079,1.419,5.811,2.856,11.7,3.939,17.581" transform="translate(1.439 1.066)" fill="none" stroke="#fff" stroke-miterlimit="10" stroke-width="1"/>
    <path id="Path_1263" data-name="Path 1263" d="M1026.825,349.5C977.8,387.1,920.783,421.971,857.2,445.886l-1.93.726c-24.471,9.208-49.776,18.728-75.346,24.432-5.247,1.17-10.542,2.206-15.666,3.206-19.326,3.778-37.578,7.345-55.363,17.883-46.9,27.79-95.719,49.7-135.064,22.1-6.661-4.671-12.313-10.831-17.779-16.789a153.733,153.733,0,0,0-13.3-13.353c-2.4-2.04-4.8-4.045-7.2-6.043-7.91-6.6-15.382-12.829-22.465-20.068-6.342-6.481-12.708-13.133-18.866-19.568-10.109-10.563-20.561-21.485-31.2-31.951-10.24-10.077-19.831-22.055-29.107-33.636-19-23.724-38.644-48.255-66.6-61.073-46.96-21.532-91.184,5.984-124.471,32.359-11.412,9.043-23.7,17.148-35.584,24.985-13.662,9.011-27.789,18.329-40.726,29.156-2.368,1.981-4.717,3.991-7.069,6-7.728,6.6-15.718,13.433-24.292,19.175a162.918,162.918,0,0,1-16.477,9.256c-6.822,3.492-13.874,7.1-20.079,11.795C79.354,459.041,71.658,483.987,64.869,506c-.794,2.571-1.57,5.09-2.348,7.531-1.1,3.44-2.262,6.879-3.5,10.52-6.738,19.873-13.7,40.42-8.688,59.257,2.574,9.671,6.268,18.828,9.839,27.686,4.654,11.544,9.468,23.48,11.78,36.565,1.937,10.961,3.3,22.267,4.607,33.2,1.486,12.387,3.024,25.2,5.415,37.6,5.3,27.51,17.224,47.651,32.265,71.123,14.017,21.875,22.594,49,29.533,72.705,3.983,13.6,5.273,27.931,6.52,41.792.944,10.489,1.92,21.335,4.05,31.874,1.276,6.309,2.984,12.863,4.637,19.2,4.277,16.414,8.7,33.386,6.908,49.9-.639,5.876-.879,11.712-1.062,17.412" transform="translate(0.594 0.572)" fill="none" stroke="#fff" stroke-miterlimit="10" stroke-width="1"/>
    <path id="Path_1264" data-name="Path 1264" d="M1027.418,320.931c-22.8,20.122-46.7,38.9-74.659,55.347-56.049,32.962-108.867,52.32-161.474,59.178-28.158,3.67-54.861,14.216-80.683,24.415-25.611,10.116-52.095,20.576-79.911,24.267-29.822,3.959-45.86-2.115-68.535-16.338-18.725-11.746-35.392-26.38-51.511-40.531-4.246-3.727-8.636-7.583-13-11.327-22.217-19.07-45.637-39.771-66.279-64.658-2.8-3.37-5.619-6.914-8.348-10.341-11.909-14.952-24.223-30.414-40.89-40.382-17.679-10.572-40-15.2-62.852-13.035a123.072,123.072,0,0,0-63.227,24.984c-12.253,9.534-24.558,19.459-36.457,29.057-13.591,10.963-27.646,22.3-41.738,33.146-4.906,3.776-9.76,7.762-14.9,11.983-14.356,11.79-29.2,23.98-45.125,31.257-53.485,24.439-65.559,65.6-79.539,113.259q-1.673,5.695-3.4,11.51c-8.152,27.232-2.216,45.442,5.3,68.5q.893,2.74,1.814,5.589c3.623,11.258,4.854,23.235,6.046,34.817,1.056,10.284,2.15,20.918,4.907,31.088,3.374,12.449,5.545,25.482,7.645,38.085,2.131,12.791,4.333,26.017,7.794,38.615,3.528,12.847,11.328,22.422,18.87,31.682,6.448,7.917,13.116,16.1,17.014,26.267,7.741,20.2,11.215,45.519,14.281,67.86q.616,4.495,1.223,8.841c3.589,25.408.7,49.616-2.606,69.947-2.024,12.468-.713,26.66.553,40.384.57,6.161,1.144,12.409,1.424,18.551" transform="translate(0 0)" fill="none" stroke="#fff" stroke-miterlimit="10" stroke-width="1"/>
  </g>
</svg>
