<svg xmlns="http://www.w3.org/2000/svg" width="964.824" height="712.663" viewBox="0 0 964.824 712.663">
  <g id="Lignes_topos_1" data-name="Lignes topos 1" transform="translate(0.331 0.121)">
    <path id="Path_1291" data-name="Path 1291" d="M102.945,925.241q23.874-16.789,49.352-32.918c7.128-4.507,14.414-8.9,21.459-13.154,17.1-10.317,34.781-20.985,51.026-33.783,6.1-4.806,12.238-9.786,18.173-14.6,15.144-12.288,30.8-24.994,47.318-35.992,44.795-29.828,94.457-40.2,141.484-48.26,4.213-.723,8.551-1.391,12.748-2.038,20.6-3.176,41.909-6.46,60.591-17.655,10.96-6.567,19.948-15.524,28.642-24.185,7.98-7.954,16.233-16.178,25.943-22.455,15.135-9.784,45.45-26.986,63.071-29.4,14.95-2.052,23.583,6.077,27.191,25.568,4.147,22.39-3.123,45.336-10.151,67.526-6.617,20.884-13.457,42.479-10.991,63.862,4.172,36.146,23.524,78.328,51.769,112.835,14.955,18.271,29.964,36.095,44.61,52.978,14.534,16.753,31.011,25.069,50.369,25.424,20.253.388,38.868-10.305,56.851-20.631l2.408-1.382c8.251-4.726,16.949-9.154,25.359-13.435,14.775-7.522,30.052-15.3,43.679-25.059,21.04-15.069,71.609-54.862,86.735-98.812,12.84-37.308-4.725-70.374-21.712-102.35-3.718-7-7.232-13.614-10.415-20.255-7.551-15.754-11.972-32.785-16.246-49.256-1.818-7-3.7-14.239-5.8-21.339-4.18-14.106-10.65-26.986-16.906-39.442-3.494-6.956-7.109-14.15-10.31-21.52-4.759-10.955-7.5-23.57-10.145-35.767-6.116-28.178-12.44-57.315-44.2-67.33-8.992-2.835-22.472-5.8-35.635-3.8a58.293,58.293,0,0,0-10,2.806c-4.067,1.4-8.271,2.857-12.362,3.021-21.005.888-24.973-17.5-27.223-36.376-.924-7.749-2.126-15.424-3.287-22.846-3.8-24.3-7.446-47.6-1.489-72.078" transform="translate(-102.945 -353.142)" fill="none" stroke="#292b28" stroke-miterlimit="10" stroke-width="1"/>
    <path id="Path_1292" data-name="Path 1292" d="M87.479,932.968c26.594-18.6,56.2-37.3,90.924-57.545,18.536-10.811,36.8-22.691,54.471-34.179,34.572-22.483,70.321-45.731,109.346-61.724,29.692-9.067,60.477-15.211,90.25-21.153,24.828-4.956,50.5-10.079,75.448-16.877,2.864-.781,5.858-1.777,9.028-2.83,12.269-4.076,26.171-8.7,35.231-.952,3.974,3.4,6.613,9.965,8.942,15.76,1.064,2.652,2.072,5.156,3.142,7.239,2.376,4.616,4.852,9.268,7.246,13.766,4.131,7.76,8.4,15.785,12.281,23.868,21.748,45.311,51.637,89.236,94.062,138.233,2.842,3.281,5.732,6.766,8.792,10.454,25.652,30.918,57.575,69.4,105.768,43.375,14.558-7.861,28.753-17.277,42.481-26.383,12.594-8.355,25.617-16.993,38.941-24.451,16.659-9.326,30.108-20.838,44.346-33.027,6.53-5.59,13.283-11.371,20.327-16.873,24.977-19.511,40.448-36.051,50.658-67.529,7.567-23.331,7.768-43.31.651-64.783-7.168-21.625-17.344-42.565-27.182-62.813l-.254-.521c-5.19-10.677-10.091-20.762-10.057-33.051.01-3.651.223-6.988.429-10.216.476-7.464.926-14.513-1.476-22.988-5.085-17.938-13.758-34.893-22.147-51.29-3.983-7.785-8.1-15.837-11.742-23.825-7.231-15.867-11.173-31.676-15.349-48.413-2.121-8.505-4.314-17.3-6.968-26.028-6.054-19.915-20.821-48.126-38.936-63.005-6.955-5.711-15.4-9.025-23.575-12.23-10.5-4.117-21.356-8.376-28.795-17.769-9.182-11.593-12.861-25.8-10.933-42.215a84.593,84.593,0,0,1,1.951-10.532" transform="translate(-87.479 -332.461)" fill="none" stroke="#292b28" stroke-miterlimit="10" stroke-width="1"/>
    <path id="Path_1293" data-name="Path 1293" d="M73.751,941.545c5.509-4.051,11.063-8,16.666-11.784,38.072-25.732,79.912-46.549,120.375-66.679,14.585-7.257,29.667-14.76,44.326-22.373,5.329-2.768,10.592-5.911,15.682-8.953,7.994-4.776,16.259-9.713,24.94-13.283a192.439,192.439,0,0,1,19.865-6.531c5.423-1.566,11.031-3.185,16.448-5.192,9.463-3.505,18.958-7.418,28.141-11.2,12.045-4.965,24.5-10.1,37.018-14.364,61.911-21.1,105.008-20.279,131.753,2.515,11.83,10.078,21.468,23.138,30.787,35.768,4.832,6.545,9.828,13.315,15.018,19.5,6.846,8.157,13.6,16.646,20.132,24.855,8.922,11.214,18.149,22.81,27.755,33.744,6.275,7.142,12.787,14.158,19.086,20.944,10.541,11.356,21.442,23.1,31.386,35.622,11.7,14.731,25.825,31.149,45.456,39.52,37.641,16.054,71.036-7.049,103.333-29.391,8.963-6.2,18.231-12.611,27.278-17.906,21.951-12.848,40.442-27.419,60.018-42.845,6.18-4.871,12.572-9.908,19.075-14.881,4.132-3.159,8.248-6.068,12.231-8.881,13.948-9.854,27.122-19.161,35.31-35.8,22.71-46.15,25.132-87.443,7.852-133.889-8.466-22.754-16.53-47.7-18.208-75.908-1.41-23.714-6.91-42.619-18.988-65.254-3.459-6.485-7.182-12.97-10.784-19.244-9.532-16.6-19.388-33.77-25.28-52.541-3.608-11.494-6.392-23.5-9.083-35.11-2.5-10.776-5.083-21.918-8.322-32.646-3.286-10.883-9.521-21.8-15.55-32.364-7.708-13.5-15.68-27.467-17.9-41.841-.969-6.279-2.529-12.664-4.182-19.426-1.373-5.622-2.763-11.316-3.811-17.009" transform="translate(-73.751 -318.716)" fill="none" stroke="#292b28" stroke-miterlimit="10" stroke-width="1"/>
    <path id="Path_1294" data-name="Path 1294" d="M48.626,954.995c47.431-36.376,102.592-70.116,164.106-93.253l1.867-.7c23.675-8.908,48.157-18.119,72.895-23.637,5.076-1.132,10.2-2.134,15.156-3.1,18.7-3.655,36.355-7.106,53.562-17.3,45.373-26.886,92.6-48.083,130.67-21.379,6.444,4.519,11.912,10.479,17.2,16.243a148.73,148.73,0,0,0,12.872,12.919c2.32,1.974,4.646,3.913,6.964,5.846a284.438,284.438,0,0,1,21.734,19.415c6.136,6.27,12.295,12.706,18.252,18.931,9.78,10.219,19.892,20.786,30.182,30.912,9.907,9.749,19.186,21.337,28.16,32.542,18.38,22.952,37.387,46.685,64.431,59.086,45.432,20.831,88.217-5.789,120.422-31.306,11.041-8.749,22.929-16.59,34.426-24.172,13.218-8.718,26.885-17.733,39.4-28.207,2.291-1.917,4.564-3.861,6.839-5.8,7.477-6.389,15.207-13,23.5-18.551a157.615,157.615,0,0,1,15.941-8.955c6.6-3.378,13.423-6.871,19.426-11.411,18.637-14.093,26.082-38.228,32.65-59.523.768-2.487,1.519-4.924,2.272-7.286,1.06-3.328,2.188-6.655,3.383-10.178,6.519-19.226,13.259-39.1,8.4-57.329-2.49-9.356-6.064-18.216-9.519-26.785-4.5-11.168-9.16-22.716-11.4-35.375-1.874-10.6-3.188-21.543-4.457-32.121-1.438-11.984-2.926-24.376-5.239-36.381-5.125-26.615-16.664-46.1-31.215-68.809-13.561-21.163-21.859-47.4-28.572-70.34-3.853-13.155-5.1-27.022-6.308-40.432-.913-10.148-1.858-20.641-3.918-30.837-1.234-6.1-2.887-12.445-4.486-18.577-4.138-15.88-8.419-32.3-6.683-48.277.618-5.685.85-11.331,1.027-16.846" transform="translate(-48.626 -304.012)" fill="none" stroke="#292b28" stroke-miterlimit="10" stroke-width="1"/>
    <path id="Path_1295" data-name="Path 1295" d="M30.974,966.179c22.054-19.467,45.177-37.635,72.23-53.546,54.225-31.89,105.325-50.618,156.221-57.253,27.242-3.551,53.076-13.754,78.058-23.621,24.778-9.787,50.4-19.907,77.311-23.477,28.852-3.83,44.368,2.046,66.3,15.806,18.116,11.364,34.241,25.522,49.835,39.212,4.108,3.606,8.355,7.336,12.576,10.958,21.494,18.45,44.152,38.477,64.123,62.554,2.705,3.26,5.436,6.689,8.076,10.005,11.522,14.466,23.435,29.425,39.56,39.068,17.1,10.228,38.7,14.706,60.807,12.611a119.066,119.066,0,0,0,61.17-24.171C789.1,965.1,801,955.5,812.516,946.213c13.149-10.606,26.747-21.574,40.38-32.068,4.746-3.653,9.442-7.509,14.412-11.593,13.889-11.406,28.251-23.2,43.657-30.24,51.745-23.644,63.426-63.465,76.951-109.574q1.618-5.509,3.29-11.136c7.887-26.346,2.144-43.964-5.128-66.267q-.864-2.65-1.755-5.407c-3.505-10.892-4.7-22.479-5.849-33.684-1.022-9.949-2.08-20.237-4.747-30.077-3.264-12.044-5.365-24.653-7.4-36.846-2.062-12.375-4.192-25.171-7.54-37.359-3.413-12.429-10.959-21.693-18.256-30.651-6.238-7.659-12.689-15.579-16.46-25.412-7.489-19.538-10.85-44.038-13.816-65.652q-.6-4.349-1.183-8.553c-3.472-24.581-.674-48,2.521-67.671,1.958-12.062.69-25.793-.535-39.07-.551-5.96-1.107-12.005-1.378-17.947" transform="translate(-30.973 -287.006)" fill="none" stroke="#292b28" stroke-miterlimit="10" stroke-width="1"/>
  </g>
</svg>
