<svg xmlns="http://www.w3.org/2000/svg" width="1366.88" height="598.932" viewBox="0 0 1366.88 598.932">
  <g id="Group_392" data-name="Group 392" transform="translate(0.456 0.491)">
    <path id="Path_1286" data-name="Path 1286" d="M0,0A86.48,86.48,0,0,1,2.443,8.507c1.843,7.414,3.749,15.08,10.322,20.2C18.281,33,25.072,34.122,31.64,35.211A86.585,86.585,0,0,1,40.7,37.046C53.272,40.558,66.8,48.306,80.9,60.075c8.687,7.25,15.527,16,22.142,24.46,9.516,12.173,18.505,23.671,32.545,31.168,12.173,6.5,22.9,12.775,30.843,23.769a180.337,180.337,0,0,1,10.127,16.33c3.793,6.637,7.715,13.5,12.694,19.7,14.259,17.748,39.479,38.517,67.5,43.581,18.163,3.28,33.263.159,49.25-3.149,7.54-1.56,15.336-3.172,23.625-4.117,6.375-.726,12.917-1.57,19.244-2.386,20.121-2.6,40.929-5.28,61.449-4.924,10.527.184,21.409.372,31.5-2.535,3.867-1.115,7.415-2.363,10.846-3.57,7.846-2.76,15.256-5.366,24.951-5.834,21.422-1.034,47.528-8.662,50.238-39.124l.121-1.337c.773-8.508,1.737-19.1-3.217-26.794-2.73-4.244-6.544-7.991-10.231-11.613-3.589-3.526-7.3-7.172-10.112-11.341-5.162-7.657-10.445-17.546-5.428-26.121,3.333-5.7,9.853-7.9,16.157-10.041a57.122,57.122,0,0,0,9.1-3.663c3.279-1.808,6.163-3.646,8.952-5.423,6.008-3.828,11.682-7.444,19.9-9.776A67.141,67.141,0,0,0,566.9,41.147c5.567-3.027,11.323-6.158,18.629-7.18,2.269-.317,4.493-.531,6.645-.737,8.083-.777,15.064-1.449,21.34-6.92C618,22.4,621.587,17.5,625.058,12.765A91.767,91.767,0,0,1,635.371.3c.1-.1.206-.2.31-.3" transform="translate(71.036 0)" fill="none" stroke="#fff" stroke-miterlimit="10" stroke-width="1"/>
    <path id="Path_1287" data-name="Path 1287" d="M0,0A157.816,157.816,0,0,1,6.767,17.761C12.828,35.677,19.7,55.982,37.4,58.981a55.379,55.379,0,0,0,6.115.586,33.072,33.072,0,0,1,10.38,1.76,38.084,38.084,0,0,1,5.823,3.007c2.63,1.562,5.114,3.038,8.42,3.643a43.084,43.084,0,0,0,6.8.6,29.166,29.166,0,0,1,10.277,1.684q.874.323,1.772.649c5.419,1.976,11.561,4.216,16.144,7.862,5.29,4.21,9.1,9.99,12.779,15.58a88.624,88.624,0,0,0,8.527,11.547c5.554,6,13.23,9.834,20.655,13.54,3.046,1.521,6.2,3.093,9.109,4.778,9.18,5.309,19.6,11.83,27.02,22.074,3.332,4.6,6.3,9.409,9.168,14.063,4.183,6.783,8.507,13.8,13.993,20.172,16.847,19.573,39.1,42.248,61.818,43.869,4.02.286,8.325.937,12.488,1.567,6.445.974,13.11,1.987,19.109,1.724,6.836-.294,13.188-2.786,19.331-5.195a93.434,93.434,0,0,1,12.107-4.121c8.918-2.143,18.529-2.709,27.823-3.258,2.776-.164,5.646-.333,8.436-.542,7.353-.549,14.676-1.665,21.759-2.742,6.232-.949,12.675-1.93,19.12-2.523a144.5,144.5,0,0,1,19.226-.042,161.634,161.634,0,0,0,17.209.112c8.7-.571,16.73-3.128,24.5-5.6,3.849-1.225,7.829-2.491,11.866-3.513,7.032-1.781,14.815-2.591,22.342-3.376,15.339-1.6,31.2-3.252,42.511-13.053,7.977-6.911,10.08-16.468,10.786-28.69a77.8,77.8,0,0,1,1.609-10.076c1.375-6.82,2.932-14.55,1.1-19.9-1.482-4.33-5.089-7.708-8.577-10.975-3.17-2.967-6.446-6.036-8.219-9.857-4.772-10.288.982-19.16,7.359-23.633,6.122-4.293,13.866-5.559,21.354-6.784,2.41-.394,4.9-.8,7.282-1.3,5.6-1.18,10.33-3.788,14.906-6.311,4.489-2.474,9.13-5.031,14.536-6.194a52.055,52.055,0,0,1,9.122-.831c6.058-.2,11.78-.386,15.988-4.32,4.553-4.254,8.486-9.821,12.291-15.2a131.683,131.683,0,0,1,9.223-12.052C667.51,11.336,686.282,4.917,711.716,0" transform="translate(53.744 0)" fill="none" stroke="#fff" stroke-miterlimit="10" stroke-width="1"/>
    <path id="Path_1288" data-name="Path 1288" d="M0,0C1.224,3.314,2.271,6.607,3.294,9.84c1.3,4.1,2.638,8.337,4.323,12.545,2.392,5.97,6.717,10.7,11.3,15.709C22.691,42.227,26.6,46.5,29.271,51.511c5.742,10.764,9.583,17.036,21.762,20.759q2.647.808,5.335,1.646c9.858,3.058,20.052,6.219,29.945,7.95,2.207.386,4.422.7,6.565,1,9.067,1.282,17.631,2.495,25.511,8.89,4.35,3.531,7.881,7.975,11.3,12.271,3.491,4.394,7.1,8.937,11.521,12.369,5.13,3.984,11.532,6.939,17.724,9.8a120.838,120.838,0,0,1,14.287,7.373c12.539,8.009,19.218,16.929,27.674,28.223l1.02,1.361a358.733,358.733,0,0,0,26.266,31.589c9.9,10.42,17.814,20.314,25.713,30.375,7.675,9.774,15.809,9.017,25.646,7.014,6.615-1.348,13.147-.689,19.464-.052a85.861,85.861,0,0,0,14.385.634c7.7-.518,14.786-3.275,21.635-5.94,2.394-.932,4.869-1.9,7.332-2.748,11.938-4.132,24.725-5.022,37.091-5.882,8.449-.588,16.921-1.572,25.113-2.523,4.482-.52,9.115-1.059,13.7-1.527,7.792-.8,15.775-.838,23.493-.878,6.512-.034,13.245-.07,19.8-.56,8.07-.6,15.892-2.531,23.457-4.4,3.227-.8,6.564-1.619,9.881-2.33a136.612,136.612,0,0,1,18.173-2.207,137.682,137.682,0,0,0,17.661-2.112c22.256-4.66,42.884-10.562,50.746-31.322,1.907-5.038,2.134-10.627,2.353-16.031.206-5.106.419-10.384,2.025-15.307a61.054,61.054,0,0,1,3.128-7.355,63.39,63.39,0,0,0,2.943-6.828,50.019,50.019,0,0,0,1.39-5.407c.906-4.148,1.844-8.439,4.819-11.561,6.471-6.795,16.986-6.271,27.159-5.766,10.135.506,19.711.982,25.479-5.176a22.576,22.576,0,0,0,3.648-6.221,26.362,26.362,0,0,1,3.729-6.477,29.25,29.25,0,0,1,7.07-5.566,39.789,39.789,0,0,0,5.087-3.579c4.555-3.946,7.337-9.281,10.282-14.929,2.661-5.1,5.41-10.372,9.581-14.474,4.5-4.432,13.363-11.755,22.077-10.927,8.826.828,13.106,7.957,17.245,14.851,2.268,3.777,4.408,7.343,7.241,9.939,2.478,2.272,6.014,3.694,9.758,5.2,5.559,2.236,11.307,4.548,13.719,9.935,1.082,2.418.421,5.593-.163,8.393a26.247,26.247,0,0,0-.568,3.4,147.226,147.226,0,0,0,.194,16.272c.091,1.88.183,3.757.248,5.622a367.82,367.82,0,0,0,2.868,37.381c1.268,9.122-.752,15.948-2.892,23.176a93.482,93.482,0,0,0-3.054,12.479,90.8,90.8,0,0,0-.672,14.559c.049,6.459.1,13.137-1.756,19.564l-.124.43c-3.578,12.392-6.164,21.344-3.017,34.811,1.341,5.744,2.4,11.68,3.514,17.965,3.189,17.936,6.486,36.484,16.814,51.371,5.156,7.431,12.143,13.775,18.9,19.911,2.518,2.285,5.121,4.649,7.578,7.025,3.039,2.938,5.873,6.166,8.613,9.288,6.034,6.875,12.273,13.982,20.9,18.09,1.676.8,3.273,1.529,4.8,2.229,9.4,4.3,16.2,7.414,22.731,17.481a137.624,137.624,0,0,1,7.274,13.228c2.974,5.915,6.049,12.032,10.285,17.438,3.067,3.914,7.317,7.458,11.428,10.885,5.747,4.791,11.689,9.746,14.807,15.966,4.748,9.473.2,18.613-4.868,26.3-1.354,2.053-2.9,4.107-4.388,6.094-4.244,5.654-8.634,11.5-9.773,18.555-1.744,10.792,5.569,19.186,12.641,27.3,15.578,17.882,29.272,31.694,51.652,33.356,8.511.633,15.849-3.564,22.937-7.621,1.307-.748,2.657-1.521,3.97-2.234,11.168-6.069,15.377-12.714,16.083-25.4.657-11.8-3.174-20.236-9.567-30.026-5.513-8.442-12.181-20.927-6.468-31.844,1.484-2.837,3.777-4.764,5.994-6.628a31.325,31.325,0,0,0,4.286-4.094,36.234,36.234,0,0,0,3.835-6.282,32.344,32.344,0,0,1,4.864-7.513,56.954,56.954,0,0,1,6.125-5.408,44.814,44.814,0,0,0,7.277-6.766c2.883-3.621,4.847-8.018,6.747-12.271.852-1.908,1.733-3.881,2.683-5.752,11.034-21.714,28.075-35.939,46.118-51,17.037-14.22,38.9-20.414,66.837-18.935.028,0,.057.005.084.01,42.138,9.5,103.987,29.368,159.512,70.132,14.473,10.625,30.288,22.481,45,35.277" transform="translate(35.513 0)" fill="none" stroke="#fff" stroke-miterlimit="10" stroke-width="1"/>
    <path id="Path_1289" data-name="Path 1289" d="M0,0C1.06,2.316,2.089,4.637,3.1,6.937,8.693,19.6,14.471,32.7,25.193,42.508c1.538,1.407,3.035,2.73,4.484,4.01,6.135,5.419,11.432,10.1,15.93,17.693,7.422,12.533,13.058,18.952,26.841,23.862,8.118,2.891,16.436,5.433,24.481,7.891,16.3,4.982,33.16,10.134,49.063,18.43a174.315,174.315,0,0,1,18.55,11.765c5.131,3.566,10.436,7.254,15.966,10.365,3.562,2,7.323,3.917,10.96,5.768,8.664,4.408,17.624,8.966,25.089,15.3,6.935,5.884,12.955,13.039,18.778,19.959,2.538,3.016,5.163,6.135,7.8,9.07q2.158,2.4,4.34,4.784c7.78,8.534,15.824,17.357,21.677,27.419l.267.458c10.665,18.337,22.752,39.123,46.773,30.014,7.115-2.7,13.8-3.46,20.873-4.267,3.719-.424,7.563-.862,11.584-1.6,7.4-1.365,14.213-4.285,20.8-7.109,3.973-1.7,8.082-3.465,12.29-4.875,16.076-5.383,34.681-6.723,52.673-8.02,5.7-.41,11.59-.835,17.175-1.381,9.875-.966,19.908-1.364,29.61-1.748,13.423-.532,27.3-1.082,40.86-3.15,8.125-1.239,16.566-1.882,24.729-2.5,15.065-1.146,30.642-2.331,44.762-7.319,21.717-7.67,40.256-24.458,49.595-44.907a47.627,47.627,0,0,0,2.762-9.912c1.06-5.138,2.156-10.45,5.107-14,6.482-7.8,18.693-7.235,28.506-6.774l.175.007a87.571,87.571,0,0,0,28.984-3.017c4.77-1.393,8.863-4.4,12.821-7.312,4.436-3.262,8.625-6.343,13.706-7.37,7.591-1.536,20.7,4.524,26.751,9.543,7.821,6.484,6.311,15.287,4.123,22.232a31.422,31.422,0,0,1-2.514,5.391c-2,3.669-3.888,7.135-2.288,10.882a18.588,18.588,0,0,0,3.85,4.889,22.3,22.3,0,0,1,4.426,5.651c1.844,4,2.527,8.206,3.186,12.275.107.658.214,1.316.325,1.974,1.464,8.642.328,16.136-.875,24.069-.515,3.4-1.047,6.905-1.368,10.547a142.907,142.907,0,0,0,1.586,35c1.654,10.3,4.843,19.842,8.218,29.939l.624,1.868a127.1,127.1,0,0,1,3.224,12.437c1.526,6.832,3.1,13.9,6.542,20.273,3.728,6.915,9.65,12.2,15.378,17.314,2.974,2.654,6.048,5.4,8.814,8.361a107.241,107.241,0,0,1,20.055,31.129c1.013,2.394,1.862,4.761,2.685,7.049,2.435,6.778,4.735,13.179,10.726,18.816,9.861,9.28,16.114,17.79,24.527,29.713.946,1.341,1.9,2.663,2.853,3.978,5.133,7.1,9.981,13.812,12.517,22.1,2.859,9.341.409,15.144-2.428,21.864-.822,1.949-1.673,3.963-2.464,6.2-2.761,7.806-4,20.369-.191,29.51,3.269,7.847,10.682,12.424,17.851,16.849,1.993,1.23,4.053,2.5,5.979,3.819,10.009,6.845,14.363,12.915,20.955,22.1l.841,1.172c8.015,11.155,19.557,18.322,30.837,24.407q1.455.784,2.838,1.541c9.3,5.067,16.642,9.069,27.6,9.464,3.5.125,7.156.442,10.69.747a134.014,134.014,0,0,0,16.99.755c15.063-.662,27.579-14.649,37.2-41.572,3.385-9.479,1.433-16.433-1.269-26.057q-.373-1.332-.76-2.728a207.178,207.178,0,0,1-6.221-33.846c-1.963-19.681,5.869-33.854,14.16-48.858,2.933-5.307,5.966-10.794,8.59-16.611.962-2.133,1.934-4.36,2.876-6.514,4-9.15,8.128-18.611,13.776-26.488,6.711-9.361,17.012-17.124,27.87-24.908,17.739-12.718,40.42-14.559,69.341-5.633,24.24,7.482,48.283,21.166,68.917,33.4,7.147,4.24,14.436,8.227,21.485,12.083,18.435,10.085,35.849,19.61,51.841,33.691,16.315,14.366,31.793,28.716,42.121,45.158" transform="translate(0 0)" fill="none" stroke="#fff" stroke-miterlimit="10" stroke-width="1"/>
    <path id="Path_1290" data-name="Path 1290" d="M0,0C.293.784.578,1.573.846,2.37c.667,1.982,1.3,4.012,1.914,5.976,1.8,5.777,3.668,11.751,6.612,17.295,3.22,6.062,8.13,10.9,12.879,15.571,4.043,3.98,8.223,8.1,11.363,12.962,1.533,2.378,2.805,4.677,4.036,6.9,3.777,6.824,7.039,12.718,15.767,16.988,8.383,4.1,18.495,6.89,28.274,9.587,3.929,1.084,7.639,2.107,11.189,3.2,3.039.936,6.019,1.757,8.9,2.55,8.25,2.274,16.042,4.42,24.207,8.89,6.889,3.773,12.759,8.554,18.436,13.178,3.484,2.837,7.086,5.771,10.925,8.481a208.911,208.911,0,0,0,18.545,11.222c4.637,2.591,9.432,5.271,13.933,8.137,13.136,8.363,21.478,17.9,31.017,29.493,9.1,11.06,17.546,20.993,25.82,30.365,4.523,5.122,8.121,10.857,11.6,16.4a121.727,121.727,0,0,0,11.19,15.874c9.118,10.383,18.131,8.882,28.966,5.839,6.407-1.8,12.974-1.995,19.323-2.185A107,107,0,0,0,330.23,238c6.69-1.119,12.964-3.629,19.029-6.057,3.906-1.563,7.945-3.18,12.058-4.41,11.17-3.341,23.106-4.319,34.649-5.264l2.094-.173c6.965-.575,13.989-1.413,20.781-2.222,5.629-.671,11.448-1.365,17.207-1.906,7.33-.689,14.855-.733,22.132-.776,7.017-.041,14.274-.083,21.321-.706,12.258-1.084,24.286-3.6,34.9-5.826a130.164,130.164,0,0,1,18.818-2.052c6.684-.4,13.594-.815,20.215-2.362,21.165-4.942,44.153-13.18,54.191-36.808,2.18-5.131,3.258-10.757,4.3-16.2,1.144-5.969,2.326-12.141,4.968-17.694,4.842-10.179,14.205-16.085,29.466-18.587a65.025,65.025,0,0,1,11.289-.389c7.244.143,14.734.291,19.474-3.166,3.8-2.773,5.545-7.254,7.229-11.588,1.594-4.1,3.243-8.346,6.633-11.25,5.846-5.007,19.089-6.24,26.069-5.839,9.061.519,15.676,6.3,22.074,11.883a73.164,73.164,0,0,0,11.075,8.5c16.244,9.4,17.2,27.1,15.995,43.177-.28,3.732-.751,7.486-1.206,11.117-.507,4.036-1.03,8.21-1.292,12.358-.3,4.727-.235,9.579-.175,14.272.1,7.461.194,15.177-1.153,22.582-.448,2.467-.964,4.917-1.464,7.285-1.579,7.488-3.069,14.561-2.677,22.5.593,11.946,3.843,24.274,6.987,36.2q.514,1.946,1.02,3.877c1.187,4.547,2.023,9.283,2.831,13.864,1.159,6.569,2.357,13.362,4.615,19.741,3.5,9.9,10.834,16.413,18.594,23.306,1.391,1.236,2.83,2.514,4.244,3.811,10.789,9.895,18.852,19.382,24.647,29,1.79,2.972,2.827,6.666,3.925,10.577,1.922,6.847,3.909,13.929,10.228,16.97,3.273,1.576,6.76,1.573,10.107,1.571,4.739-.006,9.63-.005,13.669,4.589,2.865,3.259,3.9,7.494,4.894,11.591.84,3.453,1.71,7.023,3.674,9.979,2.575,3.876,6.4,6.819,10.1,9.664a51.908,51.908,0,0,1,8.9,8c7.074,8.715,6.48,20.782,5.37,31.409-.542,5.185-3.354,10.852-6.331,16.85-4.884,9.838-9.934,20.011-5.242,28.925,3.483,6.617,10.989,12.226,18.247,17.648a119.628,119.628,0,0,1,10.106,8.1c2.118,1.994,4.2,4.038,6.212,6.015,7.859,7.721,15.284,15.015,25.35,20.1,12.713,6.42,23.723,9.441,34.649,9.508,2.434.016,4.677.149,6.847.279,7.786.462,13.933.83,20.509-5.02,18.135-16.133,18.941-38,17.11-59.219-.471-5.468-2.4-10.824-4.26-16-2.033-5.654-4.135-11.5-4.285-17.413-.245-9.66,5.428-18.109,10.434-25.564.645-.96,1.282-1.909,1.9-2.849,5.706-8.684,9.707-18.613,13.575-28.214,5.2-12.9,10.571-26.235,20.138-36.63,21.467-23.33,41.477-35.759,61.17-38a99.666,99.666,0,0,1,11.276-.627c40.241,0,82.279,22.951,119.743,43.4,5.336,2.913,10.375,5.665,15.361,8.322,25.855,13.785,47.788,32.44,68.037,50.366l2.151,1.9c4.229,3.734,8.35,7.376,12.276,11.155" transform="translate(18.986 0)" fill="none" stroke="#fff" stroke-miterlimit="10" stroke-width="1"/>
  </g>
</svg>
