<svg xmlns="http://www.w3.org/2000/svg" width="299.183" height="406.559" viewBox="0 0 299.183 406.559">
  <g id="_1_sommet_2" data-name="1 sommet_2" transform="translate(-64.398 -57.173)">
    <path id="Path_1229" data-name="Path 1229" d="M257.475,454.988c-12.838,1.286-26.112,2.617-37.77,5.909a56.831,56.831,0,0,1-15.434,2.335c-24.142,0-35.759-19.793-47.937-40.55a222.077,222.077,0,0,0-12.741-20.061c-12.322-16.559-17.226-33.176-22.9-52.415q-.738-2.5-1.5-5.065c-5.868-19.691-15.793-36.889-25.39-53.52l-.132-.227C76.474,261.6,56.989,227.833,68.12,189.946c10.323-35.138,49.438-67.428,80.433-88.329,34.493-23.258,67.1-38.1,68.784-38.633,11.436-3.627,21.351-5.311,30.189-5.311,29.687,0,47.219,19.006,69.294,47.231,29.273,37.428,52.838,72.45,44.671,122.123-4.139,25.17-10.409,42.651-22.366,62.347-11.79,19.426-13.276,36-11.849,56.439.418,6,1.648,13.081,2.949,20.581,4.635,26.708,10.4,59.948-14.927,74.762C298.716,450.854,277.75,452.956,257.475,454.988Z" fill="none" stroke="#fff" stroke-miterlimit="10" stroke-width="1"/>
    <path id="Path_1230" data-name="Path 1230" d="M316.567,266.792c-4.968,8.946-10.106,18.2-14.636,28.07-3.2,6.964-5.273,14.294-7.282,21.384-3.019,10.657-6.141,21.677-13.122,31.334-9.995,13.825-23.839,20.632-38.343,26.941-14.874,6.473-28.921,12.585-43.625,5.547a63.594,63.594,0,0,1-9.534-6.044,59.745,59.745,0,0,0-10.895-6.71,72.7,72.7,0,0,0-8.365-2.892c-5.023-1.506-9.768-2.928-13.893-6.446-7.227-6.163-11.878-15.469-16.375-24.468a142.509,142.509,0,0,0-7.907-14.422c-7.453-11.324-12.907-22.72-18.68-34.785-2.966-6.2-6.034-12.611-9.38-18.965-2.389-4.537-5.161-8.958-7.84-13.234-5.749-9.17-11.695-18.654-14.072-29.676-3.6-16.678,3.538-32.208,11.093-48.65l.636-1.385c24.318-39.1,65.431-64.114,106.237-85.325,38.1-19.8,63.8-17.037,88.71,9.533,27.444,29.27,50.259,56.755,51.477,96.774C341.633,221.651,329.457,243.578,316.567,266.792Z" fill="none" stroke="#fff" stroke-miterlimit="10" stroke-width="1"/>
    <path id="Path_1231" data-name="Path 1231" d="M269.869,118c-16.465-13.8-39.053-15.134-67.141-3.969-24.9,11.4-46.268,26.456-60.173,42.4-17.915,20.539-23.63,41.977-16.987,63.723,6.2,20.3,21.318,35.581,35.938,50.363,2.693,2.722,5.477,5.538,8.128,8.312,1.394,1.458,2.725,2.923,4.013,4.34,7.635,8.407,14.233,15.671,28.172,15.671h.227c11.718-.067,29.928-4.814,41.459-10.807,16.247-8.442,25.644-25.318,34.731-41.638,2.619-4.7,5.094-9.147,7.705-13.341,11.071-17.776,21.653-36.775,18.935-56.428C301.869,154.87,284.989,130.666,269.869,118Z" fill="none" stroke="#fff" stroke-miterlimit="10" stroke-width="1"/>
    <path id="Path_1232" data-name="Path 1232" d="M231.5,145.047c-12.053-2.033-24.425,6.117-26.853,8.606-15.228,15.6-28.275,38.843-14.929,52.986,6.713,7.115,18.582,11.729,30.359,11.729,7.557,0,15.075-1.9,21.173-6.256,17.112-12.225,15.983-36.583,9.716-49.974C246.307,152.2,239.758,146.446,231.5,145.047Z" fill="none" stroke="#fff" stroke-miterlimit="10" stroke-width="1"/>
    <path id="Path_1233" data-name="Path 1233" d="M249.2,127.121c-17.47-9.683-36.588-6.67-56.822,8.956-19.268,14.88-33.928,36.862-40.952,48.64a.349.349,0,0,0-.029.058c-10.556,26.6,15.88,57.788,38.191,69.182a50.425,50.425,0,0,0,23.063,5.948c8.906,0,17.667-2.725,26.205-8.172,12.495-7.969,24.272-21.52,35-40.276a59.661,59.661,0,0,0,5.864-45.995A63.913,63.913,0,0,0,249.2,127.121Z" fill="none" stroke="#fff" stroke-miterlimit="10" stroke-width="1"/>
    <path id="Path_1234" data-name="Path 1234" d="M273.718,101.44c-21.143-16.62-45.833-16.389-80.063.759-26.786,13.416-61.8,37.787-79.752,65.948-28.433,44.609.638,84.368,34.3,130.4,4.355,5.956,8.858,12.116,13.315,18.389,8.6,12.1,28.789,17.16,48.228,17.158,11.657,0,23.048-1.818,31.5-5.025,21.64-8.209,33.781-31.27,44.492-51.615,4.322-8.208,8.4-15.959,12.889-22.5,14.393-20.982,28.513-46.7,24.115-78.366C318.539,146.293,294.661,117.9,273.718,101.44Z" fill="none" stroke="#fff" stroke-miterlimit="10" stroke-width="1"/>
  </g>
</svg>
