<svg xmlns="http://www.w3.org/2000/svg" width="765.543" height="795.037" viewBox="0 0 765.543 795.037">
  <g id="Group_393" data-name="Group 393" transform="translate(-195.519 -243.921)">
    <path id="Path_1303" data-name="Path 1303" d="M954.923,244c.788,19.538,1.255,38.944,1.7,58.036.456,19.344.929,39.347,1.731,59.257q.318,7.912.661,15.657c2.321,53.526,4.323,99.755-10.074,153.953-2.166,8.15-4.392,16.215-6.6,24.217-14.366,52.032-27.934,101.178-19.434,154.153,2.214,13.8,4.706,27.1,7.116,39.973,7.806,41.68,15.178,81.048,11.414,127.985-.693,8.648-.7,19.912-.706,32.952-.018,35.892-.041,80.56-14.468,102.053-28.833,42.96-92.4,24.2-125.408,6.35-8.118-4.391-16.427-8.8-24.836-13.263-47.132-25.007-95.866-50.868-132.95-84.549-16.522-15.008-30.273-33.082-43.57-50.563-19.235-25.278-39.12-51.417-67.776-68.837-26.189-15.919-57.139-22.116-87.068-28.111-29.269-5.865-59.533-11.926-84.992-27.1C310.244,716.7,280.3,664.241,251.5,608.52c-49.246-95.277-51.241-190.532-53.349-291.382-.492-23.545-2.134-73.139-2.134-73.139" transform="translate(0 0)" fill="none" stroke="#292b28" stroke-miterlimit="10" stroke-width="1"/>
    <path id="Path_1304" data-name="Path 1304" d="M895.459,244c7.323,45.72,15.051,96.411,17.7,146.771,2.3,43.636,2.26,91.106-13.406,142.548-2.834,9.305-5.827,18.634-8.721,27.656-15.493,48.315-30.127,93.951-24.629,143.689,1.554,14.058,4.647,28.342,7.64,42.156,6.623,30.565,13.47,62.174,4.564,94.466-10.539,38.206-39.487,64.416-81.512,73.8-51.57,11.5-112.616-5.671-142-39.971-11.17-13.035-18.912-29.241-26.4-44.912-11.536-24.157-23.469-49.135-48.217-63.019-28.371-15.916-65.145-20.506-100.709-24.943-16.112-2.011-31.328-3.909-45.664-6.8C309.689,710.394,264.958,619.525,235.156,525.062,217.09,467.8,219.534,411.405,222.121,351.694c1.526-35.191,3.016-71.372-.073-107.694" transform="translate(19.028 0)" fill="none" stroke="#292b28" stroke-miterlimit="10" stroke-width="1"/>
    <path id="Path_1305" data-name="Path 1305" d="M829.637,244c.788,9.876,1.645,19.684,2.7,29.244,2.6,23.568,6.416,47.2,10.1,70.044,11.459,70.96,22.28,137.986,1.423,210.038-4.86,16.789-11.507,33.947-18.543,52.112-11.9,30.717-24.2,62.48-27.08,92.14-1.46,15.072,4.419,31.76,10.106,47.9,6.257,17.757,12.168,34.53,8.838,48.793-6.685,28.646-39.91,41.388-67.773,38.8-47.367-4.368-64.787-36.792-83.232-71.123l-3.107-5.77c-25.112-46.376-87.022-47.616-146.894-48.816-28.257-.567-54.945-1.1-77.822-6.109-99.843-21.854-157.021-77-185.394-178.807-14.236-51.073-9.978-104.365-5.861-155.9,3.214-40.222,6.521-81.717,1.21-122.541" transform="translate(36.875 0)" fill="none" stroke="#292b28" stroke-miterlimit="10" stroke-width="1"/>
    <path id="Path_1306" data-name="Path 1306" d="M770.236,244c-.053,13.99-1.055,28.344-2.057,42.388-2.145,30.029-4.36,61.081,2.719,89.026,2.5,9.874,6.246,18.317,9.867,26.483,6.141,13.849,11.944,26.931,10.509,44.969-.87,10.9-4.806,22.294-8.612,33.307-3.022,8.739-6.145,17.771-7.833,26.738-2.061,10.94-2.731,23.141-3.38,34.94-2.013,36.673-3.916,71.311-42.263,81.594-27.225,7.3-37.473-2.847-49.342-14.595-9.354-9.254-19.026-18.827-37.348-19.763-22.556-1.143-46.18,20.42-69.03,41.283-15.047,13.739-29.26,26.718-42.138,32.437-54.357,24.139-113.614-.346-153.467-20.862C293.449,598.488,251.227,504.594,267.674,396.9c7.658-50.146,3.906-99.754.28-147.725q-.2-2.583-.39-5.179" transform="translate(53.338 0)" fill="none" stroke="#292b28" stroke-miterlimit="10" stroke-width="1"/>
    <path id="Path_1307" data-name="Path 1307" d="M709.877,244c2.583,76.308-3.758,176.181-31.642,239.671-15.716,35.78-52.838,54.841-95.821,76.914-27.629,14.188-58.947,30.268-89.177,53.134C477.129,625.9,454.476,629.805,427.712,625c-49.838-8.938-99.919-44.593-117.741-72.5-30.888-48.372-22.978-115.15-16-174.067,1.644-13.878,3.2-26.988,4.287-39.808,2.471-29,1.257-60.9-.248-94.627" transform="translate(71.678 0)" fill="none" stroke="#292b28" stroke-miterlimit="10" stroke-width="1"/>
  </g>
</svg>
