<svg xmlns="http://www.w3.org/2000/svg" width="701.142" height="640.381" viewBox="0 0 701.142 640.381">
  <g id="Group_386" data-name="Group 386" transform="translate(700.652 0.532) rotate(90)">
    <path id="Path_1199" data-name="Path 1199" d="M43.139,20.569C41.446,9.222,34.162,5.994,28.31,3.4c-.918-.408-1.783-.791-2.578-1.187C17.155-2.065,11.207.657,7.726,3.695,1.341,9.266-1.3,19.72.606,25.346c3.328,9.831,9.756,15.137,18.027,15.137a22.141,22.141,0,0,0,5.208-.652C34.441,37.268,44.18,27.547,43.139,20.569Z" transform="translate(332.211 106.711)" fill="none" stroke="#fff" stroke-miterlimit="10" stroke-width="1"/>
    <path id="Path_1200" data-name="Path 1200" d="M426.988,53.333a308.79,308.79,0,0,1-25.837-21.943C381.026,12.909,365.131-1.686,331.473.157c-72.227,14.7-90.775,63.516-114.258,125.31q-1.362,3.584-2.749,7.224c-17.076,44.745-49.722,65.779-84.282,88.045-21.715,13.99-44.168,28.458-62.727,49.428C26.9,315.993-3.238,399.846.279,457.088,2.2,488.4,18.04,516.932,48.7,544.326c26.1,23.317,58.943,41.942,87.632,57.087,18.985,10.019,38.265,22.873,56.913,35.3,32.646,21.759,66.4,44.26,101.937,54.374,21.33,6.072,44.959,9.063,70.04,9.063,48.533,0,102.522-11.2,155.923-32.961,23.577-9.608,52.562-31.647,75.64-57.516,26.147-29.308,41.232-58.968,42.477-83.518,2.235-44.074-38.2-82.537-73.882-116.472-16.443-15.639-31.974-30.41-42.525-44.749-5.979-8.123-12.744-16.018-19.285-23.654-15.885-18.542-32.313-37.717-39.2-62.023-9.015-31.826-1.876-58.945,5.683-87.657,3.33-12.657,6.776-25.743,8.75-39.335C486.416,99.9,467.351,83.212,426.988,53.333Z" transform="translate(0 0)" fill="none" stroke="#fff" stroke-miterlimit="10" stroke-width="1"/>
    <path id="Path_1201" data-name="Path 1201" d="M419.734,339.031c-7-3.426-14.367-5.779-21.493-8.053-20.816-6.647-40.48-12.924-43.716-44.133-2.082-20.089,9.592-40.917,20.882-61.057,5.835-10.412,11.347-20.245,14.431-29.2,12.48-36.263,18.377-75.369,15.778-104.608-2.959-33.252-20.549-45.4-42.815-60.79-7.37-5.092-14.987-10.354-22.8-16.845C324.959,7.178,309.093.2,294.768.006c-.208,0-.414-.006-.62-.006-14.869,0-26.882,7.241-37.761,22.748-10.695,15.237-9.186,32.969-7.726,50.116,1.422,16.711,2.892,33.991-7.087,48.618-8.105,11.88-27.959,25.955-45.478,38.371-7.618,5.4-14.814,10.5-20.031,14.737C152.513,193.713,124.788,214.164,98,232.175,41.639,270.063,22.754,306.843,5.873,365.629c-20.487,71.335,14.106,108.463,80.781,148.487,15.2,9.125,31.374,16.593,47.017,23.815,10.281,4.746,20.912,9.654,31.209,15,14.025,7.286,26.761,16.791,39.079,25.984,15.595,11.639,31.719,23.673,50.393,31.068,58.672,23.231,123.862,3.686,181.377-13.555q5.191-1.555,10.323-3.086c22.167-6.593,54.945-21.8,80.46-44.71,19.117-17.167,40.539-44.608,34.029-77.857-4.917-25.11-22.319-36.036-40.741-47.6-8-5.021-16.262-10.212-23.967-16.761-9.562-8.126-18.032-17.19-26.222-25.955C454.543,364.334,440.31,349.1,419.734,339.031Z" transform="translate(33.557 50.041)" fill="none" stroke="#fff" stroke-miterlimit="10" stroke-width="1"/>
    <path id="Path_1202" data-name="Path 1202" d="M448.389,324.925c-.423-11.349-11.784-31.057-31.17-54.072-16.074-19.085-35.572-37.694-46.361-44.249-14.256-8.661-27.828-13.165-39.8-17.138-25.976-8.619-46.492-15.425-60.338-56.338-6.4-18.915-3.923-40.824-1.526-62.012,3.792-33.508,7.372-65.155-21.963-84.648-14.723-9.785-32.05-8.482-52.966,3.988C176.691,20.933,160.629,36.969,148.9,48.679c-5.423,5.416-9.706,9.69-12.761,12.038C124.626,69.561,111.753,77.648,99.3,85.471,76.556,99.761,53.035,114.54,35.982,134.9c-22.615,27-44.7,72.614-32.511,112.32C14.577,283.4,65.85,317.155,95.425,334.058c6.826,3.9,13.642,7.834,20.858,12,30.622,17.671,62.289,35.943,92.778,50.586,20.86,10.018,39.324,13.661,57.9,13.661,20.543,0,41.222-4.456,65.428-9.671l5.2-1.12C379.673,390.486,450.024,368.793,448.389,324.925Z" transform="translate(68.655 227.607)" fill="none" stroke="#fff" stroke-miterlimit="10" stroke-width="1"/>
    <path id="Path_1203" data-name="Path 1203" d="M348.21,258.441c-7.4-8.671-16.282-17.948-21.588-23.49-1.195-1.247-2.222-2.32-3.034-3.18-11.02-11.645-23.181-21.8-34.941-31.619-21.3-17.778-43.314-36.165-58.554-63.645-11.332-20.433-17.838-50.722-23.577-77.445-6.1-28.4-11.866-55.23-21.437-58.206-9.292-2.888-30.224,1.643-54.63,11.828A305.859,305.859,0,0,0,53.658,59.094C26.467,81.911-4.808,118.035.62,160.56c8.5,66.654,101.141,112.449,162.441,142.754,7,3.459,13.609,6.728,19.619,9.792,21.94,11.191,38.019,15.618,54.3,15.618,17.428,0,35.089-5.067,60.434-12.342l1.572-.45c1.274-.366,2.742-.77,4.369-1.218,18.529-5.106,57.087-15.728,57.793-36.867C361.192,276.622,360.013,272.276,348.21,258.441Z" transform="translate(97.491 289.612)" fill="none" stroke="#fff" stroke-miterlimit="10" stroke-width="1"/>
    <path id="Path_1204" data-name="Path 1204" d="M239.935,167.43c-2.947-9.656-13.75-23.7-24.2-37.275-8.342-10.843-16.966-22.053-21.316-30.762C162.076,34.638,117.083,3.066,52.824.03,44.444-.359,34.59,3.052,25.748,9.409a62.694,62.694,0,0,0-21.63,27.94C-1.715,52.42-1.346,69.481,5.19,86.688c7.934,20.887,24.66,41.994,49.712,62.731a256.812,256.812,0,0,0,64.563,39c4.856,2.059,12.23,5.966,20.77,10.491,19.248,10.2,43.154,22.863,54.058,22.863.117,0,.231,0,.346,0,12.405-.317,25.63-8.58,35.374-22.1C238.317,188.146,242.3,175.189,239.935,167.43Z" transform="translate(122.268 369.54)" fill="none" stroke="#fff" stroke-miterlimit="10" stroke-width="1"/>
    <path id="Path_1205" data-name="Path 1205" d="M83.578,38.068C66.116,15.2,39.484,1.44,23.292.108c-5.154-.425-9,.408-11.126,2.4C7.144,7.236.974,15.207.106,26.355-.956,40.011,5.955,55.334,20.641,71.9q2.234,2.516,4.388,4.994c13.507,15.439,24.814,28.365,40.482,28.365a36.379,36.379,0,0,0,14.866-3.5c11.137-4.966,17.83-11.593,19.9-19.7C103.121,70.9,97.659,56.508,83.578,38.068Z" transform="translate(167.062 410.971)" fill="none" stroke="#fff" stroke-miterlimit="10" stroke-width="1"/>
  </g>
</svg>
