<svg xmlns="http://www.w3.org/2000/svg" width="1194.095" height="979.23" viewBox="0 0 1194.095 979.23">
  <g id="Lignes_topo_4" data-name="Lignes topo 4" transform="translate(-46.406 -292.557)">
    <path id="Path_1276" data-name="Path 1276" d="M604.574,293c-1.6,2.541-3.144,5.115-4.6,7.733a97.056,97.056,0,0,0-10.893,29.922c-3.626,20.768.695,37.164,22.789,49.913,15.306,8.872,32.32,13.263,49.285,17.256q42.9,9.966,86.085,18.982a195.246,195.246,0,0,0,66.8,2.563,383.316,383.316,0,0,0,62.108-13.7c10.489-3.273,21.608-4.563,32.258-7.174,24.028-6.05,47.885-3.6,71.369,2.6,28.593,7.467,51.9,23.65,70.566,47.31,15,19.01,25.275,40.443,34.262,62.606,9.44,23.266,17.655,47.01,19.673,72.33,2.258,27.849-4.906,52.64-25.527,71.731-18.756,17.357-38.615,33.343-57.618,50.456-27.536,24.761-51.111,53.188-68.308,86.291-10.785,20.73-19.161,43.134-19.587,66.968-.48,28.23,4.875,55.592,21.567,79.365,10.9,15.439,22.108,30.6,32.922,46.108,9.637,13.715,18.1,28.57,21.292,44.946,2.3,11.92-1.185,24.5-6.279,36.037-6.545,14.777-16.155,27.036-27.494,38.234-22.983,22.665-48.747,40.639-78.887,52.723-23.9,9.662-47.388,9.119-71.437,2.557-18.447-5-34.84-14.895-50.987-24.952-17.518-10.956-34.353-23.086-52.238-33.247a228.95,228.95,0,0,0-88.607-28.677c-31.178-3.411-62.56-5.3-93.744-8.865-36.954-4.247-72.426-13.6-104.582-34.175-15.279-9.792-29.009-21.37-42.186-33.685-21.5-20.1-43.067-40.2-63.674-61.206-28.74-29.3-51.645-62.71-65.541-101.994-6.14-17.379-10.489-35.238-11.647-53.544-1.5-24.2.715-48.318,3.9-72.232,4.216-31.928,10.973-63.525,11.578-95.925.452-23.356-1.866-46.632-11.478-68.038a73.715,73.715,0,0,0-19.971-26.135c-14.652-12.287-30.844-21.383-48.329-28.647-25.637-10.7-48.124-26.126-64.062-49.78-5.9-8.684-10.888-18.063-11.856-28.916-2.267-24.87,16.4-45.926,40.531-42.81,13.251,1.7,24.872,6.942,36.338,13.219,11.567,6.429,22.482,14.456,34.7,18.917,19.28,7.01,37.949,2.841,52.035-12.275,10.412-11.162,19.862-23.681,23.644-39.39a86.349,86.349,0,0,0-.12-41.218c-.993-4.174-4.072-7.7-2.792-11.541" transform="translate(18.006 0.001)" fill="none" stroke="#fff" stroke-miterlimit="10" stroke-width="1" fill-rule="evenodd"/>
    <path id="Path_1277" data-name="Path 1277" d="M529.76,293q-7.175,9.34-14.089,18.882c-9.59,13.227-19.009,26.9-23.491,42.97-4.021,14.369-4.874,29.275,5.683,41.5a59.6,59.6,0,0,0,18.881,14.622c14.869,7.114,31.263,7.917,47.391,9.156,16.455,1.257,32.929,2.17,49.364,3.353,32.788,2.4,64.73,10.243,96.887,16.635,19.7,3.916,39.525,5.989,59.848,4.458,17.1-1.245,33.383-4.882,49.666-9.689,17.51-5.1,34.919-11.071,52.751-14.8,26.49-5.6,52.928-4.05,78.509,6.444,35.428,14.551,55.1,43.554,69.135,77.688,6.451,15.683,11.391,31.911,13,48.732,3.1,32.172-2.709,62.711-22.614,88.494-10.58,13.6-23.516,25.372-35.863,37.488-23.328,22.9-45.464,46.859-64.262,73.836a238.617,238.617,0,0,0-38.171,88.777c-4.067,19.457-3.086,39.084.911,58.295a143.209,143.209,0,0,0,19.92,48.568q17.089,26.533,32.8,53.971c18.643,32.73,6.823,65.248-15.446,87.159a147.178,147.178,0,0,1-66.093,37.669,79.72,79.72,0,0,1-30.3,1.452c-15.576-2.207-31.271-5.148-45.584-12.781-20.968-11.272-41.913-22.629-63.2-33.295a280.6,280.6,0,0,0-110.853-29.115c-30.056-1.665-60.208-3.482-90.221-6.5-37.061-3.772-72.13-14.671-102.2-38.077-18.945-14.72-36.847-30.874-54.725-47.012-20.977-18.942-41.425-38.5-59.806-60.194-19.212-22.763-32.4-48.559-41.806-76.742-9.275-27.827-9.137-55.982-5.261-84.281,4.772-34.858,14.433-68.42,24.935-101.841a789.645,789.645,0,0,0,21.664-84.623c4.507-22.962,5.044-46.65,7.958-69.947a294.3,294.3,0,0,1,15.405-62.6c6.858-19.047,15.729-37.652,17.544-58.117,2.288-25.19-3.235-48.55-15.371-70.545" transform="translate(53.442 0.001)" fill="none" stroke="#fff" stroke-miterlimit="10" stroke-width="1" fill-rule="evenodd"/>
    <path id="Path_1278" data-name="Path 1278" d="M641.32,293a118.6,118.6,0,0,0-6.914,19.379c-4.158,15.93-.912,34.668,15.124,47.891,16.154,13.2,35.011,19.513,53.959,25.531a428,428,0,0,0,46.608,11.7c13.991,2.768,28.247,5.121,42.444,5.431,15.24.315,30.671-1.246,45.786-3.45,12.007-1.707,23.619-5.634,35.386-8.44,9.691-2.329,19.411-4.541,29.115-6.561,8.469-1.754,16.9-4.033,25.494-4.689,43.122-2.942,83.775,5.159,118.4,33.277,20.135,16.424,35.872,37.249,48.1,60.479,8.444,15.989,16.315,32.286,24.193,48.53l13.893,33.268c5.38,15.066,11.828,29.817,13.26,46.051,1.236,13.162,3.341,24.863-2.486,36.707,0,0-10.346,15.889-19.266,23.115-8.915,7.243-18.558,14.191-30.973,23.479-18.266,13.682-37.956,25.479-55.656,39.846-19.659,15.926-35.634,35.685-49.18,57.373C973.2,806.592,962,832.389,962.285,862.531c.137,17.542,2,34.919,9.952,50.358,7.6,14.877,17.8,28.515,27.591,42.174,11.474,16,24.477,30.857,35.411,47.225,12.652,18.827,15.115,39.6,5.835,60.814a132.318,132.318,0,0,1-27.164,39.6c-31.891,32.472-65.591,62.337-107.912,80.036-13.472,5.645-27.53,10.295-42.43,9.135-22.4-1.715-43.569-7.6-63.388-19.151-23.22-13.576-44.1-30.376-65.668-46.318-10.361-7.716-21.215-15.128-32.77-20.739-29.037-14.026-59.922-21.3-91.889-24.509-34.618-3.454-69.332-5.822-103.566-13-31.3-6.581-60.049-19.273-85.139-38.812-22.3-17.4-42.781-37.421-63.375-56.995-32.7-31.173-63.674-63.787-84.79-104.712-11.468-22.2-20.985-45.131-26.2-69.6-4.421-20.937-5.207-42.375-4.719-63.726.628-27.975,4.077-55.9,1.442-83.9-1.478-15.486-2.584-31.255-6.522-46.232-5.074-19.077-16.818-34.92-31.057-48.231-21.443-20-43.925-38.966-65.166-59.174-20.167-19.229-38.3-40-50.6-66-10.094-21.452-9.624-42.53-2.621-63.36,8.869-26.5,26.941-46.557,49.275-62.547A156.622,156.622,0,0,1,156.313,293" transform="translate(9.93)" fill="none" stroke="#fff" stroke-miterlimit="10" stroke-width="1" fill-rule="evenodd"/>
    <path id="Path_1279" data-name="Path 1279" d="M677.132,293q-.843,2.18-1.543,4.454c-5.794,18.625-1.3,37.671,14.425,50.769,20.473,17.11,44.708,23.914,69.068,30.856,18.072,5.122,36.646,6.3,55.35,4.623,8.818-.755,17.756-.824,26.4-2.384,15.124-2.79,30-6.585,45.007-9.872,6.329-1.393,12.662-2.823,19.052-3.825,9.321-1.5,18.762-2.535,28.176-3.877,12.615-1.815,25.223-1.12,37.874.244a178.985,178.985,0,0,1,81.638,29.475c19.322,12.847,33.306,30.944,47.545,48.85,5.445,6.858,10.045,14.456,14.722,21.878l14.639,24.506c16.963,31.082,34.943,61.526,51.378,92.841,14.256,27.108,9.952,60.844-5.786,78.753s-30.034,26.211-30.034,26.211c-14.741,8.048-29.717,15.728-44.323,24.023-31.691,17.985-61.315,38.272-82.769,69.31-17.589,25.379-30.761,51.542-29.84,83.862.443,15.032,2.8,29.4,8.922,42.6,11.247,24.047,29.181,43.447,46.768,62.828,12.936,14.253,25.273,28.854,33.827,46.54,7.5,15.435,5.7,30.259.054,45.193-7.627,20.2-21.988,35.578-36.954,50.026q-31.479,30.344-64.424,59.119c-15.077,13.208-30.675,25.865-48.525,35.327-21.074,11.068-42.212,19.129-67.124,15.954-30.473-3.916-56.757-16.936-80.709-34.9-21.9-16.363-42.168-35.035-63.453-52.309-26.337-21.408-57.5-31.469-89.877-37.522-20.8-3.9-42-5.694-63.023-8.361-32.647-4.086-65.284-7.877-96.124-20.891-23.438-9.865-45.712-22.012-64.446-39.372-25.311-23.329-49.593-47.82-73.86-72.327-32.007-32.359-58.282-68.88-76.532-111.11-8.376-19.371-15.583-38.952-18.48-59.952-1.042-7.646-2.374-15.215-3.025-22.866-1.04-12.245-1.748-24.561-2.454-36.876-.92-15.8-1.372-31.652-2.623-47.46a271.036,271.036,0,0,0-4.074-29.971c-1.756-9.093-3.63-18.346-6.961-26.926-7.778-19.967-20.081-37.333-33.929-53.134-24.968-28.545-51.114-55.976-76.343-84.269-7.235-8.1-13.462-17.3-19.283-26.588C77.108,443.043,70.1,428.7,66.606,413.19c-4.691-20.875-.5-41.479,6.174-61.1,4.38-12.853,11.272-24.876,17.617-37,3.9-7.426,8.032-14.75,12.146-22.086" transform="translate(4.95 0.001)" fill="none" stroke="#fff" stroke-miterlimit="10" stroke-width="1" fill-rule="evenodd"/>
    <path id="Path_1280" data-name="Path 1280" d="M729.5,293c-2.9,10.885-1.385,21.732,6.417,31.4a69.2,69.2,0,0,0,28.085,20.845c13.659,5.464,27.616,9.936,42.417,10.275,9.762.138,19.63.462,29.266-.749,18.388-2.343,36.673-5.591,54.966-8.586,11.462-1.849,22.861-4.387,34.4-5.838,18.933-2.352,37.959-1.519,56.846.985,28.938,3.744,55.771,13.842,80.933,28.834,20.55,12.272,36.289,29.851,51.983,47.549l6.133,7.927a246.452,246.452,0,0,1,19.233,25.206c23,34.362,48.916,66.452,75.269,98.154a106.851,106.851,0,0,1,23.381,48.581c3.527,19.152-.841,37.964-7.174,56.052-7.175,20.473-21.141,35.788-37.977,47.975-10.515,7.577-22.962,12.288-34.568,18.245l-1.864.926c-22.633,10.357-46.192,18.594-67.417,32.2-26.479,16.885-46.8,39.043-59.83,67.95-10.863,24.092-10.455,48.691-1.109,73.159,6.52,17.173,17.7,31.246,30.07,44.444,17.408,18.534,35.021,36.9,52.439,55.386,8.475,8.96,12.737,20.442,17.15,31.6,1.729,4.318,1.687,9.619,1.406,14.383-1.092,19.751-9.5,36.721-22.548,50.62-14.73,15.756-31.244,29.822-46.494,45.035-22.173,22.222-44.112,44.743-65.916,67.3-16.521,17.16-31.192,36.2-49.868,51.122-15.537,12.482-32.551,19.661-53.2,16.675-21.746-3.112-42.486-8.707-62.5-18.185-29.242-13.761-55.742-31.071-78.562-54.551-17.637-18.205-36.084-35.542-56.125-51.215-19.836-15.533-42.372-23.9-65.733-30.677-31.611-9.111-64.6-10.178-96.73-16.4-18.494-3.62-37.3-6.662-55.06-12.732-33.086-11.213-63.257-28.106-88.3-53.567-24.4-24.831-49.487-49.066-73.227-74.6a457.8,457.8,0,0,1-68.229-96.182C231.2,831.963,219.77,800.042,214.6,765.872c-2.3-15.381-2.328-31.082-3.981-46.59-1.409-13.555-2.989-27.072-5.588-40.435a331.022,331.022,0,0,0-9.735-38.516c-6.735-21.008-18.621-39.547-31.872-56.731-20.134-26.1-41.451-51.253-62.434-76.714-16.5-20.017-32.238-40.594-42.453-64.718-5.858-13.844-11.426-27.768-11.615-43.606a169.275,169.275,0,0,1,8.718-55.444c5.639-17.06,12.918-33.5,19.751-50.118" transform="translate(0 0.001)" fill="none" stroke="#fff" stroke-miterlimit="10" stroke-width="1" fill-rule="evenodd"/>
  </g>
</svg>
