<svg xmlns="http://www.w3.org/2000/svg" width="253.934" height="524.59" viewBox="0 0 253.934 524.59">
  <g id="Lignes_topo_2" data-name="Lignes topo 2" transform="translate(0.455 0.206)">
    <path id="Path_1296" data-name="Path 1296" d="M182.83,459.232c-2.151-1.688-4.353-3.3-6.518-4.893-5.141-3.773-10.457-7.674-14.816-12.355-6.851-7.36-11.891-16.355-16.764-25.054-1.355-2.418-2.756-4.919-4.17-7.336-10.466-17.9-27.5-35.014-53.613-53.872-22.039-15.918-41.073-29.665-49.3-57.1-4.286-14.3-4.939-29.683-5.572-44.562-.394-9.287-.8-18.89-2.086-28.169-1.261-9.116-3.119-18.248-4.915-27.08-3.388-16.651-6.891-33.869-6.5-51.6.254-11.64,2.725-23.475,5.115-34.92,2.54-12.168,5.167-24.749,5.155-37.171C28.82,50.261,16.105,23.207,4.215,6.175,2.782,4.122,1.383,2.064,0,0" transform="translate(0 64.759)" fill="none" stroke="#2f322d" stroke-miterlimit="10" stroke-width="1"/>
    <path id="Path_1297" data-name="Path 1297" d="M205.682,475.046c-3.952-3.942-8.05-7.68-12.027-11.3-9.068-8.241-17.632-16.025-24.693-26.207a138.03,138.03,0,0,1-8.79-15.37c-3.885-7.522-7.9-15.3-13.732-21.572-10.98-11.811-24.875-20.981-38.312-29.848-12.678-8.365-25.787-17.017-36.442-27.877-20.372-20.762-23.5-47.2-25.474-79.61-.857-14.076-3.67-27.859-6.39-41.188-3.181-15.587-6.47-31.7-6.638-48.353-.132-13,1.922-26.2,3.909-38.955,2.724-17.5,5.541-35.593,2.681-53.261C35.221,53.387,21.086,31.985,6.122,9.327,4.109,6.279,2.043,3.15,0,0" transform="translate(0 48.944)" fill="none" stroke="#2f322d" stroke-miterlimit="10" stroke-width="1"/>
    <path id="Path_1298" data-name="Path 1298" d="M0,0" transform="translate(0 49.79)" fill="none" stroke="#2f322d" stroke-miterlimit="10" stroke-width="1"/>
    <path id="Path_1299" data-name="Path 1299" d="M0,0" transform="translate(0 48.944)" fill="none" stroke="#2f322d" stroke-miterlimit="10" stroke-width="1"/>
    <path id="Path_1300" data-name="Path 1300" d="M224.206,489.81A115.921,115.921,0,0,0,205.1,470.1c-13.4-10.987-20.909-24.925-28.864-39.682l-1.288-2.387c-8.139-15.058-21.486-27.985-40.805-39.518-35.684-21.3-61.213-42.614-69.826-77.368-2.577-10.4-3.675-21.236-4.738-31.716-.838-8.267-1.7-16.815-3.291-25.109-1.1-5.766-2.471-11.484-3.793-17.014-2.739-11.456-5.571-23.3-6.057-35.78-.583-14.974,1-30.461,2.533-45.439,2.136-20.889,4.345-42.49.671-62.905-2.961-16.449-9.093-32.578-19.3-50.758C25.51,33.8,19.389,25.969,13.469,18.391,8.87,12.5,4.136,6.43,0,0" transform="translate(0 34.18)" fill="none" stroke="#2f322d" stroke-miterlimit="10" stroke-width="1"/>
    <path id="Path_1301" data-name="Path 1301" d="M240.6,506.314a86.228,86.228,0,0,0-8.161-12.3A200.107,200.107,0,0,0,217,477.579c-4.652-4.591-9.464-9.338-13.74-14.385-4.825-5.7-8.365-12.415-11.788-18.915-3.321-6.305-6.756-12.825-11.378-18.464-7.668-9.356-17.744-17.733-30.8-25.612-23.512-14.185-50.16-30.263-64.014-57.226-9.541-18.568-13.467-39.794-17.264-60.322-1.234-6.674-2.511-13.574-3.959-20.258-5.676-26.188-7.554-54.057-5.914-87.7q.2-4.039.411-8.054c1.38-26.5,2.684-51.535-4.314-76.488-6.7-23.9-20.094-41.74-34.272-60.632-2.509-3.343-5.1-6.8-7.654-10.285A191.523,191.523,0,0,1,0,0" transform="translate(0 17.676)" fill="none" stroke="#2f322d" stroke-miterlimit="10" stroke-width="1"/>
    <path id="Path_1302" data-name="Path 1302" d="M253.029,523.99c-1.5-3.073-3.039-6.159-4.649-9.169-7.269-13.593-17.129-25.635-26.665-37.281-7.613-9.3-15.485-18.911-22-29.266-12.541-19.926-32.571-33.233-51.941-46.1-23.937-15.9-48.689-32.35-58.993-61.345-2.7-7.6-4.159-15.8-5.571-23.734-.933-5.245-1.9-10.668-3.213-15.867-1.228-4.856-2.691-9.709-4.105-14.4a214.546,214.546,0,0,1-5.9-22.516c-3.558-19.1-2.526-39.26-1.529-58.754.434-8.474.882-17.237.946-25.788a323.4,323.4,0,0,0-9.49-81.581c-4.655-18.706-16.232-32.83-27.428-46.489-6.349-7.745-12.915-15.754-18.27-24.6A257.9,257.9,0,0,1,0,0" transform="translate(0 0)" fill="none" stroke="#2f322d" stroke-miterlimit="10" stroke-width="1"/>
  </g>
</svg>
