<svg xmlns="http://www.w3.org/2000/svg" width="248.362" height="250.934" viewBox="0 0 248.362 250.934">
  <g id="Header-ligne_topo" data-name="Header-ligne topo" transform="translate(0.441 0.651)">
    <path id="Path_1195" data-name="Path 1195" d="M118.2,224.25c9.441,56.644,12.138,149.7,109.751,110,8.069-6.2,17.094-11.869,25.821-17.352,15.946-10.018,32.436-20.378,44.388-34.649,15.854-18.926,31.336-50.9,22.792-78.738-7.786-25.362-43.729-49.027-64.462-60.877-4.784-2.735-9.563-5.492-14.622-8.411C220.4,121.838,102.512,67.644,84.482,109.616,55.662,171.817,108.757,167.608,118.2,224.25Z" transform="translate(-76 -93.935)" fill="none" stroke="#fff" stroke-miterlimit="10" stroke-width="1"/>
    <path id="Path_1196" data-name="Path 1196" d="M109.043,218.312c9.441,22.927,17.246,65,44.505,78.221,28.63,13.883,61.249,6.856,69.134.24,19.061-15.995,40.984-41.318,37.181-71.128-5.962-46.726-43.114-50.825-86.086-72.068-4.907-2.425-61.037-24.713-80.918-6.744S99.6,195.385,109.043,218.312Z" transform="translate(-20.992 -101.482)" fill="none" stroke="#fff" stroke-miterlimit="10" stroke-width="1"/>
    <path id="Path_1197" data-name="Path 1197" d="M195.789,269.188c5.737-1.3,11.762-5.436,16.555-11.376a43.936,43.936,0,0,0,9.421-22.908c1.139-11.272-2.285-22.734-9.9-33.147C198.245,180.89,94.4,132.339,94.627,205.645,95.226,236.867,151.794,279.091,195.789,269.188Z" transform="translate(9.835 -105.869)" fill="none" stroke="#fff" stroke-miterlimit="10" stroke-width="1"/>
    <path id="Path_1198" data-name="Path 1198" d="M109.856,231.72c5.281,14.258,37.141,12.8,42.3,2.3,13.374-27.2-27.707-34.367-30.824-33.985-6.394.785-10.8,3.1-13.1,6.872C105.067,212.109,105.6,220.224,109.856,231.72Z" transform="translate(67.313 -111.359)" fill="none" stroke="#fff" stroke-miterlimit="10" stroke-width="1"/>
  </g>
</svg>
